<svg xmlns="http://www.w3.org/2000/svg"  viewBox="0 0 50 50" width="50px" height="50px"><path d="M 24.142578 0 C 22.992762 0 22.142579 0.94963851 22.058594 2.0742188 C 19.711412 2.3705597 17.905045 3.6589719 16.791016 5.3300781 C 15.619159 7.0879284 15.132494 9.1601336 15.060547 11.005859 C 14.903751 11.051009 14.780267 11.066589 14.505859 11.222656 C 14.090403 11.458947 13.652193 11.908826 13.390625 12.53125 C 13.129057 13.153674 13 13.934738 13 15 L 13 15.78125 L 13.757812 15.970703 C 13.757812 15.970703 14.442511 16.109632 15.421875 16.275391 C 15.539696 16.960782 15.682015 17.610519 15.859375 18.318359 C 15.396628 18.876525 15.027654 19.62286 15.160156 20.730469 L 15.162109 20.732422 C 15.30996 21.961363 15.64089 22.834141 16.123047 23.449219 C 16.38507 23.783476 16.723688 23.818196 17.042969 23.980469 C 17.220303 25.025941 17.531277 26.077894 17.96875 26.951172 C 18.220273 27.453259 18.488539 27.901327 18.767578 28.277344 C 18.891786 28.444719 19.071368 28.548643 19.203125 28.689453 C 19.209725 29.925853 19.233763 30.949455 19.126953 32.253906 C 18.800554 33.035903 18.03205 33.680342 16.804688 34.292969 C 15.535405 34.926518 13.882883 35.487316 12.212891 36.205078 C 10.542898 36.92284 8.8377525 37.802083 7.4785156 39.177734 C 6.1192788 40.553385 5.1515059 42.451289 5.0019531 44.939453 L 4.9375 46 L 21.814453 46 C 22.854617 47.79161 24.788783 49 27 49 L 45 49 L 45 48.982422 C 47.779158 48.808663 50 46.489036 50 43.667969 L 50 25 A 1.0001 1.0001 0 0 0 49 24 L 33.003906 24 C 33.00676 23.982336 33.010808 23.964924 33.013672 23.947266 C 33.312037 23.785357 33.631002 23.762856 33.876953 23.449219 C 34.358933 22.834598 34.690379 21.959893 34.837891 20.732422 C 34.970177 19.634351 34.609298 18.890803 34.152344 18.332031 C 34.334847 17.758725 34.521499 17.08846 34.6875 16.259766 C 35.602165 16.102143 36.244141 15.970703 36.244141 15.970703 L 37 15.779297 L 37 15 C 37 13.926282 36.870924 13.140422 36.609375 12.515625 C 36.347826 11.890828 35.907763 11.441731 35.488281 11.207031 C 35.214911 11.054081 35.095848 11.039802 34.9375 10.996094 C 34.862636 9.1484373 34.367668 7.0812683 33.193359 5.328125 C 32.075975 3.659964 30.273348 2.3735626 27.941406 2.0761719 C 27.858252 0.9506983 27.007939 -2.9605947e-16 25.857422 0 L 24.142578 0 z M 24.142578 2 L 25.857422 2 C 25.873561 2 26 2.0687333 26 2.2246094 L 26 2.7851562 A 1.0001 1.0001 0 0 0 26 3.1113281 L 26 9 A 1.0001 1.0001 0 1 0 28 9 L 28 4.2070312 C 29.532235 4.4968772 30.724427 5.236887 31.53125 6.4414062 C 32.521492 7.9197536 33 9.8885126 33 11.453125 C 33 11.750973 33.128202 12.142055 33.359375 12.386719 C 33.590548 12.631383 33.824386 12.718309 33.982422 12.773438 C 34.298495 12.883693 34.431201 12.906122 34.511719 12.951172 C 34.592239 12.996222 34.652174 13.018043 34.765625 13.289062 C 34.824815 13.430466 34.843495 13.881343 34.888672 14.181641 C 34.656549 14.231912 34.287869 14.306825 33.822266 14.386719 A 1.0001 1.0001 0 0 0 33.5625 14.425781 C 31.982712 14.682524 29.246419 15 25.005859 15 C 20.855254 15 18.163653 14.695165 16.564453 14.441406 A 1.0001 1.0001 0 0 0 16.294922 14.404297 C 15.762166 14.315626 15.367261 14.236509 15.113281 14.181641 C 15.158201 13.888408 15.175701 13.444308 15.234375 13.304688 C 15.347807 13.034767 15.409597 13.010975 15.494141 12.962891 C 15.578681 12.914801 15.713955 12.8883 16.029297 12.773438 C 16.186968 12.716007 16.419632 12.6268 16.646484 12.382812 C 16.873336 12.138825 17 11.750973 17 11.453125 C 17 9.886286 17.470409 7.9165116 18.455078 6.4394531 C 19.258676 5.2340114 20.452191 4.4935214 22 4.2050781 L 22 9 A 1.0001 1.0001 0 1 0 24 9 L 24 3.1210938 A 1.0001 1.0001 0 0 0 24 2.7929688 L 24 2.2246094 C 24 2.0687333 24.128414 2 24.142578 2 z M 32.603516 16.564453 C 32.453708 17.212975 32.290572 17.740333 32.126953 18.232422 L 31.875 18.988281 L 32.556641 19.402344 C 32.513521 19.376174 32.953577 19.66161 32.853516 20.492188 C 32.735835 21.474041 32.482587 21.985496 32.302734 22.214844 C 32.122882 22.444192 32.027175 22.432968 32.019531 22.433594 L 31.195312 22.5 L 31.107422 23.324219 C 31.085038 23.535145 31.02079 23.77115 30.970703 24 L 29 24 A 1.0001 1.0001 0 0 0 28 25 L 28 43 L 22.101562 43 A 1.0001 1.0001 0 0 0 21.101562 44 L 7.2421875 44 C 7.5242378 42.580272 8.0538804 41.442694 8.9023438 40.583984 C 9.9678569 39.505604 11.429446 38.718832 13.001953 38.042969 C 14.574461 37.367106 16.240297 36.809263 17.697266 36.082031 C 19.154235 35.354799 20.485248 34.413387 21.056641 32.876953 L 21.103516 32.751953 L 21.115234 32.619141 C 21.267039 30.943046 21.210938 29.766467 21.210938 28.318359 L 21.210938 27.712891 L 20.673828 27.431641 C 20.764138 27.479021 20.561758 27.340231 20.373047 27.085938 C 20.184336 26.831641 19.963336 26.46885 19.755859 26.054688 C 19.340906 25.226361 18.983935 24.180478 18.892578 23.324219 L 18.804688 22.5 L 17.980469 22.433594 C 17.972869 22.432972 17.877109 22.444264 17.697266 22.214844 C 17.517607 21.985657 17.264788 21.474222 17.146484 20.494141 L 17.146484 20.492188 C 17.049054 19.664589 17.488368 19.374183 17.445312 19.400391 L 18.080078 19.015625 L 17.892578 18.296875 C 17.719634 17.630123 17.595232 17.098592 17.492188 16.576172 C 19.371029 16.799263 21.882427 17 25.005859 17 C 28.178525 17 30.718794 16.791784 32.603516 16.564453 z M 30 26 L 48 26 L 48 43.667969 C 48 45.463245 46.607699 46.896391 44.835938 46.984375 C 43.246831 46.898632 42 45.612177 42 44 A 1.0001 1.0001 0 0 0 41 43 L 30 43 L 30 26 z M 39 28 L 32 32 L 32 41 L 46 41 L 46 32 L 39 28 z M 39 30.300781 L 44 33.199219 L 44 35 L 42 35 L 42 37 L 44 37 L 44 39 L 34 39 L 34 37 L 36 37 L 36 35 L 34 35 L 34 33.199219 L 39 30.300781 z M 38 35 L 38 37 L 40 37 L 40 35 L 38 35 z M 23.798828 45 L 40.203125 45 C 40.361496 45.745603 40.65757 46.416002 41.109375 47 L 27 47 C 25.565334 47 24.504011 46.123949 23.798828 45 z"/></svg>