<svg xmlns="http://www.w3.org/2000/svg"  viewBox="0 0 50 50" width="50px" height="50px"><path d="M 2 2 L 2 45 L 19.5625 45 L 22.8125 48.25 L 23.5 47.53125 L 26.03125 45 L 39 45 L 39 32.0625 L 47.5625 23.5 L 48.25 22.78125 L 40.75 15.28125 L 39 17.03125 L 39 2 Z M 4 4 L 37 4 L 37 19.0625 L 16 40.03125 L 15.28125 40.75 L 15.5625 41 C 15.539063 40.996094 15.523438 41 15.5 41 C 15.222656 41 15 41.222656 15 41.5 C 15 41.777344 15.222656 42 15.5 42 C 15.777344 42 16 41.777344 16 41.5 C 16 41.476563 16.003906 41.460938 16 41.4375 L 17.5625 43 L 4 43 Z M 7.5 5 C 7.222656 5 7 5.222656 7 5.5 C 7 5.777344 7.222656 6 7.5 6 C 7.777344 6 8 5.777344 8 5.5 C 8 5.222656 7.777344 5 7.5 5 Z M 11.5 5 C 11.222656 5 11 5.222656 11 5.5 C 11 5.777344 11.222656 6 11.5 6 C 11.777344 6 12 5.777344 12 5.5 C 12 5.222656 11.777344 5 11.5 5 Z M 15.5 5 C 15.222656 5 15 5.222656 15 5.5 C 15 5.777344 15.222656 6 15.5 6 C 15.777344 6 16 5.777344 16 5.5 C 16 5.222656 15.777344 5 15.5 5 Z M 19.5 5 C 19.222656 5 19 5.222656 19 5.5 C 19 5.777344 19.222656 6 19.5 6 C 19.777344 6 20 5.777344 20 5.5 C 20 5.222656 19.777344 5 19.5 5 Z M 23.5 5 C 23.222656 5 23 5.222656 23 5.5 C 23 5.777344 23.222656 6 23.5 6 C 23.777344 6 24 5.777344 24 5.5 C 24 5.222656 23.777344 5 23.5 5 Z M 27.5 5 C 27.222656 5 27 5.222656 27 5.5 C 27 5.777344 27.222656 6 27.5 6 C 27.777344 6 28 5.777344 28 5.5 C 28 5.222656 27.777344 5 27.5 5 Z M 31.5 5 C 31.222656 5 31 5.222656 31 5.5 C 31 5.777344 31.222656 6 31.5 6 C 31.777344 6 32 5.777344 32 5.5 C 32 5.222656 31.777344 5 31.5 5 Z M 35.5 5 C 35.222656 5 35 5.222656 35 5.5 C 35 5.777344 35.222656 6 35.5 6 C 35.777344 6 36 5.777344 36 5.5 C 36 5.222656 35.777344 5 35.5 5 Z M 5.5 7 C 5.222656 7 5 7.222656 5 7.5 C 5 7.777344 5.222656 8 5.5 8 C 5.777344 8 6 7.777344 6 7.5 C 6 7.222656 5.777344 7 5.5 7 Z M 7.5 7 C 7.222656 7 7 7.222656 7 7.5 C 7 7.777344 7.222656 8 7.5 8 C 7.777344 8 8 7.777344 8 7.5 C 8 7.222656 7.777344 7 7.5 7 Z M 9.5 7 C 9.222656 7 9 7.222656 9 7.5 C 9 7.777344 9.222656 8 9.5 8 C 9.777344 8 10 7.777344 10 7.5 C 10 7.222656 9.777344 7 9.5 7 Z M 11.5 7 C 11.222656 7 11 7.222656 11 7.5 C 11 7.777344 11.222656 8 11.5 8 C 11.777344 8 12 7.777344 12 7.5 C 12 7.222656 11.777344 7 11.5 7 Z M 13.5 7 C 13.222656 7 13 7.222656 13 7.5 C 13 7.777344 13.222656 8 13.5 8 C 13.777344 8 14 7.777344 14 7.5 C 14 7.222656 13.777344 7 13.5 7 Z M 15.5 7 C 15.222656 7 15 7.222656 15 7.5 C 15 7.777344 15.222656 8 15.5 8 C 15.777344 8 16 7.777344 16 7.5 C 16 7.222656 15.777344 7 15.5 7 Z M 17.5 7 C 17.222656 7 17 7.222656 17 7.5 C 17 7.777344 17.222656 8 17.5 8 C 17.777344 8 18 7.777344 18 7.5 C 18 7.222656 17.777344 7 17.5 7 Z M 19.5 7 C 19.222656 7 19 7.222656 19 7.5 C 19 7.777344 19.222656 8 19.5 8 C 19.777344 8 20 7.777344 20 7.5 C 20 7.222656 19.777344 7 19.5 7 Z M 21.5 7 C 21.222656 7 21 7.222656 21 7.5 C 21 7.777344 21.222656 8 21.5 8 C 21.777344 8 22 7.777344 22 7.5 C 22 7.222656 21.777344 7 21.5 7 Z M 23.5 7 C 23.222656 7 23 7.222656 23 7.5 C 23 7.777344 23.222656 8 23.5 8 C 23.777344 8 24 7.777344 24 7.5 C 24 7.222656 23.777344 7 23.5 7 Z M 25.5 7 C 25.222656 7 25 7.222656 25 7.5 C 25 7.777344 25.222656 8 25.5 8 C 25.777344 8 26 7.777344 26 7.5 C 26 7.222656 25.777344 7 25.5 7 Z M 27.5 7 C 27.222656 7 27 7.222656 27 7.5 C 27 7.777344 27.222656 8 27.5 8 C 27.777344 8 28 7.777344 28 7.5 C 28 7.222656 27.777344 7 27.5 7 Z M 29.5 7 C 29.222656 7 29 7.222656 29 7.5 C 29 7.777344 29.222656 8 29.5 8 C 29.777344 8 30 7.777344 30 7.5 C 30 7.222656 29.777344 7 29.5 7 Z M 31.5 7 C 31.222656 7 31 7.222656 31 7.5 C 31 7.777344 31.222656 8 31.5 8 C 31.777344 8 32 7.777344 32 7.5 C 32 7.222656 31.777344 7 31.5 7 Z M 33.5 7 C 33.222656 7 33 7.222656 33 7.5 C 33 7.777344 33.222656 8 33.5 8 C 33.777344 8 34 7.777344 34 7.5 C 34 7.222656 33.777344 7 33.5 7 Z M 35.5 7 C 35.222656 7 35 7.222656 35 7.5 C 35 7.777344 35.222656 8 35.5 8 C 35.777344 8 36 7.777344 36 7.5 C 36 7.222656 35.777344 7 35.5 7 Z M 7.5 9 C 7.222656 9 7 9.222656 7 9.5 C 7 9.777344 7.222656 10 7.5 10 C 7.777344 10 8 9.777344 8 9.5 C 8 9.222656 7.777344 9 7.5 9 Z M 11.5 9 C 11.222656 9 11 9.222656 11 9.5 C 11 9.777344 11.222656 10 11.5 10 C 11.777344 10 12 9.777344 12 9.5 C 12 9.222656 11.777344 9 11.5 9 Z M 15.5 9 C 15.222656 9 15 9.222656 15 9.5 C 15 9.777344 15.222656 10 15.5 10 C 15.777344 10 16 9.777344 16 9.5 C 16 9.222656 15.777344 9 15.5 9 Z M 19.5 9 C 19.222656 9 19 9.222656 19 9.5 C 19 9.777344 19.222656 10 19.5 10 C 19.777344 10 20 9.777344 20 9.5 C 20 9.222656 19.777344 9 19.5 9 Z M 23.5 9 C 23.222656 9 23 9.222656 23 9.5 C 23 9.777344 23.222656 10 23.5 10 C 23.777344 10 24 9.777344 24 9.5 C 24 9.222656 23.777344 9 23.5 9 Z M 27.5 9 C 27.222656 9 27 9.222656 27 9.5 C 27 9.777344 27.222656 10 27.5 10 C 27.777344 10 28 9.777344 28 9.5 C 28 9.222656 27.777344 9 27.5 9 Z M 31.5 9 C 31.222656 9 31 9.222656 31 9.5 C 31 9.777344 31.222656 10 31.5 10 C 31.777344 10 32 9.777344 32 9.5 C 32 9.222656 31.777344 9 31.5 9 Z M 35.5 9 C 35.222656 9 35 9.222656 35 9.5 C 35 9.777344 35.222656 10 35.5 10 C 35.777344 10 36 9.777344 36 9.5 C 36 9.222656 35.777344 9 35.5 9 Z M 5.5 11 C 5.222656 11 5 11.222656 5 11.5 C 5 11.777344 5.222656 12 5.5 12 C 5.777344 12 6 11.777344 6 11.5 C 6 11.222656 5.777344 11 5.5 11 Z M 7.5 11 C 7.222656 11 7 11.222656 7 11.5 C 7 11.777344 7.222656 12 7.5 12 C 7.777344 12 8 11.777344 8 11.5 C 8 11.222656 7.777344 11 7.5 11 Z M 9.5 11 C 9.222656 11 9 11.222656 9 11.5 C 9 11.777344 9.222656 12 9.5 12 C 9.777344 12 10 11.777344 10 11.5 C 10 11.222656 9.777344 11 9.5 11 Z M 11.5 11 C 11.222656 11 11 11.222656 11 11.5 C 11 11.777344 11.222656 12 11.5 12 C 11.777344 12 12 11.777344 12 11.5 C 12 11.222656 11.777344 11 11.5 11 Z M 13.5 11 C 13.222656 11 13 11.222656 13 11.5 C 13 11.777344 13.222656 12 13.5 12 C 13.777344 12 14 11.777344 14 11.5 C 14 11.222656 13.777344 11 13.5 11 Z M 15.5 11 C 15.222656 11 15 11.222656 15 11.5 C 15 11.777344 15.222656 12 15.5 12 C 15.777344 12 16 11.777344 16 11.5 C 16 11.222656 15.777344 11 15.5 11 Z M 17.5 11 C 17.222656 11 17 11.222656 17 11.5 C 17 11.777344 17.222656 12 17.5 12 C 17.777344 12 18 11.777344 18 11.5 C 18 11.222656 17.777344 11 17.5 11 Z M 19.5 11 C 19.222656 11 19 11.222656 19 11.5 C 19 11.777344 19.222656 12 19.5 12 C 19.777344 12 20 11.777344 20 11.5 C 20 11.222656 19.777344 11 19.5 11 Z M 21.5 11 C 21.222656 11 21 11.222656 21 11.5 C 21 11.777344 21.222656 12 21.5 12 C 21.777344 12 22 11.777344 22 11.5 C 22 11.222656 21.777344 11 21.5 11 Z M 23.5 11 C 23.222656 11 23 11.222656 23 11.5 C 23 11.777344 23.222656 12 23.5 12 C 23.777344 12 24 11.777344 24 11.5 C 24 11.222656 23.777344 11 23.5 11 Z M 25.5 11 C 25.222656 11 25 11.222656 25 11.5 C 25 11.777344 25.222656 12 25.5 12 C 25.777344 12 26 11.777344 26 11.5 C 26 11.222656 25.777344 11 25.5 11 Z M 27.5 11 C 27.222656 11 27 11.222656 27 11.5 C 27 11.777344 27.222656 12 27.5 12 C 27.777344 12 28 11.777344 28 11.5 C 28 11.222656 27.777344 11 27.5 11 Z M 29.5 11 C 29.222656 11 29 11.222656 29 11.5 C 29 11.777344 29.222656 12 29.5 12 C 29.777344 12 30 11.777344 30 11.5 C 30 11.222656 29.777344 11 29.5 11 Z M 31.5 11 C 31.222656 11 31 11.222656 31 11.5 C 31 11.777344 31.222656 12 31.5 12 C 31.777344 12 32 11.777344 32 11.5 C 32 11.222656 31.777344 11 31.5 11 Z M 33.5 11 C 33.222656 11 33 11.222656 33 11.5 C 33 11.777344 33.222656 12 33.5 12 C 33.777344 12 34 11.777344 34 11.5 C 34 11.222656 33.777344 11 33.5 11 Z M 35.5 11 C 35.222656 11 35 11.222656 35 11.5 C 35 11.777344 35.222656 12 35.5 12 C 35.777344 12 36 11.777344 36 11.5 C 36 11.222656 35.777344 11 35.5 11 Z M 7.5 13 C 7.222656 13 7 13.222656 7 13.5 C 7 13.777344 7.222656 14 7.5 14 C 7.777344 14 8 13.777344 8 13.5 C 8 13.222656 7.777344 13 7.5 13 Z M 11.5 13 C 11.222656 13 11 13.222656 11 13.5 C 11 13.777344 11.222656 14 11.5 14 C 11.777344 14 12 13.777344 12 13.5 C 12 13.222656 11.777344 13 11.5 13 Z M 15.5 13 C 15.222656 13 15 13.222656 15 13.5 C 15 13.777344 15.222656 14 15.5 14 C 15.777344 14 16 13.777344 16 13.5 C 16 13.222656 15.777344 13 15.5 13 Z M 19.5 13 C 19.222656 13 19 13.222656 19 13.5 C 19 13.777344 19.222656 14 19.5 14 C 19.777344 14 20 13.777344 20 13.5 C 20 13.222656 19.777344 13 19.5 13 Z M 23.5 13 C 23.222656 13 23 13.222656 23 13.5 C 23 13.777344 23.222656 14 23.5 14 C 23.777344 14 24 13.777344 24 13.5 C 24 13.222656 23.777344 13 23.5 13 Z M 27.5 13 C 27.222656 13 27 13.222656 27 13.5 C 27 13.777344 27.222656 14 27.5 14 C 27.777344 14 28 13.777344 28 13.5 C 28 13.222656 27.777344 13 27.5 13 Z M 31.5 13 C 31.222656 13 31 13.222656 31 13.5 C 31 13.777344 31.222656 14 31.5 14 C 31.777344 14 32 13.777344 32 13.5 C 32 13.222656 31.777344 13 31.5 13 Z M 35.5 13 C 35.222656 13 35 13.222656 35 13.5 C 35 13.777344 35.222656 14 35.5 14 C 35.777344 14 36 13.777344 36 13.5 C 36 13.222656 35.777344 13 35.5 13 Z M 5.5 15 C 5.222656 15 5 15.222656 5 15.5 C 5 15.777344 5.222656 16 5.5 16 C 5.777344 16 6 15.777344 6 15.5 C 6 15.222656 5.777344 15 5.5 15 Z M 7.5 15 C 7.222656 15 7 15.222656 7 15.5 C 7 15.777344 7.222656 16 7.5 16 C 7.777344 16 8 15.777344 8 15.5 C 8 15.222656 7.777344 15 7.5 15 Z M 9.5 15 C 9.222656 15 9 15.222656 9 15.5 C 9 15.777344 9.222656 16 9.5 16 C 9.777344 16 10 15.777344 10 15.5 C 10 15.222656 9.777344 15 9.5 15 Z M 11.5 15 C 11.222656 15 11 15.222656 11 15.5 C 11 15.777344 11.222656 16 11.5 16 C 11.777344 16 12 15.777344 12 15.5 C 12 15.222656 11.777344 15 11.5 15 Z M 13.5 15 C 13.222656 15 13 15.222656 13 15.5 C 13 15.777344 13.222656 16 13.5 16 C 13.777344 16 14 15.777344 14 15.5 C 14 15.222656 13.777344 15 13.5 15 Z M 15.5 15 C 15.222656 15 15 15.222656 15 15.5 C 15 15.777344 15.222656 16 15.5 16 C 15.777344 16 16 15.777344 16 15.5 C 16 15.222656 15.777344 15 15.5 15 Z M 17.5 15 C 17.222656 15 17 15.222656 17 15.5 C 17 15.777344 17.222656 16 17.5 16 C 17.777344 16 18 15.777344 18 15.5 C 18 15.222656 17.777344 15 17.5 15 Z M 19.5 15 C 19.222656 15 19 15.222656 19 15.5 C 19 15.777344 19.222656 16 19.5 16 C 19.777344 16 20 15.777344 20 15.5 C 20 15.222656 19.777344 15 19.5 15 Z M 21.5 15 C 21.222656 15 21 15.222656 21 15.5 C 21 15.777344 21.222656 16 21.5 16 C 21.777344 16 22 15.777344 22 15.5 C 22 15.222656 21.777344 15 21.5 15 Z M 23.5 15 C 23.222656 15 23 15.222656 23 15.5 C 23 15.777344 23.222656 16 23.5 16 C 23.777344 16 24 15.777344 24 15.5 C 24 15.222656 23.777344 15 23.5 15 Z M 25.5 15 C 25.222656 15 25 15.222656 25 15.5 C 25 15.777344 25.222656 16 25.5 16 C 25.777344 16 26 15.777344 26 15.5 C 26 15.222656 25.777344 15 25.5 15 Z M 27.5 15 C 27.222656 15 27 15.222656 27 15.5 C 27 15.777344 27.222656 16 27.5 16 C 27.777344 16 28 15.777344 28 15.5 C 28 15.222656 27.777344 15 27.5 15 Z M 29.5 15 C 29.222656 15 29 15.222656 29 15.5 C 29 15.777344 29.222656 16 29.5 16 C 29.777344 16 30 15.777344 30 15.5 C 30 15.222656 29.777344 15 29.5 15 Z M 31.5 15 C 31.222656 15 31 15.222656 31 15.5 C 31 15.777344 31.222656 16 31.5 16 C 31.777344 16 32 15.777344 32 15.5 C 32 15.222656 31.777344 15 31.5 15 Z M 33.5 15 C 33.222656 15 33 15.222656 33 15.5 C 33 15.777344 33.222656 16 33.5 16 C 33.777344 16 34 15.777344 34 15.5 C 34 15.222656 33.777344 15 33.5 15 Z M 35.5 15 C 35.222656 15 35 15.222656 35 15.5 C 35 15.777344 35.222656 16 35.5 16 C 35.777344 16 36 15.777344 36 15.5 C 36 15.222656 35.777344 15 35.5 15 Z M 7.5 17 C 7.222656 17 7 17.222656 7 17.5 C 7 17.777344 7.222656 18 7.5 18 C 7.777344 18 8 17.777344 8 17.5 C 8 17.222656 7.777344 17 7.5 17 Z M 11.5 17 C 11.222656 17 11 17.222656 11 17.5 C 11 17.777344 11.222656 18 11.5 18 C 11.777344 18 12 17.777344 12 17.5 C 12 17.222656 11.777344 17 11.5 17 Z M 15.5 17 C 15.222656 17 15 17.222656 15 17.5 C 15 17.777344 15.222656 18 15.5 18 C 15.777344 18 16 17.777344 16 17.5 C 16 17.222656 15.777344 17 15.5 17 Z M 19.5 17 C 19.222656 17 19 17.222656 19 17.5 C 19 17.777344 19.222656 18 19.5 18 C 19.777344 18 20 17.777344 20 17.5 C 20 17.222656 19.777344 17 19.5 17 Z M 23.5 17 C 23.222656 17 23 17.222656 23 17.5 C 23 17.777344 23.222656 18 23.5 18 C 23.777344 18 24 17.777344 24 17.5 C 24 17.222656 23.777344 17 23.5 17 Z M 27.5 17 C 27.222656 17 27 17.222656 27 17.5 C 27 17.777344 27.222656 18 27.5 18 C 27.777344 18 28 17.777344 28 17.5 C 28 17.222656 27.777344 17 27.5 17 Z M 31.5 17 C 31.222656 17 31 17.222656 31 17.5 C 31 17.777344 31.222656 18 31.5 18 C 31.777344 18 32 17.777344 32 17.5 C 32 17.222656 31.777344 17 31.5 17 Z M 35.5 17 C 35.222656 17 35 17.222656 35 17.5 C 35 17.777344 35.222656 18 35.5 18 C 35.777344 18 36 17.777344 36 17.5 C 36 17.222656 35.777344 17 35.5 17 Z M 40.75 18.125 L 45.4375 22.78125 L 37.4375 30.78125 C 37.324219 30.863281 37.226563 30.972656 37.15625 31.09375 L 25.0625 43.15625 C 24.917969 43.25 24.800781 43.378906 24.71875 43.53125 L 22.8125 45.4375 L 18.125 40.75 L 19.71875 39.15625 L 20.65625 40.09375 C 21.054688 40.492188 21.695313 40.492188 22.09375 40.09375 C 22.492188 39.695313 22.492188 39.054688 22.09375 38.65625 L 21.15625 37.71875 L 22.71875 36.15625 L 24.4375 37.84375 C 24.679688 38.140625 25.066406 38.277344 25.441406 38.191406 C 25.8125 38.105469 26.105469 37.8125 26.191406 37.441406 C 26.277344 37.066406 26.140625 36.679688 25.84375 36.4375 L 24.15625 34.71875 L 25.71875 33.15625 L 26.65625 34.09375 C 27.054688 34.492188 27.695313 34.492188 28.09375 34.09375 C 28.492188 33.695313 28.492188 33.054688 28.09375 32.65625 L 27.15625 31.71875 L 28.71875 30.15625 L 30.4375 31.84375 C 30.679688 32.140625 31.066406 32.277344 31.441406 32.191406 C 31.8125 32.105469 32.105469 31.8125 32.191406 31.441406 C 32.277344 31.066406 32.140625 30.679688 31.84375 30.4375 L 30.15625 28.71875 L 31.71875 27.15625 L 32.65625 28.09375 C 33.054688 28.492188 33.695313 28.492188 34.09375 28.09375 C 34.492188 27.695313 34.492188 27.054688 34.09375 26.65625 L 33.15625 25.71875 L 34.71875 24.15625 L 36.4375 25.84375 C 36.679688 26.140625 37.066406 26.277344 37.441406 26.191406 C 37.8125 26.105469 38.105469 25.8125 38.191406 25.441406 C 38.277344 25.066406 38.140625 24.679688 37.84375 24.4375 L 36.15625 22.71875 L 37.71875 21.15625 L 38.65625 22.09375 C 39.054688 22.492188 39.695313 22.492188 40.09375 22.09375 C 40.492188 21.695313 40.492188 21.054688 40.09375 20.65625 L 39.15625 19.71875 Z M 5.5 19 C 5.222656 19 5 19.222656 5 19.5 C 5 19.777344 5.222656 20 5.5 20 C 5.777344 20 6 19.777344 6 19.5 C 6 19.222656 5.777344 19 5.5 19 Z M 7.5 19 C 7.222656 19 7 19.222656 7 19.5 C 7 19.777344 7.222656 20 7.5 20 C 7.777344 20 8 19.777344 8 19.5 C 8 19.222656 7.777344 19 7.5 19 Z M 9.5 19 C 9.222656 19 9 19.222656 9 19.5 C 9 19.777344 9.222656 20 9.5 20 C 9.777344 20 10 19.777344 10 19.5 C 10 19.222656 9.777344 19 9.5 19 Z M 11.5 19 C 11.222656 19 11 19.222656 11 19.5 C 11 19.777344 11.222656 20 11.5 20 C 11.777344 20 12 19.777344 12 19.5 C 12 19.222656 11.777344 19 11.5 19 Z M 13.5 19 C 13.222656 19 13 19.222656 13 19.5 C 13 19.777344 13.222656 20 13.5 20 C 13.777344 20 14 19.777344 14 19.5 C 14 19.222656 13.777344 19 13.5 19 Z M 15.5 19 C 15.222656 19 15 19.222656 15 19.5 C 15 19.777344 15.222656 20 15.5 20 C 15.777344 20 16 19.777344 16 19.5 C 16 19.222656 15.777344 19 15.5 19 Z M 17.5 19 C 17.222656 19 17 19.222656 17 19.5 C 17 19.777344 17.222656 20 17.5 20 C 17.777344 20 18 19.777344 18 19.5 C 18 19.222656 17.777344 19 17.5 19 Z M 19.5 19 C 19.222656 19 19 19.222656 19 19.5 C 19 19.777344 19.222656 20 19.5 20 C 19.777344 20 20 19.777344 20 19.5 C 20 19.222656 19.777344 19 19.5 19 Z M 21.5 19 C 21.222656 19 21 19.222656 21 19.5 C 21 19.777344 21.222656 20 21.5 20 C 21.777344 20 22 19.777344 22 19.5 C 22 19.222656 21.777344 19 21.5 19 Z M 23.5 19 C 23.222656 19 23 19.222656 23 19.5 C 23 19.777344 23.222656 20 23.5 20 C 23.777344 20 24 19.777344 24 19.5 C 24 19.222656 23.777344 19 23.5 19 Z M 25.5 19 C 25.222656 19 25 19.222656 25 19.5 C 25 19.777344 25.222656 20 25.5 20 C 25.777344 20 26 19.777344 26 19.5 C 26 19.222656 25.777344 19 25.5 19 Z M 27.5 19 C 27.222656 19 27 19.222656 27 19.5 C 27 19.777344 27.222656 20 27.5 20 C 27.777344 20 28 19.777344 28 19.5 C 28 19.222656 27.777344 19 27.5 19 Z M 29.5 19 C 29.222656 19 29 19.222656 29 19.5 C 29 19.777344 29.222656 20 29.5 20 C 29.777344 20 30 19.777344 30 19.5 C 30 19.222656 29.777344 19 29.5 19 Z M 31.5 19 C 31.222656 19 31 19.222656 31 19.5 C 31 19.777344 31.222656 20 31.5 20 C 31.777344 20 32 19.777344 32 19.5 C 32 19.222656 31.777344 19 31.5 19 Z M 33.5 19 C 33.222656 19 33 19.222656 33 19.5 C 33 19.777344 33.222656 20 33.5 20 C 33.777344 20 34 19.777344 34 19.5 C 34 19.222656 33.777344 19 33.5 19 Z M 35.5 19 C 35.222656 19 35 19.222656 35 19.5 C 35 19.777344 35.222656 20 35.5 20 C 35.777344 20 36 19.777344 36 19.5 C 36 19.222656 35.777344 19 35.5 19 Z M 7.5 21 C 7.222656 21 7 21.222656 7 21.5 C 7 21.777344 7.222656 22 7.5 22 C 7.777344 22 8 21.777344 8 21.5 C 8 21.222656 7.777344 21 7.5 21 Z M 11.5 21 C 11.222656 21 11 21.222656 11 21.5 C 11 21.777344 11.222656 22 11.5 22 C 11.777344 22 12 21.777344 12 21.5 C 12 21.222656 11.777344 21 11.5 21 Z M 15.5 21 C 15.222656 21 15 21.222656 15 21.5 C 15 21.777344 15.222656 22 15.5 22 C 15.777344 22 16 21.777344 16 21.5 C 16 21.222656 15.777344 21 15.5 21 Z M 19.5 21 C 19.222656 21 19 21.222656 19 21.5 C 19 21.777344 19.222656 22 19.5 22 C 19.777344 22 20 21.777344 20 21.5 C 20 21.222656 19.777344 21 19.5 21 Z M 23.5 21 C 23.222656 21 23 21.222656 23 21.5 C 23 21.777344 23.222656 22 23.5 22 C 23.777344 22 24 21.777344 24 21.5 C 24 21.222656 23.777344 21 23.5 21 Z M 27.5 21 C 27.222656 21 27 21.222656 27 21.5 C 27 21.777344 27.222656 22 27.5 22 C 27.777344 22 28 21.777344 28 21.5 C 28 21.222656 27.777344 21 27.5 21 Z M 31.5 21 C 31.222656 21 31 21.222656 31 21.5 C 31 21.777344 31.222656 22 31.5 22 C 31.777344 22 32 21.777344 32 21.5 C 32 21.222656 31.777344 21 31.5 21 Z M 5.5 23 C 5.222656 23 5 23.222656 5 23.5 C 5 23.777344 5.222656 24 5.5 24 C 5.777344 24 6 23.777344 6 23.5 C 6 23.222656 5.777344 23 5.5 23 Z M 7.5 23 C 7.222656 23 7 23.222656 7 23.5 C 7 23.777344 7.222656 24 7.5 24 C 7.777344 24 8 23.777344 8 23.5 C 8 23.222656 7.777344 23 7.5 23 Z M 9.5 23 C 9.222656 23 9 23.222656 9 23.5 C 9 23.777344 9.222656 24 9.5 24 C 9.777344 24 10 23.777344 10 23.5 C 10 23.222656 9.777344 23 9.5 23 Z M 11.5 23 C 11.222656 23 11 23.222656 11 23.5 C 11 23.777344 11.222656 24 11.5 24 C 11.777344 24 12 23.777344 12 23.5 C 12 23.222656 11.777344 23 11.5 23 Z M 13.5 23 C 13.222656 23 13 23.222656 13 23.5 C 13 23.777344 13.222656 24 13.5 24 C 13.777344 24 14 23.777344 14 23.5 C 14 23.222656 13.777344 23 13.5 23 Z M 15.5 23 C 15.222656 23 15 23.222656 15 23.5 C 15 23.777344 15.222656 24 15.5 24 C 15.777344 24 16 23.777344 16 23.5 C 16 23.222656 15.777344 23 15.5 23 Z M 17.5 23 C 17.222656 23 17 23.222656 17 23.5 C 17 23.777344 17.222656 24 17.5 24 C 17.777344 24 18 23.777344 18 23.5 C 18 23.222656 17.777344 23 17.5 23 Z M 19.5 23 C 19.222656 23 19 23.222656 19 23.5 C 19 23.777344 19.222656 24 19.5 24 C 19.777344 24 20 23.777344 20 23.5 C 20 23.222656 19.777344 23 19.5 23 Z M 21.5 23 C 21.222656 23 21 23.222656 21 23.5 C 21 23.777344 21.222656 24 21.5 24 C 21.777344 24 22 23.777344 22 23.5 C 22 23.222656 21.777344 23 21.5 23 Z M 23.5 23 C 23.222656 23 23 23.222656 23 23.5 C 23 23.777344 23.222656 24 23.5 24 C 23.777344 24 24 23.777344 24 23.5 C 24 23.222656 23.777344 23 23.5 23 Z M 25.5 23 C 25.222656 23 25 23.222656 25 23.5 C 25 23.777344 25.222656 24 25.5 24 C 25.777344 24 26 23.777344 26 23.5 C 26 23.222656 25.777344 23 25.5 23 Z M 27.5 23 C 27.222656 23 27 23.222656 27 23.5 C 27 23.777344 27.222656 24 27.5 24 C 27.777344 24 28 23.777344 28 23.5 C 28 23.222656 27.777344 23 27.5 23 Z M 29.5 23 C 29.222656 23 29 23.222656 29 23.5 C 29 23.777344 29.222656 24 29.5 24 C 29.777344 24 30 23.777344 30 23.5 C 30 23.222656 29.777344 23 29.5 23 Z M 31.5 23 C 31.222656 23 31 23.222656 31 23.5 C 31 23.777344 31.222656 24 31.5 24 C 31.777344 24 32 23.777344 32 23.5 C 32 23.222656 31.777344 23 31.5 23 Z M 7.5 25 C 7.222656 25 7 25.222656 7 25.5 C 7 25.777344 7.222656 26 7.5 26 C 7.777344 26 8 25.777344 8 25.5 C 8 25.222656 7.777344 25 7.5 25 Z M 11.5 25 C 11.222656 25 11 25.222656 11 25.5 C 11 25.777344 11.222656 26 11.5 26 C 11.777344 26 12 25.777344 12 25.5 C 12 25.222656 11.777344 25 11.5 25 Z M 15.5 25 C 15.222656 25 15 25.222656 15 25.5 C 15 25.777344 15.222656 26 15.5 26 C 15.777344 26 16 25.777344 16 25.5 C 16 25.222656 15.777344 25 15.5 25 Z M 19.5 25 C 19.222656 25 19 25.222656 19 25.5 C 19 25.777344 19.222656 26 19.5 26 C 19.777344 26 20 25.777344 20 25.5 C 20 25.222656 19.777344 25 19.5 25 Z M 23.5 25 C 23.222656 25 23 25.222656 23 25.5 C 23 25.777344 23.222656 26 23.5 26 C 23.777344 26 24 25.777344 24 25.5 C 24 25.222656 23.777344 25 23.5 25 Z M 27.5 25 C 27.222656 25 27 25.222656 27 25.5 C 27 25.777344 27.222656 26 27.5 26 C 27.777344 26 28 25.777344 28 25.5 C 28 25.222656 27.777344 25 27.5 25 Z M 5.5 27 C 5.222656 27 5 27.222656 5 27.5 C 5 27.777344 5.222656 28 5.5 28 C 5.777344 28 6 27.777344 6 27.5 C 6 27.222656 5.777344 27 5.5 27 Z M 7.5 27 C 7.222656 27 7 27.222656 7 27.5 C 7 27.777344 7.222656 28 7.5 28 C 7.777344 28 8 27.777344 8 27.5 C 8 27.222656 7.777344 27 7.5 27 Z M 9.5 27 C 9.222656 27 9 27.222656 9 27.5 C 9 27.777344 9.222656 28 9.5 28 C 9.777344 28 10 27.777344 10 27.5 C 10 27.222656 9.777344 27 9.5 27 Z M 11.5 27 C 11.222656 27 11 27.222656 11 27.5 C 11 27.777344 11.222656 28 11.5 28 C 11.777344 28 12 27.777344 12 27.5 C 12 27.222656 11.777344 27 11.5 27 Z M 13.5 27 C 13.222656 27 13 27.222656 13 27.5 C 13 27.777344 13.222656 28 13.5 28 C 13.777344 28 14 27.777344 14 27.5 C 14 27.222656 13.777344 27 13.5 27 Z M 15.5 27 C 15.222656 27 15 27.222656 15 27.5 C 15 27.777344 15.222656 28 15.5 28 C 15.777344 28 16 27.777344 16 27.5 C 16 27.222656 15.777344 27 15.5 27 Z M 17.5 27 C 17.222656 27 17 27.222656 17 27.5 C 17 27.777344 17.222656 28 17.5 28 C 17.777344 28 18 27.777344 18 27.5 C 18 27.222656 17.777344 27 17.5 27 Z M 19.5 27 C 19.222656 27 19 27.222656 19 27.5 C 19 27.777344 19.222656 28 19.5 28 C 19.777344 28 20 27.777344 20 27.5 C 20 27.222656 19.777344 27 19.5 27 Z M 21.5 27 C 21.222656 27 21 27.222656 21 27.5 C 21 27.777344 21.222656 28 21.5 28 C 21.777344 28 22 27.777344 22 27.5 C 22 27.222656 21.777344 27 21.5 27 Z M 23.5 27 C 23.222656 27 23 27.222656 23 27.5 C 23 27.777344 23.222656 28 23.5 28 C 23.777344 28 24 27.777344 24 27.5 C 24 27.222656 23.777344 27 23.5 27 Z M 25.5 27 C 25.222656 27 25 27.222656 25 27.5 C 25 27.777344 25.222656 28 25.5 28 C 25.777344 28 26 27.777344 26 27.5 C 26 27.222656 25.777344 27 25.5 27 Z M 27.5 27 C 27.222656 27 27 27.222656 27 27.5 C 27 27.777344 27.222656 28 27.5 28 C 27.777344 28 28 27.777344 28 27.5 C 28 27.222656 27.777344 27 27.5 27 Z M 7.5 29 C 7.222656 29 7 29.222656 7 29.5 C 7 29.777344 7.222656 30 7.5 30 C 7.777344 30 8 29.777344 8 29.5 C 8 29.222656 7.777344 29 7.5 29 Z M 11.5 29 C 11.222656 29 11 29.222656 11 29.5 C 11 29.777344 11.222656 30 11.5 30 C 11.777344 30 12 29.777344 12 29.5 C 12 29.222656 11.777344 29 11.5 29 Z M 15.5 29 C 15.222656 29 15 29.222656 15 29.5 C 15 29.777344 15.222656 30 15.5 30 C 15.777344 30 16 29.777344 16 29.5 C 16 29.222656 15.777344 29 15.5 29 Z M 19.5 29 C 19.222656 29 19 29.222656 19 29.5 C 19 29.777344 19.222656 30 19.5 30 C 19.777344 30 20 29.777344 20 29.5 C 20 29.222656 19.777344 29 19.5 29 Z M 23.5 29 C 23.222656 29 23 29.222656 23 29.5 C 23 29.777344 23.222656 30 23.5 30 C 23.777344 30 24 29.777344 24 29.5 C 24 29.222656 23.777344 29 23.5 29 Z M 5.5 31 C 5.222656 31 5 31.222656 5 31.5 C 5 31.777344 5.222656 32 5.5 32 C 5.777344 32 6 31.777344 6 31.5 C 6 31.222656 5.777344 31 5.5 31 Z M 7.5 31 C 7.222656 31 7 31.222656 7 31.5 C 7 31.777344 7.222656 32 7.5 32 C 7.777344 32 8 31.777344 8 31.5 C 8 31.222656 7.777344 31 7.5 31 Z M 9.5 31 C 9.222656 31 9 31.222656 9 31.5 C 9 31.777344 9.222656 32 9.5 32 C 9.777344 32 10 31.777344 10 31.5 C 10 31.222656 9.777344 31 9.5 31 Z M 11.5 31 C 11.222656 31 11 31.222656 11 31.5 C 11 31.777344 11.222656 32 11.5 32 C 11.777344 32 12 31.777344 12 31.5 C 12 31.222656 11.777344 31 11.5 31 Z M 13.5 31 C 13.222656 31 13 31.222656 13 31.5 C 13 31.777344 13.222656 32 13.5 32 C 13.777344 32 14 31.777344 14 31.5 C 14 31.222656 13.777344 31 13.5 31 Z M 15.5 31 C 15.222656 31 15 31.222656 15 31.5 C 15 31.777344 15.222656 32 15.5 32 C 15.777344 32 16 31.777344 16 31.5 C 16 31.222656 15.777344 31 15.5 31 Z M 17.5 31 C 17.222656 31 17 31.222656 17 31.5 C 17 31.777344 17.222656 32 17.5 32 C 17.777344 32 18 31.777344 18 31.5 C 18 31.222656 17.777344 31 17.5 31 Z M 19.5 31 C 19.222656 31 19 31.222656 19 31.5 C 19 31.777344 19.222656 32 19.5 32 C 19.777344 32 20 31.777344 20 31.5 C 20 31.222656 19.777344 31 19.5 31 Z M 21.5 31 C 21.222656 31 21 31.222656 21 31.5 C 21 31.777344 21.222656 32 21.5 32 C 21.777344 32 22 31.777344 22 31.5 C 22 31.222656 21.777344 31 21.5 31 Z M 23.5 31 C 23.222656 31 23 31.222656 23 31.5 C 23 31.777344 23.222656 32 23.5 32 C 23.777344 32 24 31.777344 24 31.5 C 24 31.222656 23.777344 31 23.5 31 Z M 7.5 33 C 7.222656 33 7 33.222656 7 33.5 C 7 33.777344 7.222656 34 7.5 34 C 7.777344 34 8 33.777344 8 33.5 C 8 33.222656 7.777344 33 7.5 33 Z M 11.5 33 C 11.222656 33 11 33.222656 11 33.5 C 11 33.777344 11.222656 34 11.5 34 C 11.777344 34 12 33.777344 12 33.5 C 12 33.222656 11.777344 33 11.5 33 Z M 15.5 33 C 15.222656 33 15 33.222656 15 33.5 C 15 33.777344 15.222656 34 15.5 34 C 15.777344 34 16 33.777344 16 33.5 C 16 33.222656 15.777344 33 15.5 33 Z M 19.5 33 C 19.222656 33 19 33.222656 19 33.5 C 19 33.777344 19.222656 34 19.5 34 C 19.777344 34 20 33.777344 20 33.5 C 20 33.222656 19.777344 33 19.5 33 Z M 37 34.0625 L 37 43 L 28.03125 43 L 31.1875 39.875 C 31.273438 39.949219 31.378906 40 31.5 40 C 31.777344 40 32 39.777344 32 39.5 C 32 39.378906 31.949219 39.273438 31.875 39.1875 L 35.1875 35.875 C 35.273438 35.949219 35.378906 36 35.5 36 C 35.777344 36 36 35.777344 36 35.5 C 36 35.378906 35.949219 35.273438 35.875 35.1875 Z M 5.5 35 C 5.222656 35 5 35.222656 5 35.5 C 5 35.777344 5.222656 36 5.5 36 C 5.777344 36 6 35.777344 6 35.5 C 6 35.222656 5.777344 35 5.5 35 Z M 7.5 35 C 7.222656 35 7 35.222656 7 35.5 C 7 35.777344 7.222656 36 7.5 36 C 7.777344 36 8 35.777344 8 35.5 C 8 35.222656 7.777344 35 7.5 35 Z M 9.5 35 C 9.222656 35 9 35.222656 9 35.5 C 9 35.777344 9.222656 36 9.5 36 C 9.777344 36 10 35.777344 10 35.5 C 10 35.222656 9.777344 35 9.5 35 Z M 11.5 35 C 11.222656 35 11 35.222656 11 35.5 C 11 35.777344 11.222656 36 11.5 36 C 11.777344 36 12 35.777344 12 35.5 C 12 35.222656 11.777344 35 11.5 35 Z M 13.5 35 C 13.222656 35 13 35.222656 13 35.5 C 13 35.777344 13.222656 36 13.5 36 C 13.777344 36 14 35.777344 14 35.5 C 14 35.222656 13.777344 35 13.5 35 Z M 15.5 35 C 15.222656 35 15 35.222656 15 35.5 C 15 35.777344 15.222656 36 15.5 36 C 15.777344 36 16 35.777344 16 35.5 C 16 35.222656 15.777344 35 15.5 35 Z M 17.5 35 C 17.222656 35 17 35.222656 17 35.5 C 17 35.777344 17.222656 36 17.5 36 C 17.777344 36 18 35.777344 18 35.5 C 18 35.222656 17.777344 35 17.5 35 Z M 19.5 35 C 19.222656 35 19 35.222656 19 35.5 C 19 35.777344 19.222656 36 19.5 36 C 19.777344 36 20 35.777344 20 35.5 C 20 35.222656 19.777344 35 19.5 35 Z M 7.5 37 C 7.222656 37 7 37.222656 7 37.5 C 7 37.777344 7.222656 38 7.5 38 C 7.777344 38 8 37.777344 8 37.5 C 8 37.222656 7.777344 37 7.5 37 Z M 11.5 37 C 11.222656 37 11 37.222656 11 37.5 C 11 37.777344 11.222656 38 11.5 38 C 11.777344 38 12 37.777344 12 37.5 C 12 37.222656 11.777344 37 11.5 37 Z M 15.5 37 C 15.222656 37 15 37.222656 15 37.5 C 15 37.777344 15.222656 38 15.5 38 C 15.777344 38 16 37.777344 16 37.5 C 16 37.222656 15.777344 37 15.5 37 Z M 35.5 37 C 35.222656 37 35 37.222656 35 37.5 C 35 37.777344 35.222656 38 35.5 38 C 35.777344 38 36 37.777344 36 37.5 C 36 37.222656 35.777344 37 35.5 37 Z M 5.5 39 C 5.222656 39 5 39.222656 5 39.5 C 5 39.777344 5.222656 40 5.5 40 C 5.777344 40 6 39.777344 6 39.5 C 6 39.222656 5.777344 39 5.5 39 Z M 7.5 39 C 7.222656 39 7 39.222656 7 39.5 C 7 39.777344 7.222656 40 7.5 40 C 7.777344 40 8 39.777344 8 39.5 C 8 39.222656 7.777344 39 7.5 39 Z M 9.5 39 C 9.222656 39 9 39.222656 9 39.5 C 9 39.777344 9.222656 40 9.5 40 C 9.777344 40 10 39.777344 10 39.5 C 10 39.222656 9.777344 39 9.5 39 Z M 11.5 39 C 11.222656 39 11 39.222656 11 39.5 C 11 39.777344 11.222656 40 11.5 40 C 11.777344 40 12 39.777344 12 39.5 C 12 39.222656 11.777344 39 11.5 39 Z M 13.5 39 C 13.222656 39 13 39.222656 13 39.5 C 13 39.777344 13.222656 40 13.5 40 C 13.777344 40 14 39.777344 14 39.5 C 14 39.222656 13.777344 39 13.5 39 Z M 15.5 39 C 15.222656 39 15 39.222656 15 39.5 C 15 39.777344 15.222656 40 15.5 40 C 15.777344 40 16 39.777344 16 39.5 C 16 39.222656 15.777344 39 15.5 39 Z M 33.5 39 C 33.222656 39 33 39.222656 33 39.5 C 33 39.777344 33.222656 40 33.5 40 C 33.777344 40 34 39.777344 34 39.5 C 34 39.222656 33.777344 39 33.5 39 Z M 35.5 39 C 35.222656 39 35 39.222656 35 39.5 C 35 39.777344 35.222656 40 35.5 40 C 35.777344 40 36 39.777344 36 39.5 C 36 39.222656 35.777344 39 35.5 39 Z M 7.5 41 C 7.222656 41 7 41.222656 7 41.5 C 7 41.777344 7.222656 42 7.5 42 C 7.777344 42 8 41.777344 8 41.5 C 8 41.222656 7.777344 41 7.5 41 Z M 11.5 41 C 11.222656 41 11 41.222656 11 41.5 C 11 41.777344 11.222656 42 11.5 42 C 11.777344 42 12 41.777344 12 41.5 C 12 41.222656 11.777344 41 11.5 41 Z M 31.5 41 C 31.222656 41 31 41.222656 31 41.5 C 31 41.777344 31.222656 42 31.5 42 C 31.777344 42 32 41.777344 32 41.5 C 32 41.222656 31.777344 41 31.5 41 Z M 35.5 41 C 35.222656 41 35 41.222656 35 41.5 C 35 41.777344 35.222656 42 35.5 42 C 35.777344 42 36 41.777344 36 41.5 C 36 41.222656 35.777344 41 35.5 41 Z"/></svg>