<svg xmlns="http://www.w3.org/2000/svg"  viewBox="0 0 50 50" width="50px" height="50px"><path d="M 25 5 C 13.966513 5 5 13.966513 5 25 A 1.0001 1.0001 0 1 0 7 25 C 7 15.047487 15.047487 7 25 7 C 31.245219 7 36.728098 10.179957 39.957031 15 L 35 15 A 1.0001 1.0001 0 1 0 35 17 L 44 17 L 44 8 A 1.0001 1.0001 0 0 0 42.984375 6.9863281 A 1.0001 1.0001 0 0 0 42 8 L 42 14.464844 C 38.470273 8.7832996 32.171298 5 25 5 z M 29.951172 15.988281 A 1.0001 1.0001 0 0 0 29.152344 16.470703 L 19.152344 32.470703 A 1.0001 1.0001 0 1 0 20.847656 33.529297 L 30.847656 17.529297 A 1.0001 1.0001 0 0 0 30.050781 15.988281 A 1.0001 1.0001 0 0 0 29.951172 15.988281 z M 20 16 C 18.35503 16 17 17.35503 17 19 L 17 21 L 17 22 L 17.416016 22 C 17.85942 23.106694 18.743378 24 20 24 C 21.64497 24 23 22.64497 23 21 L 23 19 C 23 17.35503 21.64497 16 20 16 z M 20 18 C 20.56503 18 21 18.43497 21 19 L 21 21 C 21 21.56503 20.56503 22 20 22 C 19.43497 22 19 21.56503 19 21 L 19 19 C 19 18.43497 19.43497 18 20 18 z M 43.984375 23.986328 A 1.0001 1.0001 0 0 0 43 25 C 43 34.952513 34.952513 43 25 43 C 18.754258 43 13.271088 39.819768 10.042969 35 L 15 35.001953 A 1.0001 1.0001 0 1 0 15 33.001953 L 8.4453125 33 A 1.0001 1.0001 0 0 0 8.0585938 33 L 8.0566406 33 L 6 33 L 6 42 A 1.0001 1.0001 0 1 0 8 42 L 8 35.53125 C 11.528231 41.214544 17.826599 45 25 45 C 36.033487 45 45 36.033487 45 25 A 1.0001 1.0001 0 0 0 43.984375 23.986328 z M 30 26 C 28.35503 26 27 27.35503 27 29 L 27 31 L 27 32 L 27.416016 32 C 27.85942 33.106694 28.743378 34 30 34 C 31.64497 34 33 32.64497 33 31 L 33 29 C 33 27.35503 31.64497 26 30 26 z M 30 28 C 30.56503 28 31 28.43497 31 29 L 31 31 C 31 31.56503 30.56503 32 30 32 C 29.43497 32 29 31.56503 29 31 L 29 29 C 29 28.43497 29.43497 28 30 28 z"/></svg>