<svg xmlns="http://www.w3.org/2000/svg"  viewBox="0 0 50 50" width="50px" height="50px"><path d="M 9 3 C 6.25 3 4 5.25 4 8 C 4 10.75 6.25 13 9 13 C 11.75 13 14 10.75 14 8 C 14 5.25 11.75 3 9 3 Z M 41 3 C 38.25 3 36 5.25 36 8 C 36 10.75 38.25 13 41 13 C 43.75 13 46 10.75 46 8 C 46 5.25 43.75 3 41 3 Z M 9 5 C 10.667969 5 12 6.332031 12 8 C 12 9.667969 10.667969 11 9 11 C 7.332031 11 6 9.667969 6 8 C 6 6.332031 7.332031 5 9 5 Z M 41 5 C 42.667969 5 44 6.332031 44 8 C 44 9.667969 42.667969 11 41 11 C 39.332031 11 38 9.667969 38 8 C 38 6.332031 39.332031 5 41 5 Z M 8.953125 14 C 6.519531 14 4.464844 14.992188 3.089844 16.582031 C 1.714844 18.171875 1 20.320313 1 22.636719 L 1 31.894531 L 3.546875 33.144531 L 4.570313 47 L 13.425781 47 L 14.453125 33.144531 L 17 31.894531 L 17 22.636719 C 17 20.316406 16.257813 18.164063 14.859375 16.578125 C 13.460938 14.988281 11.390625 14 8.953125 14 Z M 40.953125 14 C 38.519531 14 36.464844 14.992188 35.089844 16.582031 C 33.714844 18.171875 33 20.320313 33 22.636719 L 33 31.894531 L 35.546875 33.144531 L 36.574219 47 L 45.425781 47 L 46.453125 33.144531 L 49 31.894531 L 49 22.636719 C 49 20.316406 48.257813 18.164063 46.859375 16.578125 C 45.460938 14.988281 43.390625 14 40.953125 14 Z M 8.953125 16 C 10.867188 16 12.324219 16.722656 13.359375 17.898438 C 14.394531 19.074219 15 20.742188 15 22.636719 L 15 30.652344 L 12.546875 31.855469 L 11.574219 45 L 6.429688 45 L 5.453125 31.855469 L 3 30.648438 L 3 22.636719 C 3 20.734375 3.589844 19.0625 4.601563 17.890625 C 5.617188 16.71875 7.042969 16 8.953125 16 Z M 40.953125 16 C 42.867188 16 44.324219 16.722656 45.359375 17.898438 C 46.394531 19.074219 47 20.742188 47 22.636719 L 47 30.648438 L 44.546875 31.855469 L 43.574219 45 L 38.425781 45 L 37.453125 31.855469 L 35 30.648438 L 35 22.636719 C 35 20.734375 35.589844 19.0625 36.605469 17.890625 C 37.617188 16.71875 39.042969 16 40.953125 16 Z M 19 21 L 19 23 L 31 23 L 31 21 Z M 19 27 L 19 29 L 31 29 L 31 27 Z"/></svg>