<?xml version="1.0" encoding="iso-8859-1"?><!-- Generator: Adobe Illustrator 21.1.0, SVG Export Plug-In . SVG Version: 6.00 Build 0)  --><svg xmlns="http://www.w3.org/2000/svg" xmlns:xlink="http://www.w3.org/1999/xlink" viewBox="0 0 50 50" width="500px" height="500px"><g></g><polyline style="fill:none;stroke:#000000;stroke-width:2;stroke-miterlimit:10;" points="16.75,18.75 24.25,25.5 33.125,11.625 "/><polyline style="fill:none;stroke:#000000;stroke-width:2;stroke-linejoin:round;stroke-miterlimit:10;" points="16,30 10,43 17,43 21,48 27.562,33 "/><polyline style="fill:none;stroke:#000000;stroke-width:2;stroke-linejoin:round;stroke-miterlimit:10;" points="25.122,38.993 29.062,48 33.062,43 40.062,43 34.062,30 "/><path style="fill:none;stroke:#000000;stroke-width:2;stroke-linecap:round;stroke-miterlimit:10;" d="M40.367,19.502c-0.515-0.935-0.515-2.069,0-3.004l0.247-0.448c0.805-1.464,0.313-3.303-1.117-4.168l-0.438-0.265c-0.913-0.553-1.48-1.534-1.502-2.601l-0.011-0.512c-0.034-1.671-1.38-3.017-3.051-3.051l-0.512-0.011c-1.067-0.022-2.049-0.589-2.601-1.502l-0.265-0.438c-0.865-1.43-2.704-1.922-4.168-1.117l-0.448,0.247c-0.935,0.515-2.069,0.515-3.004,0L23.05,2.386c-1.464-0.805-3.303-0.313-4.168,1.117l-0.265,0.438c-0.553,0.913-1.534,1.48-2.601,1.502l-0.512,0.011c-1.671,0.034-3.017,1.38-3.051,3.051l-0.011,0.512c-0.022,1.067-0.589,2.049-1.502,2.601l-0.438,0.265c-1.429,0.865-1.922,2.704-1.117,4.168l0.247,0.448c0.515,0.935,0.515,2.069,0,3.004L9.386,19.95c-0.805,1.464-0.313,3.303,1.117,4.168l0.438,0.265c0.913,0.553,1.48,1.534,1.502,2.601l0.011,0.512c0.034,1.671,1.38,3.017,3.051,3.051l0.512,0.011c1.067,0.022,2.049,0.589,2.601,1.502l0.265,0.438c0.865,1.429,2.704,1.922,4.168,1.117l0.448-0.247c0.935-0.515,2.069-0.515,3.004,0l0.448,0.247c1.464,0.805,3.303,0.313,4.168-1.117l0.265-0.438c0.553-0.913,1.534-1.48,2.601-1.502l0.512-0.011c1.671-0.034,3.017-1.38,3.051-3.051l0.011-0.512c0.022-1.067,0.589-2.049,1.502-2.601l0.438-0.265c1.429-0.865,1.922-2.704,1.117-4.168L40.367,19.502z"/></svg>