<?xml version="1.0" encoding="UTF-8"?>
<svg id="Layer_1" xmlns="http://www.w3.org/2000/svg" version="1.1" viewBox="0 0 50 50">
  <!-- Generator: Adobe Illustrator 30.0.0, SVG Export Plug-In . SVG Version: 2.1.1 Build 123)  -->
  <path d="M24.4,13.2c-6.8,0-12.3,5.5-12.3,12.3s3,10.5,5.9,15c2.9,4.5,5.8,7.8,5.8,7.8.1.2.4.3.6.3s.4,0,.6-.3c0,0,2.9-3.3,5.8-7.8s5.9-10.1,5.9-15-5.5-12.3-12.3-12.3ZM24.4,14.7c5.9,0,10.7,4.8,10.7,10.7s-2.8,9.8-5.6,14.1c-2.4,3.7-4.4,6.1-5.1,6.9-.7-.8-2.7-3.3-5.1-6.9-2.8-4.4-5.6-9.9-5.6-14.1s4.8-10.7,10.7-10.7ZM24.4,20.8l-.4.2-5.8,3.5.8,1.3v5.9h10.7v-5.9l.8-1.3-5.8-3.5-.4-.2ZM24.4,22.5l3.8,2.3v5.3h-2.3v-3.8h-3.1v3.8h-2.3v-5.3l3.8-2.3Z"/>
  <path d="M42.7,13.9c-.1-.2-.3-.4-.6-.4-.2,0-.5,0-.7.2l-2,2.1-3.6-5.5c-.1-.3-.4-.4-.6-.4-.3,0-.5.1-.7.4l-1.7,2.7L24.8,1.9c-.2-.3-.4-.4-.7-.4-.3,0-.5.2-.7.4l-4.9,7-1.4-1.8c-.2-.2-.4-.4-.7-.4h0c-.3,0-.5.2-.7.4l-5.5,8.2-.9-1.7c-.2-.3-.4-.5-.7-.5-.3,0-.5.2-.7.4L1.4,23.1h1.7l5.5-8,.9,1.7c.2.3.4.4.7.5.3,0,.5-.2.7-.4l5.5-8.2,1.4,1.8c.2.3.4.4.7.4.3,0,.5-.2.7-.4l4.9-7,8,11.2c.1.2.4.4.6.4.3,0,.5-.1.7-.4l1.7-2.7,3.5,5.4c.1.2.3.4.6.4.2,0,.5,0,.7-.2l2-2.1,5,7.8h1.6l-5.8-9.1Z"/>
</svg>