<svg xmlns="http://www.w3.org/2000/svg"  viewBox="0 0 50 50" width="50px" height="50px"><path d="M 24.964844 1 A 1.0001 1.0001 0 0 0 24.382812 1.2128906 L 4.421875 16.835938 L 1.3828125 19.212891 A 1.0002305 1.0002305 0 1 0 2.6171875 20.787109 L 4 19.705078 L 4 46 A 1.0001 1.0001 0 0 0 5 47 L 45 47 A 1.0001 1.0001 0 0 0 46 46 L 46 19.705078 L 47.382812 20.787109 A 1.0002308 1.0002308 0 1 0 48.617188 19.212891 L 45.632812 16.878906 L 25.617188 1.2128906 A 1.0001 1.0001 0 0 0 24.964844 1 z M 25 3.2695312 L 44 18.138672 L 44 45 L 6 45 L 6 18.138672 L 25 3.2695312 z M 16.984375 15 A 1.0001 1.0001 0 0 0 16.292969 15.292969 L 11.292969 20.292969 A 1.0001 1.0001 0 0 0 11.292969 21.707031 L 18.845703 29.259766 L 14.802734 33.304688 A 1.0001 1.0001 0 0 0 14.568359 33.673828 L 12.058594 40.662109 A 1.0001 1.0001 0 0 0 13.337891 41.941406 L 20.326172 39.431641 A 1.0001 1.0001 0 0 0 20.695312 39.197266 L 24.740234 35.154297 L 32.292969 42.707031 A 1.0001 1.0001 0 0 0 33.707031 42.707031 L 38.707031 37.707031 A 1.0001 1.0001 0 0 0 38.707031 36.292969 L 31.154297 28.740234 L 36.068359 23.826172 L 36.070312 23.828125 C 36.066313 23.831125 36.777344 23.121094 36.777344 23.121094 C 38.406344 21.492094 38.406297 18.851656 36.779297 17.222656 C 35.148297 15.592656 32.508906 15.594656 30.878906 17.222656 L 30.171875 17.929688 L 30.173828 17.931641 L 25.259766 22.845703 L 17.707031 15.292969 A 1.0001 1.0001 0 0 0 16.984375 15 z M 17 17.414062 L 18.585938 19 L 17.292969 20.292969 L 18.707031 21.707031 L 20 20.414062 L 21.285156 21.699219 L 19.992188 22.992188 L 21.40625 24.40625 L 22.699219 23.113281 L 23.845703 24.259766 L 20.259766 27.845703 L 13.414062 21 L 17 17.414062 z M 31.587891 19.345703 L 34.654297 22.412109 L 19.464844 37.601562 L 16.398438 34.535156 L 31.587891 19.345703 z M 29.740234 30.154297 L 30.886719 31.300781 L 29.59375 32.59375 L 31.007812 34.007812 L 32.300781 32.714844 L 33.585938 34 L 32.292969 35.292969 L 33.707031 36.707031 L 35 35.414062 L 36.585938 37 L 33 40.585938 L 26.154297 33.740234 L 29.740234 30.154297 z"/></svg>