<svg xmlns="http://www.w3.org/2000/svg"  viewBox="0 0 50 50" width="50px" height="50px"><path d="M 16 0 C 12.699219 0 10 2.699219 10 6 C 10 9.300781 12.699219 12 16 12 C 19.300781 12 22 9.300781 22 6 C 22 2.699219 19.300781 0 16 0 Z M 16 12 L 13.59375 12 C 11.578125 12 9.765625 12.988281 8.59375 14.625 C 8.582031 14.636719 8.574219 14.644531 8.5625 14.65625 L 8.03125 15.4375 L 5.65625 11.46875 C 5.644531 11.457031 5.636719 11.449219 5.625 11.4375 C 5.207031 10.808594 4.574219 10.34375 3.875 10.125 C 3.535156 10.019531 3.195313 9.972656 2.84375 10 C 2.492188 10.027344 2.125 10.132813 1.78125 10.3125 C 1.761719 10.324219 1.738281 10.300781 1.71875 10.3125 C 0.09375 11.097656 -0.34375 13.164063 0.53125 14.625 L 5.34375 22.53125 L 5.375 22.5 C 5.664063 23.027344 6.085938 23.394531 6.53125 23.625 C 7 23.867188 7.476563 24 8 24 C 8.753906 24 9.46875 23.664063 10 23.15625 L 10 46.5 C 10 48.421875 11.578125 50 13.5 50 C 14.476563 50 15.363281 49.589844 16 48.9375 C 16.636719 49.589844 17.523438 50 18.5 50 C 20.421875 50 22 48.421875 22 46.5 L 22 32.59375 L 22.03125 32.71875 C 22.035156 32.734375 22.058594 32.734375 22.0625 32.75 C 22.382813 34.085938 23.578125 35 24.90625 35 L 25.1875 35 C 25.25 35.007813 25.3125 35.007813 25.375 35 C 25.554688 34.96875 25.710938 34.90625 25.875 34.84375 L 26.84375 35.71875 L 26.5625 36.03125 C 26.242188 36.394531 26.230469 36.933594 26.53125 37.3125 L 29.03125 40.4375 C 29.09375 40.511719 29.167969 40.574219 29.25 40.625 C 29.492188 42.292969 30.347656 44.234375 31.5625 46 C 33.011719 48.105469 35.058594 50 37.59375 50 C 37.859375 50.007813 38.121094 49.90625 38.3125 49.71875 L 48.21875 39.8125 C 48.550781 39.484375 48.613281 38.96875 48.363281 38.570313 C 48.117188 38.175781 47.628906 38.003906 47.1875 38.15625 C 47.1875 38.15625 45.855469 38.59375 43.34375 38.59375 C 40.917969 38.59375 37.460938 38.152344 33.34375 36.375 C 33.269531 36.261719 33.175781 36.167969 33.0625 36.09375 L 29.78125 33.78125 C 29.582031 33.636719 29.339844 33.570313 29.09375 33.59375 C 28.851563 33.628906 28.628906 33.75 28.46875 33.9375 L 28.1875 34.25 L 27.40625 33.53125 C 27.796875 32.839844 27.914063 32.050781 27.78125 31.25 C 27.78125 31.230469 27.78125 31.207031 27.78125 31.1875 L 24.375 16.625 L 24.375 16.5625 L 24.34375 16.5625 C 23.824219 13.90625 21.414063 12 18.59375 12 Z M 16 2 C 18.222656 2 20 3.777344 20 6 C 20 8.222656 18.222656 10 16 10 C 13.777344 10 12 8.222656 12 6 C 12 3.777344 13.777344 2 16 2 Z M 3 11.96875 C 3.320313 11.949219 3.667969 12.148438 3.9375 12.53125 C 3.949219 12.546875 3.960938 12.546875 3.96875 12.5625 L 4.25 13.03125 C 4.117188 12.992188 3.980469 12.984375 3.84375 13 C 3.457031 13.058594 3.136719 13.335938 3.03125 13.714844 C 2.921875 14.089844 3.046875 14.496094 3.34375 14.75 L 9.59375 20.3125 L 8.78125 21.53125 C 8.507813 21.9375 8.414063 22 8 22 C 7.921875 22 7.644531 21.949219 7.4375 21.84375 C 7.230469 21.738281 7.105469 21.585938 7.09375 21.5625 C 7.085938 21.53125 7.074219 21.5 7.0625 21.46875 L 2.25 13.59375 C 1.9375 13.074219 2.101563 12.363281 2.625 12.125 C 2.648438 12.105469 2.667969 12.085938 2.6875 12.0625 C 2.785156 12.007813 2.894531 11.976563 3 11.96875 Z M 13.59375 14 L 18.59375 14 C 20.550781 14 22.097656 15.261719 22.40625 16.96875 C 22.414063 16.988281 22.425781 17.011719 22.4375 17.03125 L 25.8125 31.5625 L 25.8125 31.625 C 25.855469 31.984375 25.792969 32.328125 25.65625 32.5625 C 25.511719 32.8125 25.339844 32.949219 25.03125 33 L 24.90625 33 C 24.449219 33 24.066406 32.722656 23.96875 32.28125 C 23.96875 32.269531 23.96875 32.261719 23.96875 32.25 L 21.375 21.75 C 21.238281 21.214844 20.691406 20.894531 20.15625 21.03125 C 19.621094 21.167969 19.300781 21.714844 19.4375 22.25 L 20.75 27.59375 L 9.21875 17.3125 L 10.21875 15.78125 C 11.046875 14.621094 12.207031 14 13.59375 14 Z M 12 22.46875 L 20 29.59375 L 20 46.5 C 20 47.375 19.375 48 18.5 48 C 17.625 48 17 47.375 17 46.5 L 17 34 L 15 34 L 15 46.5 C 15 47.375 14.375 48 13.5 48 C 12.625 48 12 47.375 12 46.5 Z M 47 29 C 45.355469 29 44 30.355469 44 32 C 44 33.644531 45.355469 35 47 35 C 48.644531 35 50 33.644531 50 32 C 50 30.355469 48.644531 29 47 29 Z M 47 31 C 47.5625 31 48 31.4375 48 32 C 48 32.5625 47.5625 33 47 33 C 46.4375 33 46 32.5625 46 32 C 46 31.4375 46.4375 31 47 31 Z M 40.5 33 C 39.671875 33 39 33.671875 39 34.5 C 39 35.328125 39.671875 36 40.5 36 C 41.328125 36 42 35.328125 42 34.5 C 42 33.671875 41.328125 33 40.5 33 Z M 29.34375 35.90625 L 31 37.0625 L 29.875 38.28125 L 28.625 36.71875 Z M 32.8125 38.25 C 37.058594 40.03125 40.738281 40.59375 43.34375 40.59375 C 43.921875 40.59375 44.238281 40.507813 44.71875 40.46875 L 40.59375 44.59375 C 37.417969 44.453125 35.78125 42.375 35.78125 42.375 C 35.554688 42.078125 35.179688 41.933594 34.8125 42 C 34.460938 42.0625 34.171875 42.308594 34.046875 42.640625 C 33.925781 42.976563 33.992188 43.351563 34.21875 43.625 C 34.21875 43.625 35.871094 45.628906 38.84375 46.34375 L 37.3125 47.875 C 35.917969 47.722656 34.390625 46.578125 33.21875 44.875 C 32.050781 43.175781 31.34375 41.136719 31.25 40 Z"/></svg>