<svg xmlns="http://www.w3.org/2000/svg"  viewBox="0 0 50 50" width="50px" height="50px"><path d="M 42 4 L 42 6 L 43 6 L 43 7 L 39 7 A 1.0001 1.0001 0 0 0 38 8 L 38 12 L 40 12 L 40 9 L 43 9 L 43 10 L 45 10 L 45 9 L 48 9 L 48 7 L 45 7 L 45 6 L 46 6 L 46 4 L 42 4 z M 18 9 C 16.416667 9 15.101892 9.6297551 14.251953 10.585938 C 13.402014 11.542118 13 12.777778 13 14 C 13 15.222222 13.402014 16.457881 14.251953 17.414062 C 15.101892 18.370244 16.416667 19 18 19 C 19.583333 19 20.898108 18.370244 21.748047 17.414062 C 22.597986 16.457881 23 15.222222 23 14 C 23 12.777778 22.597986 11.542119 21.748047 10.585938 C 20.898108 9.6297551 19.583333 9 18 9 z M 18 11 C 19.083333 11 19.768559 11.370244 20.251953 11.914062 C 20.735347 12.457882 21 13.222222 21 14 C 21 14.777778 20.735347 15.542119 20.251953 16.085938 C 19.768559 16.629756 19.083333 17 18 17 C 16.916667 17 16.231441 16.629756 15.748047 16.085938 C 15.264653 15.542119 15 14.777778 15 14 C 15 13.222222 15.264653 12.457881 15.748047 11.914062 C 16.231441 11.370245 16.916667 11 18 11 z M 33 14 A 1.0001 1.0001 0 0 0 32 15 L 32 17 L 34 17 L 34 22 A 1.0001 1.0001 0 0 0 35 23 L 39 23 L 39 33 A 1.0001 1.0001 0 0 0 40 34 L 44 34 A 1.0001 1.0001 0 0 0 45 33 L 45 29 L 48 29 L 48 27 L 44 27 A 1.0001 1.0001 0 0 0 43 28 L 43 32 L 41 32 L 41 23 L 45 23 A 1.0001 1.0001 0 0 0 46 22 L 46 17 L 48 17 L 48 15 A 1.0001 1.0001 0 0 0 47 14 L 33 14 z M 36 16 L 44 16 L 44 21 L 36 21 L 36 16 z M 28 18 C 26.837 18.426 26 19.559297 26 20.904297 C 26 22.249887 26.837131 23.384285 28 23.810547 L 28 25 L 23.642578 25 L 21.527344 21.384766 A 1.0001 1.0001 0 0 0 21.519531 21.373047 C 20.696994 20.013365 19.125 20 19.125 20 L 17.75 20 L 14 20 C 12.755924 20 11.664061 20.753077 11.240234 21.931641 L 7.4511719 31.119141 C 7.3187792 31.369994 6.5547622 32.936884 7.3398438 34.664062 L 9.65625 40 L 5 40 C 3.3549372 40 2 41.354937 2 43 C 2 44.645063 3.3549372 46 5 46 L 14 46 C 14.971045 46 15.885317 45.527097 16.447266 44.734375 C 17.008489 43.942676 17.15237 42.92522 16.830078 42.007812 L 16.855469 42.089844 L 15.289062 36 L 18.117188 36 L 19.007812 43.125 L 19 43 C 19 44.645063 20.354937 46 22 46 C 23.645063 46 25 44.645063 25 43 A 1.0001 1.0001 0 0 0 24.994141 42.900391 L 23.994141 32.900391 L 24 33 C 24 32.222991 23.658368 31.535356 23.166016 31 L 28 31 L 28 34 A 1.0001 1.0001 0 1 0 30 34 L 30 30.212891 C 30.608151 29.662176 31 28.876436 31 28 C 31 27.123564 30.608151 26.337824 30 25.787109 L 30 23.810547 C 31.162869 23.384285 32 22.249887 32 20.904297 C 32 19.559297 31.163 18.426 30 18 L 30 21.029297 L 28 21.029297 L 28 18 z M 14 22 L 17.75 22 L 19.125 22 C 19.125 22 19.550981 21.98861 19.806641 22.408203 C 19.806641 22.408203 19.808594 22.408203 19.808594 22.408203 L 22.207031 26.505859 A 1.0001 1.0001 0 0 0 23.070312 27 L 28 27 L 28 29 L 22 29 C 21.664448 29 21.356483 28.833693 21.169922 28.554688 L 21.167969 28.554688 L 18.732422 24.486328 A 1.0001 1.0001 0 0 0 16.919922 24.701172 L 15.044922 30.701172 A 1.0001 1.0001 0 0 0 16 32 L 21 32 C 21.562937 32 22 32.437063 22 33 A 1.0001 1.0001 0 0 0 22.005859 33.099609 L 22.996094 43.007812 C 22.991131 43.566125 22.559743 44 22 44 C 21.437063 44 21 43.562937 21 43 A 1.0001 1.0001 0 0 0 20.992188 42.875 L 19.992188 34.875 A 1.0001 1.0001 0 0 0 19 34 L 14 34 A 1.0001 1.0001 0 0 0 13.03125 35.248047 L 14.917969 42.587891 A 1.0001 1.0001 0 0 0 14.943359 42.669922 C 15.051068 42.976516 15.003229 43.311824 14.814453 43.578125 C 14.626402 43.843404 14.324955 44 14 44 L 5 44 C 4.4370628 44 4 43.562937 4 43 C 4 42.437063 4.4370628 42 5 42 L 11.181641 42 A 1.0001 1.0001 0 0 0 12.097656 40.601562 L 9.1679688 33.851562 A 1.0001 1.0001 0 0 0 9.1601562 33.835938 C 8.7637872 32.963924 9.2519531 31.978516 9.2519531 31.978516 A 1.0001 1.0001 0 0 0 9.2988281 31.880859 L 13.105469 22.652344 A 1.0001 1.0001 0 0 0 13.121094 22.609375 C 13.217259 22.341939 13.706076 22 14 22 z M 18.164062 27.429688 L 19.478516 29.623047 A 1.0001 1.0001 0 0 0 19.503906 29.664062 C 19.598946 29.806755 19.757169 29.877569 19.873047 30 L 17.361328 30 L 18.164062 27.429688 z"/></svg>