<svg xmlns="http://www.w3.org/2000/svg"  viewBox="0 0 50 50" width="50px" height="50px"><path d="M 3.90625 0 C 3.304688 0.0703125 2.792969 0.519531 2.59375 1.0625 C 2.589844 1.078125 2.566406 1.078125 2.5625 1.09375 L 0.0625 8.375 C 0.0234375 8.476563 0.00390625 8.582031 0 8.6875 C 0 8.835938 -0.0078125 9.09375 0.03125 9.375 C 0.0625 9.601563 0.183594 9.90625 0.40625 10.21875 L 0.34375 10.25 L 2.84375 14.125 C 2.855469 14.136719 2.863281 14.144531 2.875 14.15625 C 2.980469 14.316406 3.109375 14.488281 3.34375 14.625 C 3.578125 14.761719 3.941406 14.839844 4.25 14.75 C 4.871094 14.574219 5.054688 14.121094 5.15625 13.8125 L 7 8.15625 L 8.28125 8.625 C 8.289063 8.65625 8.304688 8.6875 8.3125 8.71875 C 8.320313 8.738281 8.332031 8.761719 8.34375 8.78125 C 9.089844 11.222656 9.753906 13.535156 10.28125 15.3125 C 10.796875 17.054688 11.09375 18.121094 11.34375 18.71875 C 11.351563 18.742188 11.367188 18.757813 11.375 18.78125 C 11.640625 19.542969 12.097656 20.210938 12.625 20.84375 C 12.636719 20.855469 12.644531 20.863281 12.65625 20.875 C 13.761719 22.070313 18.21875 27.167969 18.59375 27.59375 L 15.6875 43 L 10 43 C 9.96875 43 9.9375 43 9.90625 43 C 9.390625 43.046875 8.996094 43.480469 9 44 L 9 49 C 9 49.550781 9.449219 50 10 50 L 49 50 C 49.550781 50 50 49.550781 50 49 L 50 44 C 50 43.449219 49.550781 43 49 43 L 47.6875 43 L 36.125 26.4375 C 36.125 26.425781 36.125 26.417969 36.125 26.40625 C 35.570313 25.628906 34.835938 25.191406 34.125 24.90625 L 34.15625 24.875 C 34.085938 24.828125 33.980469 24.792969 33.90625 24.75 C 33.570313 24.546875 33.226563 24.335938 32.78125 24.15625 C 32.769531 24.15625 32.761719 24.15625 32.75 24.15625 L 25.15625 21.28125 C 23.613281 20.664063 21.804688 19.277344 20.40625 18.0625 C 19.085938 16.914063 18.253906 16.042969 18.15625 15.9375 L 14.9375 7.25 C 14.9375 7.238281 14.9375 7.230469 14.9375 7.21875 C 14.550781 6.277344 14.046875 5.457031 13.34375 4.875 C 12.640625 4.292969 11.65625 4.011719 10.6875 4.21875 C 9.726563 4.425781 8.933594 5.070313 8.53125 5.90625 C 8.441406 6.09375 8.367188 6.300781 8.3125 6.5 L 7.625 6.28125 L 8.65625 3.125 C 8.945313 2.253906 8.367188 1.402344 7.625 1.15625 L 4.53125 0.0625 C 4.316406 -0.0078125 4.105469 -0.0234375 3.90625 0 Z M 4.3125 2.09375 L 6.625 2.90625 L 5.46875 6.46875 C 5.441406 6.527344 5.421875 6.59375 5.40625 6.65625 L 3.71875 11.78125 L 2.03125 9.15625 C 2.019531 9.144531 2.011719 9.136719 2 9.125 C 2.019531 9.140625 2.035156 9.128906 2.03125 9.09375 C 2.023438 9.027344 2 8.917969 2 8.8125 Z M 11.40625 6.15625 C 11.65625 6.140625 11.820313 6.207031 12.0625 6.40625 C 12.378906 6.667969 12.753906 7.195313 13.0625 7.9375 L 13.0625 7.96875 L 16.375 16.84375 C 16.414063 16.96875 16.476563 17.085938 16.5625 17.1875 C 16.5625 17.1875 17.617188 18.308594 19.09375 19.59375 C 20.570313 20.878906 22.480469 22.34375 24.4375 23.125 L 32.03125 26.03125 C 32.488281 26.214844 32.816406 26.386719 33.03125 26.53125 C 33.109375 26.585938 33.191406 26.625 33.28125 26.65625 C 33.679688 26.789063 34.09375 27.054688 34.46875 27.5625 C 34.480469 27.578125 34.488281 27.578125 34.5 27.59375 L 45.25 43 L 41.96875 43 L 34.3125 32.3125 C 34.09375 32.003906 33.71875 31.847656 33.34375 31.90625 C 32.886719 31.976563 32.539063 32.351563 32.5 32.8125 L 31.46875 43 L 17.75 43 L 20.6875 27.375 C 20.761719 26.941406 20.546875 26.511719 20.15625 26.3125 C 20.144531 26.3125 20.136719 26.3125 20.125 26.3125 C 19.820313 25.964844 15.390625 20.902344 14.15625 19.5625 C 14.144531 19.546875 14.136719 19.542969 14.125 19.53125 C 13.683594 18.996094 13.382813 18.492188 13.25 18.09375 C 13.242188 18.0625 13.230469 18.03125 13.21875 18 C 13.171875 17.886719 12.742188 16.523438 12.21875 14.75 C 11.699219 12.996094 11.023438 10.710938 10.28125 8.28125 C 10.121094 7.59375 10.164063 7.0625 10.3125 6.75 C 10.460938 6.4375 10.6875 6.28125 11.125 6.1875 C 11.234375 6.164063 11.324219 6.160156 11.40625 6.15625 Z M 31 10 C 27.675781 10 25 12.675781 25 16 C 25 19.324219 27.675781 22 31 22 C 34.324219 22 37 19.324219 37 16 C 37 12.675781 34.324219 10 31 10 Z M 31 12 C 33.277344 12 35 13.722656 35 16 C 35 18.277344 33.277344 20 31 20 C 28.722656 20 27 18.277344 27 16 C 27 13.722656 28.722656 12 31 12 Z M 34.21875 35.625 L 39.53125 43 L 33.46875 43 Z M 11 45 L 48 45 L 48 48 L 11 48 Z"/></svg>