<svg xmlns="http://www.w3.org/2000/svg"  viewBox="0 0 50 50" width="50px" height="50px"><path d="M 18.998047 2 C 16.248984 2 14 4.2503431 14 6.9980469 C 14 9.7472611 16.248984 12 18.998047 12 C 21.750887 12 24 9.7469594 24 6.9980469 C 24 4.2506451 21.750887 2 18.998047 2 z M 29 2 A 1.0001 1.0001 0 0 0 27.988281 3.0488281 C 26.86289 3.2700762 26 4.2698792 26 5.4550781 L 26 10.544922 C 26 11.889552 27.110448 13 28.455078 13 L 28.970703 13 L 28.970703 15.666016 C 28.754764 15.740096 28.518653 15.652206 28.318359 15.779297 A 1.0001 1.0001 0 0 0 28.300781 15.791016 L 23.875 18.730469 L 19.414062 15.630859 A 1.0001 1.0001 0 0 0 19.402344 15.621094 L 15.205078 12.798828 A 1.0001 1.0001 0 0 0 15.082031 12.728516 C 12.269392 11.369388 8.8572093 12.557241 7.4980469 15.371094 A 1.0001 1.0001 0 0 0 7.4882812 15.394531 L 3.6464844 23.884766 C 3.2412875 24.629058 3.05808 25.408639 3.0332031 26.175781 A 1.0001 1.0001 0 0 0 3 26.4375 L 3 45.5 C 3 47.421188 4.5788117 49 6.5 49 C 8.4211883 49 10 47.421188 10 45.5 L 10 35.025391 L 13.9375 38.53125 L 14.537109 45.443359 L 14.533203 45.357422 C 14.533203 47.145035 15.820979 48.795131 17.675781 48.980469 C 19.741945 49.187499 21.533203 47.537489 21.533203 45.498047 A 1.0001 1.0001 0 0 0 21.53125 45.425781 L 20.896484 36.791016 L 20.898438 36.863281 C 20.898438 35.815139 20.427265 34.820741 19.615234 34.15625 L 19.615234 34.154297 L 13.908203 29.300781 L 17.4375 21.605469 L 22.482422 24.701172 A 1.0001 1.0001 0 0 0 23.005859 24.849609 L 23.011719 24.849609 C 23.875193 25.193086 24.858313 25.232161 25.699219 24.697266 A 1.0001 1.0001 0 0 0 25.712891 24.6875 L 29 22.517578 L 29 25 A 1.0001 1.0001 0 0 0 28.960938 26.998047 L 23.039062 47.724609 A 1.0001 1.0001 0 1 0 24.960938 48.275391 L 29 34.138672 L 29 48 A 1.0001 1.0001 0 1 0 31 48 L 31 34.138672 L 35.039062 48.275391 A 1.0001 1.0001 0 1 0 36.960938 47.724609 L 31.039062 26.998047 A 1.0001 1.0001 0 0 0 31 25 L 31 21.197266 L 31.535156 20.84375 C 32.924768 19.962024 33.342049 18.091768 32.460938 16.703125 C 32.111683 16.152697 31.538882 15.88694 30.970703 15.662109 L 30.970703 13 L 31.544922 13 C 32.712629 13 33.567815 12.101199 33.808594 11 L 36.585938 11 L 37.292969 11.707031 A 1.0001 1.0001 0 0 0 38 12 L 47 12 A 1.0001 1.0001 0 0 0 48 11 L 48 10 L 48 6 L 48 5 A 1.0001 1.0001 0 0 0 47 4 L 42.154297 4 A 1.0001 1.0001 0 0 0 41.984375 3.9863281 A 1.0001 1.0001 0 0 0 41.839844 4 L 38 4 A 1.0001 1.0001 0 0 0 37.292969 4.2929688 L 36.585938 5 L 33.808594 5 C 33.601377 4.0522999 32.936627 3.2586864 32.011719 3.0546875 A 1.0001 1.0001 0 0 0 31 2 L 29 2 z M 18.998047 4 C 20.671207 4 22 5.3314486 22 6.9980469 C 22 8.6671344 20.671207 10 18.998047 10 C 17.33111 10 16 8.6668326 16 6.9980469 C 16 5.3317507 17.33111 4 18.998047 4 z M 28.455078 5 L 31.544922 5 C 31.808292 5 32 5.1917083 32 5.4550781 L 32 6 L 32 10 L 32 10.544922 C 32 10.808292 31.808292 11 31.544922 11 L 28.455078 11 C 28.191708 11 28 10.808292 28 10.544922 L 28 5.4550781 C 28 5.1917083 28.191708 5 28.455078 5 z M 38.414062 6 L 41 6 L 41 7 A 1.0001 1.0001 0 1 0 43 7 L 43 6 L 46 6 L 46 10 L 38.414062 10 L 38 9.5859375 L 38 6.4140625 L 38.414062 6 z M 34 7 L 36 7 L 36 9 L 34 9 L 34 7 z M 12.792969 14.162109 C 13.261026 14.186589 13.731868 14.307507 14.183594 14.521484 L 18.279297 17.277344 L 23.291016 20.761719 A 1.0001 1.0001 0 0 0 24.416016 20.773438 L 29.390625 17.466797 C 29.867982 17.163908 30.46921 17.299003 30.771484 17.775391 C 31.074373 18.252747 30.941232 18.853976 30.464844 19.15625 A 1.0001 1.0001 0 0 0 30.449219 19.166016 L 24.625 23.009766 C 24.625 23.009766 24.623047 23.009766 24.623047 23.009766 C 24.280295 23.226769 23.873824 23.206301 23.554688 23.003906 A 1.0001 1.0001 0 0 0 23.019531 22.849609 L 23.287109 22.849609 L 17.523438 19.310547 A 1.0001 1.0001 0 0 0 16.091797 19.746094 L 11.775391 29.154297 A 1.0001 1.0001 0 0 0 12.035156 30.333984 L 18.333984 35.691406 A 1.0001 1.0001 0 0 0 18.349609 35.703125 C 18.698831 35.988633 18.898438 36.411948 18.898438 36.863281 A 1.0001 1.0001 0 0 0 18.902344 36.9375 L 19.53125 45.501953 C 19.52865 46.392192 18.801173 47.083037 17.875 46.990234 C 17.127803 46.915574 16.533203 46.185809 16.533203 45.357422 A 1.0001 1.0001 0 0 0 16.529297 45.269531 L 15.894531 37.962891 A 1.0001 1.0001 0 0 0 15.564453 37.302734 L 6.625 29.34375 C 5.8415219 28.646643 5.3191117 27.866839 5.109375 27.111328 C 4.8996383 26.355818 4.9578246 25.619583 5.4277344 24.789062 A 1.0001 1.0001 0 0 0 5.46875 24.708984 L 9.3046875 16.234375 C 9.9727848 14.859107 11.363679 14.087348 12.792969 14.162109 z M 5 30.541016 C 5.0996705 30.638476 5.1898949 30.742458 5.2949219 30.835938 L 8 33.244141 L 8 45.5 C 8 46.340812 7.3408117 47 6.5 47 C 5.6591883 47 5 46.340812 5 45.5 L 5 30.541016 z"/></svg>