<svg xmlns="http://www.w3.org/2000/svg"  viewBox="0 0 50 50" width="50px" height="50px"><path d="M 18.761719 10.398438 C 17.304027 10.432765 15.894965 11.055131 14.871094 12.146484 C 14.280807 12.053436 13.659669 12 13 12 C 5.8343242 12 0.060796366 17.746146 0.005859375 24.898438 A 1.0001 1.0001 0 0 0 0 25 C 0 32.145455 5.8545455 38 13 38 C 16.785714 38 19.522784 36.290211 21.466797 33.876953 C 23.41081 31.463695 24.673828 28.384766 25.923828 25.384766 C 27.173828 22.384766 28.41081 19.463695 30.091797 17.376953 C 31.772784 15.290211 33.785714 14 37 14 C 43.054545 14 48 18.945455 48 25 C 48 30.246585 44.37877 34.600114 39.484375 35.714844 C 39.484375 35.714844 39.484375 35.712891 39.484375 35.712891 C 39.744765 33.585556 38.74451 31.399823 36.779297 30.265625 L 33.748047 28.515625 L 32.748047 30.248047 L 29.283203 28.248047 L 28.283203 29.980469 L 31.748047 31.980469 L 30.248047 34.578125 L 26.783203 32.578125 L 25.783203 34.310547 L 29.248047 36.310547 L 28.248047 38.042969 L 31.279297 39.792969 L 31.279297 39.791016 C 33.864042 41.283969 37.184468 40.419361 38.726562 37.880859 C 45.06912 37.045905 49.943712 31.672651 49.994141 25.101562 A 1.0001 1.0001 0 0 0 50 25 C 50 17.854545 44.145455 12 37 12 C 33.214286 12 30.477216 13.709789 28.533203 16.123047 C 26.58919 18.536305 25.326172 21.615234 24.076172 24.615234 C 22.826172 27.615234 21.58919 30.536305 19.908203 32.623047 C 18.227216 34.709789 16.214286 36 13 36 C 6.9454545 36 2 31.054545 2 25 C 2 18.9 6.9 14 13 14 C 13.24319 14 13.475923 14.013403 13.707031 14.029297 C 12.823872 16.48228 13.792237 19.306887 16.125 20.654297 L 19.15625 22.404297 L 24.65625 12.878906 L 21.626953 11.128906 C 20.971907 10.75055 20.269501 10.524418 19.560547 10.4375 C 19.294689 10.404906 19.027242 10.392185 18.761719 10.398438 z M 18.796875 12.386719 C 18.965451 12.383226 19.13551 12.392668 19.304688 12.414062 C 19.755827 12.471113 20.204046 12.618184 20.625 12.861328 L 21.925781 13.611328 L 18.425781 19.673828 L 17.126953 18.923828 C 15.442769 17.95104 14.873128 15.826393 15.845703 14.142578 C 16.484095 13.037332 17.616845 12.411166 18.796875 12.386719 z M 34.480469 31.248047 L 35.779297 31.998047 C 37.463013 32.969783 38.032684 35.094103 37.060547 36.779297 C 36.087759 38.463481 33.963112 39.033122 32.279297 38.060547 L 30.980469 37.310547 L 34.480469 31.248047 z"/></svg>