<svg xmlns="http://www.w3.org/2000/svg"  viewBox="0 0 50 50" width="50px" height="50px"><path d="M 10.685547 2.0078125 C 9.513289 2.0735505 8.4275131 2.8412863 8.0117188 4.0136719 L 1.1796875 23.255859 C 0.62394944 24.818689 1.4141578 26.572911 2.9667969 27.152344 L 5 27.910156 L 5 36 C 5 37.64497 6.3550302 39 8 39 L 10.544922 39 L 13.035156 45.988281 C 13.59254 47.551603 15.339524 48.391142 16.894531 47.8125 L 47.029297 36.607422 C 48.5841 36.028856 49.377756 34.272472 48.820312 32.708984 L 41.964844 13.466797 C 41.40746 11.903475 39.660476 11.063936 38.105469 11.642578 L 37.660156 11.808594 L 11.865234 2.1875 C 11.476981 2.042607 11.0763 1.9858998 10.685547 2.0078125 z M 10.775391 3.9960938 C 10.903053 3.9909503 11.035769 4.0119399 11.166016 4.0605469 L 32.453125 12 L 8 12 C 7.7442675 12 7.4994343 12.042019 7.2617188 12.103516 L 9.8964844 4.6816406 L 9.8984375 4.6816406 C 10.048145 4.2595262 10.392403 4.0115242 10.775391 3.9960938 z M 39.195312 13.451172 C 39.581923 13.467054 39.931569 13.716664 40.082031 14.138672 L 40.080078 14.138672 L 46.935547 33.380859 C 47.136104 33.943372 46.857227 34.536988 46.332031 34.732422 L 40.796875 36.791016 L 33.097656 15.636719 L 38.802734 13.515625 C 38.933983 13.466786 39.066442 13.445878 39.195312 13.451172 z M 8 14 L 31.763672 14 L 7.9707031 22.847656 C 7.5998914 22.985641 7.2762467 23.193886 7 23.447266 L 7 15 C 7 14.43497 7.4349698 14 8 14 z M 37.5 16 A 1.5 1.5 0 0 0 37.5 19 A 1.5 1.5 0 0 0 37.5 16 z M 31.222656 16.333984 L 38.921875 37.488281 L 16.197266 45.939453 C 15.672272 46.134811 15.118585 45.879083 14.917969 45.316406 L 14.919922 45.316406 L 8.0625 26.074219 C 7.8621297 25.51223 8.1425752 24.918163 8.6679688 24.722656 L 31.222656 16.333984 z M 5 18.474609 L 5 25.775391 L 3.6660156 25.277344 C 3.1446547 25.082776 2.8641912 24.488952 3.0644531 23.925781 L 5 18.474609 z M 7 29.048828 L 9.8320312 37 L 8 37 C 7.4349698 37 7 36.56503 7 36 L 7 29.048828 z"/></svg>