<?xml version="1.0" encoding="iso-8859-1"?><!-- Generator: Adobe Illustrator 19.1.1, SVG Export Plug-In . SVG Version: 6.00 Build 0)  --><svg xmlns="http://www.w3.org/2000/svg" xmlns:xlink="http://www.w3.org/1999/xlink" viewBox="0 0 50 50" width="500px" height="500px"><path style="fill:none;stroke:#000000;stroke-width:2;stroke-linecap:round;stroke-linejoin:round;stroke-miterlimit:10;" d="M15,15.48c-1.24,5.646-1.199,11.525-3,13.12c0,1.6,4,2.2,8.2,2.7c0,0.3,0,0.6-0.1,1.3C18.4,37.2,6.5,35.9,6,45h38c-0.5-9.1-12.3-7.8-14.1-12.5c0-0.3,0-0.7-0.1-1.2c4.3-0.4,8.4-1.6,8.4-2.8c-1.798-1.629-2.052-7.562-3.2-13.02"/><g><path style="fill:none;stroke:#000000;stroke-width:2;stroke-linecap:round;stroke-miterlimit:10;" d="M23,2.984c-5.007,0-7,4.989-7,8.501c0,0.898-2-0.374-2,3.547c0,0,3.999,1,11.005,1s10.995-1,10.995-1c0-3.958-2-2.649-2-3.547c0-3.515-2.034-8.501-7-8.501 M27,9.032V2.257c0-0.678-0.531-1.225-1.143-1.225h-1.715C23.531,1.032,23,1.579,23,2.257v6.775"/></g></svg>