<?xml version="1.0" encoding="UTF-8"?>
<svg id="Layer_1" data-name="Layer 1" xmlns="http://www.w3.org/2000/svg" viewBox="0 0 1080 1080">
  <path id="SVGID" d="M666.15,579.81c12.97,0,23.9,7.78,28.71,19.08h-57.24c4.45-11.11,15.56-19.08,28.53-19.08M612.43,610.93c0,29.64,23.9,53.54,53.54,53.54,12.97,0,26.86-2.22,36.31-9.82l-12.6-18.9c-7.04,5.19-15.19,6.3-23.53,6.3-13.15,0-24.45-8.15-28.9-19.82h81.32c.74-3.7,1.3-7.41,1.3-11.3,0-29.64-23.9-53.54-53.54-53.54-29.82,0-53.91,23.9-53.91,53.54M944.39,610.93c0-17.23,13.89-31.12,31.12-31.12s31.12,13.89,31.12,31.12-13.89,31.12-31.12,31.12-31.12-13.89-31.12-31.12M921.98,610.93c0,29.64,23.9,53.54,53.54,53.54s53.54-23.9,53.54-53.54-23.9-53.54-53.54-53.54c-29.64,0-53.54,23.9-53.54,53.54M121.53,610.19c0,6.67,1.3,12.97,3.52,18.9l20.01-11.49c-.56-2.41-.93-4.82-.93-7.22,0-14.08,9.45-26.12,22.41-29.82v-23.16c-25.75,4.26-45.02,26.12-45.02,52.8M183.96,580.37c12.97,3.89,22.41,15.75,22.41,29.82,0,17.23-13.89,31.12-31.12,31.12-8.34,0-15.93-3.33-21.49-8.52l-20.01,11.49c9.82,11.86,24.64,19.64,41.31,19.64,29.64,0,53.72-24.08,53.72-53.54,0-26.68-19.45-48.53-44.83-52.8,0,0,0,22.79,0,22.79ZM759.33,569.07v-9.26h-24.64v102.63h24.64v-48.91c0-12.97,10.74-26.12,20.38-29.45,12.97-4.63,24.64,3.33,24.64,15v63.35h25.75v-56.13c0-27.42-10.19-46.87-38.72-48.72-1.11,0-2.22-.19-3.15-.19-14.08-.19-21.12,6.48-28.9,11.67M423.48,610.56c0-17.23,13.89-31.12,31.12-31.12s31.12,13.89,31.12,31.12-13.89,31.12-31.12,31.12-31.12-13.89-31.12-31.12M401.06,610.56c0,29.64,23.9,53.54,53.54,53.54s53.54-23.9,53.54-53.54-23.9-53.54-53.54-53.54c-29.64,0-53.54,23.9-53.54,53.54M519.81,610.56c0,29.64,23.9,53.54,53.54,53.54,12.23,0,23.34-4.08,32.42-10.93l-12.04-19.08c-5.37,4.82-12.6,7.6-20.38,7.6-17.23,0-31.12-13.89-31.12-31.12s13.89-31.12,31.12-31.12c7.22,0,13.71,2.41,19.08,6.48l10.93-19.82c-8.52-5.74-18.9-9.08-30.01-9.08-29.64,0-53.54,23.9-53.54,53.54M74.1,515.53l-23.16,14.26v100.59c0,9.82,5.37,18.9,11.49,24.27,13.15,11.67,47.24,13.89,58.54-2.41-3.52-5.19-6.3-11.11-9.45-16.67-4.82,3.7-13.52,8.52-22.79,7.04-7.78-1.11-14.45-8.15-14.45-16.67v-110.41h-.19ZM270.47,515.53l-23.16,14.08v28.9h-13.89v22.79h13.89v48.72c0,9.82,5.37,18.9,11.49,24.27,13.15,11.67,47.24,13.89,58.54-2.41-3.52-5.19-6.3-11.11-9.45-16.67-4.82,3.7-13.52,8.52-22.79,7.04-7.78-1.11-14.45-8.15-14.45-16.67v-44.09h28.9v-22.79h-28.9v-43.16h-.19ZM354.38,515.53l-23.16,14.08v28.9h-13.89v22.79h13.89v48.72c0,9.82,5.37,18.9,11.49,24.27,13.15,11.67,47.24,13.89,58.54-2.41-3.52-5.19-6.3-11.11-9.45-16.67-4.82,3.7-13.52,8.52-22.79,7.04-7.78-1.11-14.45-8.15-14.45-16.67v-44.09h28.9v-22.79h-28.9v-43.16h-.19ZM875.11,515.53l-23.16,14.08v28.9h-13.89v22.79h13.89v48.72c0,9.82,5.37,18.9,11.49,24.27,13.15,11.67,47.24,13.89,58.54-2.41-3.52-5.19-6.3-11.11-9.45-16.67-4.82,3.7-13.52,8.52-22.79,7.04-7.78-1.11-14.45-8.15-14.45-16.67v-44.09h28.9v-22.79h-29.08v-43.16Z"/>
</svg>