<?xml version="1.0" encoding="UTF-8"?>
<svg id="Layer_1" data-name="Layer 1" xmlns="http://www.w3.org/2000/svg" viewBox="0 0 1080 1080">
  <path d="M675.82,616.32l-10.27,38.21-93.86-.03c-4.48-1.52-2.53-25.7-2.92-30.9-.47-6.21-1.76-14.82-7.36-18.57-.89-.6-4.74-3.37-7.91-3.37h-26.49v52.98h-93.56l-10.71-37.19-18.02,36.06-19.72-37.19-10.16,38.32h-47.34l52.54-152.24,48.75.23,50.88,146.38v-146.54h90.74c5.28,0,19.61,4.39,24.6,6.96,26.53,13.67,24.78,63.75-4.87,73.63,4.63,2.99,9.72,3.41,14.08,7.34,14.62,13.16,6.66,37.8,10.98,54.4.77,2.96,2.05,4.77,5.36,4.2l49.73-146.42,47.84-.19,52.37,146.61v-146.54h45.65l49.03,82.29v-82.29h45.09v152.17h-44.52l-50.16-82.29v82.29h-91.3l-10.16-38.32-19.09,36.06M527.01,567.85h28.74c4.87,0,8.36-2.78,9.65-3.87,6.55-5.55,5.23-19.82-2.62-23.44-.7-.32-3.95-1.99-7.03-1.99h-28.74v29.31ZM709.62,603.92l-13.54-54.1-15.77,54.1h29.31ZM418.8,603.92l-13.54-52.98-15.77,52.98h29.31Z"/>
  <g>
    <path d="M812.19,674.93l14.42.25,18.27,26.8v-27.05h14.65v49.6h-14.64c-5.16-8.41-10.2-16.63-15.98-24.05-1.34-1.72-1.04-2.13-3.19-1.88v25.93h-13.53v-49.6Z"/>
    <path d="M689.33,674.93v33.25c0,3.64,5.55,5.07,8.45,5.07,2.51,0,8.45-.49,8.45-6.19v-32.12h14.65v34.38c0,3.56-1.44,6.25-3.57,8.37-5.42,5.4-11.95,7.53-19.52,7.53s-13.35-2.36-17.44-5.68c-3.42-2.78-5.69-7.16-5.69-9.1v-35.51h14.65Z"/>
    <polygon points="910.26 674.93 910.26 685.08 884.33 685.08 884.51 692.23 884.51 694.1 908.01 694.1 908.01 703.11 884.33 703.11 884.33 713.26 910.26 713.26 910.26 724.53 869.68 724.53 869.68 674.93 910.26 674.93"/>
    <path d="M666.79,691.84h-15.78c-.35,0-.71-3.71-4.1-5.49-12.8-6.73-18.53,18.76-8.89,25.79,6.29,4.58,14.9-.13,14.11-7.91h15.78c-3.42,17.28-14.16,22.21-31,20.29-21.3-2.42-24.96-38.24-7.68-47.14,13.53-6.96,35.39-2.92,37.55,14.44Z"/>
    <path d="M777.25,691.84h-15.78c-.35,0-.71-3.71-4.1-5.49-12.62-6.63-18.81,18.52-8.89,25.79,6.27,4.59,14.91-.14,14.11-7.91h15.78c-3.77,17.28-13.97,22.23-31,20.29-21.5-2.45-24.87-38.28-7.68-47.14,13.53-6.96,35.39-2.92,37.55,14.44Z"/>
    <rect x="786.27" y="674.93" width="14.65" height="49.6"/>
  </g>
  <path d="M213.88,654.41l-44.14-72.45,27.26-60.06,91.79-19.35,3.78.46,45.93,82.5-22.81,68.03-3.34,1.17-98.47-.3ZM285.79,508.11l-76.64,16.33,56.81,26.41,19.83-42.74ZM328.62,579.12l-37.75-67.6-19.62,41.14,57.38,26.46ZM262.12,554.34l-60.86-27.06-5.63,80.02,66.49-52.96ZM191.1,605.04l4.5-65.37-20.04,41.33c-.13,1.57,11.12,19.79,13.02,22.58.69,1.01-.17,2.08,2.51,1.46ZM330.88,585.9l-59.73-27.07,7.89,86.79,51.84-59.72ZM274.52,647.87l-9.57-87.91-67.07,54.08,76.64,33.82ZM285.23,650.14h26.49l15.23-50.73-42.86,48.48,1.14,2.25ZM217.6,650.14h44.52l-1.44-2.54-61.11-27.9c-.64,1.14,1.26,3.79,1.9,4.86,5.15,8.63,10.78,17.06,16.12,25.58Z"/>
</svg>