<?xml version="1.0" encoding="UTF-8"?>
<svg id="Layer_1" data-name="Layer 1" xmlns="http://www.w3.org/2000/svg" viewBox="0 0 1080 1080">
  <defs>
    <style>
      .cls-1 {
        fill-rule: evenodd;
      }
    </style>
  </defs>
  <path class="cls-1" d="M474.25,533.85c-11.92,5.96-23.84,11.63-35.76,17.44l-9.84-19.97,35.76-17.58c3.46,6.62,6.74,13.32,9.84,20.11h0Z"/>
  <polygon class="cls-1" points="255.2 576.62 255.2 576.77 291.56 519.85 381.12 519.85 381.12 541.75 364.28 541.75 364.13 641.89 381.12 642.04 381.12 664.24 269.95 664.24 269.95 642.04 287.69 642.04 287.84 575.28 287.69 575.13 228.38 668.41 228.24 668.41 158.5 577.37 158.2 577.22 158.05 641.89 177.28 642.04 177.28 664.24 112 664.24 112 642.04 131.23 642.04 131.38 541.9 112 541.75 112 519.85 211.25 519.85 255.2 576.62"/>
  <polygon class="cls-1" points="778.53 641.89 797.01 642.04 797.01 664.24 684.35 664.24 684.35 642.04 702.98 642.04 703.13 541.9 684.35 541.75 684.35 519.85 778.53 519.85 778.53 641.89 778.53 641.89"/>
  <polygon class="cls-1" points="490.34 641.89 509.42 642.04 509.42 664.24 395.87 664.24 395.87 642.04 413.6 642.04 413.75 578.11 395.87 577.96 395.87 555.76 490.34 555.76 490.34 641.89"/>
  <path class="cls-1" d="M967.32,619.09c2.24-16.1-.89-31.74-11.92-43.21l-5.52-5.36c-29.05-22.05-75.1-21.46-108.93-10.28-18.03,5.51-36.95,22.65-38.44,42.47-3.13,22.95,7.9,44.25,28.17,54.68,26.22,14.16,63.77,15.2,92.98,6.85,16.84-4.47,33.38-18.92,40.68-35.17l-43.81.15c-1.39,6.1-4.93,11.5-9.98,15.2-6.85,5.07-17.73,5.07-24.73.59-8.94-5.81-13.26-15.35-11.77-25.92h93.28ZM874.05,579.9c.6-3.58,3.57-7.15,7.15-8.49,5.22-1.94,11.63-.89,15.35,3.43,4.31,5.24,2.53,10.46,2.53,23.4h-25.18l.15-18.33Z"/>
  <path class="cls-1" d="M678.54,619.09c1.48-13.71,0-27.57-7.6-38-4.76-7-11.92-12.52-18.77-16.39-29.5-16.1-72.87-15.05-103.86-2.98-17.88,6.56-34.57,24.29-34.87,44.26-1.94,22.04,9.84,42.31,29.51,51.85,25.92,13.42,62.58,14.76,91.49,6.56,16.99-4.33,33.83-18.78,40.97-35.32h-43.51c-1.39,5.87-4.69,11.11-9.38,14.91-6.56,4.91-17.59,5.96-24.58,1.63-9.39-5.51-14.31-15.65-12.82-26.52h93.43ZM585.79,579.9c.6-3.58,3.57-7.15,7.16-8.49,5.21-1.94,11.62-.89,15.35,3.43,4.32,5.24,2.54,10.46,2.54,23.4h-25.18l.14-18.33Z"/>
</svg>