<?xml version="1.0" encoding="UTF-8"?>
<svg id="Layer_1" data-name="Layer 1" xmlns="http://www.w3.org/2000/svg" viewBox="0 0 1080 1080">
  <defs>
    <style>
      .cls-1 {
        fill-rule: evenodd;
      }
    </style>
  </defs>
  <path d="M423.87,630.8c0,27.95,27.95,42.74,55.22,42.74,21.97,0,53.63-10.04,53.63-41.1,0-21.92-14.66-29.98-35.62-35.08-18.37-4.47-40.6-3.77-40.6-15.6,0-9.58,10.39-13.09,20.7-13.09,11.59,0,23.33,4.91,23.33,17.56h28.85c-2.5-28.99-25.98-40.04-51.66-40.04s-50.61,11.01-50.61,40.31c0,20.78,17.95,29.71,36.76,32.97,28.32,4.91,37.1,6.04,37.1,16.8,0,11.41-16.15,14.35-21.64,14.35-12.73,0-26-5.68-26.22-19.83h-29.23Z"/>
  <path class="cls-1" d="M964.48,546.41h-31.16v12.99s-7.74-16.17-36.91-16.17c-31.45,0-51.31,27.64-51.31,58,0,32.17,17.15,57.64,52.34,57.64,26.44,0,34.75-13.93,34.75-13.93l.27,12.47c-1.04,16.6-9.72,25.49-26.35,25.49-12.28,0-20-3.96-21.7-13.6l-34.36,1.89c1.24,23.61,28.19,37.58,52.69,37.58,55.2,0,61.75-29.08,61.75-52.72v-109.65ZM903.25,633.25c-16.75,0-27.52-16.24-26.58-32.46.88-15.11,8.88-30.8,27.83-30.8s29.2,15.49,27.96,33.52c-1,14.6-9.35,29.74-29.22,29.74h0Z"/>
  <path d="M537.77,667.62h32.43v-67.65c0-20.35,14.07-25.07,20.28-25.07,17.66,0,19.05,14.35,19.05,27.36v65.37h32.43v-67.61c0-20.39,11.69-25.49,20.06-25.49,18.65,0,19.27,14.54,19.27,27.76v65.34h32.43v-78.17c0-30.59-17.44-42.24-41.8-42.24-15.95,0-27.9,9.36-34.55,19.63-6.2-14.15-19.05-19.63-33.44-19.63s-26.8,7.08-34.99,19.18h-.44v-15.97h-30.72v117.19h0Z"/>
  <path class="cls-1" d="M838.43,616.15c2.46-35.12-17.56-71.95-60.24-71.95-37.4,0-59.58,30.31-59.58,63.36s22.88,62.41,60.84,62.41c27.25,0,48.15-11.07,57.46-38.93l-33.42-1.48c-.85,4.35-9.64,14.57-23.41,14.57-18.4,0-28.32-14.19-28.32-27.98h86.68ZM752.61,593.21c0-4.35,5.66-23.61,25.87-23.61s25.88,18.13,25.88,23.61h-51.75Z"/>
  <path d="M266.44,667.66c0-21.29,17.26-38.55,38.55-38.55s38.55,17.27,38.55,38.55-17.26,38.55-38.55,38.55-38.55-17.26-38.55-38.55Z"/>
  <path d="M190.98,667.66c0-21.29,17.26-38.55,38.55-38.55s38.55,17.27,38.55,38.55-17.27,38.55-38.55,38.55-38.55-17.26-38.55-38.55Z"/>
  <path d="M115.52,667.66c0-21.29,17.26-38.55,38.55-38.55s38.55,17.27,38.55,38.55-17.26,38.55-38.55,38.55-38.55-17.26-38.55-38.55Z"/>
  <path d="M266.44,592.2c0-21.3,17.26-38.55,38.55-38.55s38.55,17.26,38.55,38.55-17.27,38.55-38.55,38.55-38.55-17.26-38.55-38.55Z"/>
  <path d="M190.98,592.2c0-21.3,17.26-38.55,38.55-38.55s38.55,17.26,38.55,38.55-17.27,38.55-38.55,38.55-38.55-17.26-38.55-38.55Z"/>
  <path d="M341.81,592.2c0-21.3,17.26-38.55,38.55-38.55s38.55,17.26,38.55,38.55-17.26,38.55-38.55,38.55-38.55-17.26-38.55-38.55Z"/>
</svg>