<?xml version="1.0" encoding="UTF-8"?>
<svg id="Layer_1" data-name="Layer 1" xmlns="http://www.w3.org/2000/svg" viewBox="0 0 1080 1080">
  <path d="M298.41,637.9c-6.93,0-12.55-5.62-12.55-12.55h0v-18.28h20.42v-17.21h-20.45v-23.62h-40.47v23.62h-12.21v17.21h12.21v24.67h0v.83c0,12.29,13.62,22.21,30.42,22.21,10.5.15,20.9-2.09,30.4-6.56v-13.11c-2.18,1.81-4.93,2.79-7.77,2.78Z"/>
  <rect x="180.18" y="589.86" width="40" height="61.23"/>
  <path d="M200.17,580.93c10.99,0,19.91-6.56,19.91-14.76s-8.92-14.67-19.91-14.67-19.95,6.56-19.95,14.67,8.94,14.76,19.91,14.76"/>
  <path d="M568.08,625.59h56.32s1.62-14.75-5.75-24.09c-7.87-10.01-23.69-15.82-41.07-15.82s-49.91,4.26-49.91,35,30.24,34.18,49.83,34.18c37.24,0,45.83-8.69,45.83-8.69v-12.53c-11.82,3.92-24.2,5.91-36.65,5.89-20.66,0-18.6-11.64-18.6-13.94ZM568.08,611.25v-2.04c-.22-5.43,4-10.01,9.44-10.23,5.43-.22,10.01,4,10.23,9.44.01.27.01.53,0,.8v2.3h-19.67v-.26Z"/>
  <path d="M480.85,587.97c-9.18,0-17.81,4.27-23.02,8.09v-38.86h-40v93.9h39.92v-29.77h0c.22-5.43,4.8-9.66,10.23-9.44,5.12.21,9.23,4.31,9.44,9.44v29.76h36.56v-35.62c0-6.43-7.54-27.51-33.12-27.51Z"/>
  <path d="M702.52,587.97c-9.18,0-17.81,4.27-23.04,8.09v-6.15h-40v61.23h39.92v-29.81h0c.22-5.43,4.8-9.66,10.23-9.44,5.12.21,9.23,4.31,9.44,9.44v29.76h36.65v-35.62c0-6.43-7.63-27.51-33.2-27.51Z"/>
  <rect x="881.97" y="589.86" width="40" height="61.23"/>
  <path d="M901.98,580.93c10.98,0,19.91-6.56,19.91-14.76s-8.94-14.67-19.91-14.67-19.93,6.56-19.93,14.67,8.94,14.76,19.93,14.76"/>
  <path d="M822.86,651.09h47.87l-43.03-99.84h-47.87l5.08,11.72-37.95,88.12h23.93l7.54-17.61h36.8l7.63,17.61ZM787.94,611.51l8.94-20.76,8.94,20.76h-17.87Z"/>
  <path d="M148.12,603.06c-2.76-6.72-8.64-11.65-15.74-13.19l27.04-38.61h-35.86l-24.28,34.68c-1.86,2.47-4.78,3.92-7.87,3.93-.71.04-1.43.04-2.14,0v-38.61h-46.66v99.84h46.72v-34.84c1.96-.98,4.12-1.48,6.31-1.47,5.96,0,11.33,3.59,13.62,9.1l11.72,27.21h47.91l-20.77-48.03Z"/>
  <path d="M380.28,633.06c-13.21,0-23.94-4.1-23.94-12.87s10.73-12.79,23.94-12.79c7.87,0,14.83,1.49,19.17,4.52v-17.71c-8.84-5.73-21.05-8.52-34.5-8.52-26.81,0-48.57,11.06-48.57,34.58s21.81,34.6,48.57,34.6c13.44,0,25.66-2.78,34.5-8.52v-17.81c-4.34,3.04-11.3,4.52-19.17,4.52Z"/>
  <path d="M997.38,556.98v34.52c-6.82-3.89-14.52-5.95-22.37-5.99-23.12,0-39.92,10.59-39.92,32.88s16.8,32.86,39.92,32.86c7.85-.04,15.55-2.1,22.37-5.97v5.65h40v-93.9l-40-.05ZM986.47,630.11c-6.47,0-11.72-5.25-11.72-11.72s5.25-11.72,11.72-11.72c4.09.07,7.99,1.71,10.9,4.58v14.34c-2.89,2.89-6.81,4.52-10.9,4.52h0Z"/>
</svg>