<?xml version="1.0" encoding="UTF-8"?>
<svg id="Layer_1" data-name="Layer 1" xmlns="http://www.w3.org/2000/svg" viewBox="0 0 1080 1080">
  <g>
    <path d="M765.5,575.8v-2.41l126,88.8h-124.5c-.83,0-1.5-.67-1.5-1.5v-84.89Z"/>
    <path d="M891.5,534.36c.16,1.33-.43,1.64-1.26,2.29-16.99,13.2-39.29,31.23-57.13,42.26-12.4,7.67-22.85,11.94-36.81,4.31-4.15-2.26-25.18-17.09-28.14-20.05-.73-.73-2.66-2.5-2.66-3.33v-24.08c0-.77.62-1.39,1.39-1.39h124.61Z"/>
    <path d="M893.5,649.21l-19.25-12.02c-11.89-8.82-37.77-22.1-37.81-36.42-.02-4.94,7.28-12.91,11.05-16,17.96-14.7,28.34-21.56,46.01-35.44v99.88Z"/>
  </g>
  <g>
    <path d="M201,657.2c6.91,0,10.23-10.11,12.25-15.73,21.64-60.22,39.8-119.93,59.8-179.97.9-2.69,2.18-6.11,3.36-8.59.71-1.49-.35-1.86,2.59-1.45l71.49,205.27c2.99.44,14.92,1.76,15.88-1.16l-.86-36.31,3.52.97c2.1,11.88,6.69,24.85,16.56,32.4,15.86,12.12,43.27,10.94,50.83-9.98,4.93-13.63.54-27.32-13.71-32.09-20.11-6.72-48.37,2.24-53.95-27.01-6.37-33.38,19.8-57.4,52.12-44.07,2.52,1.04,9.73,5.78,11.2,5.91,3.25.28,3.97-3.81,7.42-3.03-.31,9.92-.5,18.32-.01,29.96-4.55-.92-2.32-3.19-3.22-6.24-6.16-21.04-23.97-32.07-45.63-24.09-13.34,4.92-19.82,24.32-9.79,34.97,15.4,16.36,56.03-2.01,66.58,27.88,12.57,35.62-19.12,71.1-55.83,56.76-6.23-2.44-11.13-7.7-17.67-9.35-3.96.12-4.43,9.54-8.84,9.54l-76.59-1.49v-3.08h27.5l1.35-2.32-20.49-59.7c-1.53-.72-3.16-.83-4.82-.95-13.83-1-39.53-1.34-53.1-.02-3.3.32-4.61.6-6.17,3.83-6.85,22.25-9.32,30.02-14.03,43.91-1.1,3.24-2.1,8.92.24,11.26,2.63,2.63,6.61,3.98,7.02,3.98h19.5v4h-59v-4h14.5ZM236.5,590.29h58l-29.51-87.9-28.49,87.9Z"/>
    <g>
      <path d="M533.5,542.35v4.99h-38.95v5.44c0,36.54-.05,56.79-.05,96.93.57,11.62,14.69,12.63,23.24,9.23,8.15-3.25,14.06-12.77,15.73-17.28-15.21-25.48-14.62-56.92,2.62-81.25,24.55-34.63,65.71-30.05,85.59,6.23,2.34,4.27,5.92,10.55,5.92,22.24h-78.09v38.85c0,1.22,2,10.74,2.5,12.48,4.6,16.04,14.8,21.5,30.99,20.96,17.5-.57,33.05-11.05,39.97-26.99.93-2.13,6.02-14.46,7.53-12.94,1.73,1.73-1.76,10.12-3.81,14.66-10.87,24.07-37.53,35.27-62.41,28-10.25-2.99-21.41-9.69-27.3-18.74-2.62,1.9-4.8,5.39-6.98,8.04-2.68,3.26-11.35,9.73-15.27,10.71-7.83,1.97-17.52,1.63-25.46-.01-8.72-1.81-18.04-9.86-18.78-19.19v-97.38s-25,0-25,0v-5c17.92.56,32.54-4.02,40.17-21.3,2.47-5.59,4.73-12.62,4.83-18.65l3.05.44.94,2.05-.81,35.2.03,2.25h39.78ZM600.5,585.29c0-27.07-2.47-43.88-26.93-43.88-13.22,0-23.96,14.14-23.96,30.5,0,3.84-.57,10.09-.57,13.38h51.47Z"/>
      <path d="M670.5,567.31l10.02-15.45c8.56-10.83,24.45-19.66,37.87-12.91,13.26,6.68,11.86,28.44-4.4,28.44-14.25,0-16.35-17.34-6.5-24.54-6.31-4.81-16.87,2.79-21.32,7.61-10.42,11.27-16.52,25.37-16.52,40.63,0,21.58.79,43.98.79,63.67l.06,3.44h24.49v4h-72v-4h21l1.5-1.5v-109.36h-22.5v-4h32c.52,0,8.77-2.5,10.05-2.95,1.95-.69,3.52-2.33,5.45-3.05v29.96Z"/>
    </g>
  </g>
</svg>