<svg xmlns="http://www.w3.org/2000/svg"  viewBox="0 0 50 50" width="50px" height="50px"><path d="M 24.142578 0 C 22.979203 0 22.110301 0.96696313 22.044922 2.109375 C 19.704565 2.4092445 17.90287 3.6954382 16.791016 5.3632812 C 15.618766 7.1217214 15.132206 9.1928815 15.060547 11.039062 C 14.903751 11.084212 14.780267 11.099792 14.505859 11.255859 C 14.090403 11.49215 13.652193 11.940076 13.390625 12.5625 C 13.129057 13.184924 13 13.965988 13 15.03125 L 13 15.8125 L 13.757812 16.001953 C 13.757812 16.001953 14.126499 16.083719 14.720703 16.195312 C 13.909834 18.709953 13.405433 21.218975 12.949219 23.296875 C 12.42907 25.665973 11.785773 27.45491 11.337891 27.851562 A 1.0001 1.0001 0 0 0 11 28.599609 C 11 29.416276 11.54851 30.073165 12.142578 30.462891 C 12.736646 30.852616 13.446217 31.10701 14.263672 31.328125 C 15.632445 31.698367 17.38736 31.917502 19.134766 32.136719 C 19.127766 32.203039 19.131564 32.226979 19.121094 32.308594 C 18.815284 33.062103 18.048412 33.694625 16.810547 34.300781 C 15.540546 34.922674 13.88202 35.478268 12.207031 36.193359 C 10.532043 36.908451 8.8229958 37.788584 7.4628906 39.167969 C 6.1027855 40.547354 5.1389459 42.452045 5.0019531 44.945312 A 1.0001 1.0001 0 0 0 6 46 L 21.814453 46 C 22.854617 47.79161 24.788783 49 27 49 L 44.667969 49 L 45 49 L 45 48.982422 C 47.779158 48.808663 50 46.489036 50 43.667969 L 50 25 A 1.0001 1.0001 0 0 0 49 24 L 37.339844 24 C 36.772625 21.807101 36.217061 19.053096 35.28125 16.195312 C 35.875402 16.083562 36.244141 16.001953 36.244141 16.001953 L 37 15.8125 L 37 15.03125 C 37 13.957532 36.870924 13.173625 36.609375 12.548828 C 36.347826 11.924031 35.907763 11.472981 35.488281 11.238281 C 35.215024 11.085394 35.095859 11.073018 34.9375 11.029297 C 34.862929 9.1811805 34.368062 7.1131066 33.193359 5.359375 C 32.078169 3.6944895 30.280232 2.4122544 27.955078 2.1113281 C 27.890571 0.96803556 27.021493 2.9605947e-16 25.857422 0 L 24.142578 0 z M 24.142578 2 L 25.857422 2 C 25.873561 2 26 2.0687333 26 2.2246094 L 26 2.8164062 A 1.0001 1.0001 0 0 0 26 3.1425781 L 26 9 A 1.0001 1.0001 0 1 0 28 9 L 28 4.2402344 C 29.532138 4.5301165 30.724458 5.2681846 31.53125 6.4726562 C 32.521492 7.9510036 33 9.9197626 33 11.484375 C 33 11.782223 33.128202 12.175258 33.359375 12.419922 C 33.590548 12.664586 33.824386 12.751512 33.982422 12.806641 C 34.298495 12.916897 34.431201 12.939325 34.511719 12.984375 C 34.592239 13.029425 34.652174 13.049296 34.765625 13.320312 C 34.824815 13.461716 34.843495 13.912593 34.888672 14.212891 C 33.894227 14.428271 30.840177 15.03125 25.005859 15.03125 C 19.173311 15.03125 16.111383 14.428526 15.113281 14.212891 C 15.158191 13.920145 15.175761 13.477364 15.234375 13.337891 C 15.347807 13.067971 15.409597 13.042225 15.494141 12.994141 C 15.578681 12.946051 15.713955 12.921501 16.029297 12.806641 C 16.186968 12.749211 16.419632 12.660003 16.646484 12.416016 C 16.873336 12.172028 17 11.782223 17 11.484375 C 17 9.917536 17.470409 7.9497148 18.455078 6.4726562 C 19.258645 5.2672611 20.452288 4.5267603 22 4.2382812 L 22 9 A 1.0001 1.0001 0 1 0 24 9 L 24 3.1523438 A 1.0001 1.0001 0 0 0 24 2.8261719 L 24 2.2246094 C 24 2.0687333 24.128414 2 24.142578 2 z M 16.714844 16.515625 C 18.639339 16.773172 21.45221 17.03125 25.005859 17.03125 C 28.556438 17.03125 31.365184 16.772949 33.287109 16.515625 C 34.166223 19.128608 34.697008 21.716552 35.269531 24 L 29 24 A 1.0001 1.0001 0 0 0 28 25 L 28 43 L 22.101562 43 A 1.0001 1.0001 0 0 0 21.101562 44 L 7.2363281 44 C 7.5114044 42.574197 8.037217 41.433809 8.8867188 40.572266 C 9.9516135 39.492276 11.417175 38.703659 12.992188 38.03125 C 14.567198 37.358841 16.234454 36.808185 17.689453 36.095703 C 19.144452 35.383221 20.475299 34.467458 21.037109 32.947266 A 1.0001 1.0001 0 0 0 21.089844 32.742188 C 21.195501 32.002589 21.199219 31.600781 21.199219 31.300781 A 1.0001 1.0001 0 0 0 20.318359 30.306641 C 18.22798 30.057786 16.200247 29.779255 14.785156 29.396484 C 14.077611 29.205099 13.525463 28.979415 13.238281 28.791016 C 13.045107 28.664288 13.084597 28.676155 13.078125 28.662109 C 14.007648 27.443324 14.449807 25.787714 14.902344 23.726562 C 15.386347 21.522092 15.897226 18.970456 16.714844 16.515625 z M 30 26 L 48 26 L 48 43.667969 C 48 45.463245 46.607699 46.896391 44.835938 46.984375 C 43.246831 46.898632 42 45.612177 42 44 A 1.0001 1.0001 0 0 0 41 43 L 30 43 L 30 26 z M 39 28 L 32 32 L 32 41 L 46 41 L 46 32 L 39 28 z M 39 30.300781 L 44 33.199219 L 44 35 L 42 35 L 42 37 L 44 37 L 44 39 L 34 39 L 34 37 L 36 37 L 36 35 L 34 35 L 34 33.199219 L 39 30.300781 z M 38 35 L 38 37 L 40 37 L 40 35 L 38 35 z M 23.798828 45 L 40.203125 45 C 40.361496 45.745603 40.65757 46.416002 41.109375 47 L 27 47 C 25.565334 47 24.504011 46.123949 23.798828 45 z"/></svg>