<svg xmlns="http://www.w3.org/2000/svg"  viewBox="0 0 50 50" width="50px" height="50px"><path d="M 17 4 C 13.699219 4 11 6.699219 11 10 C 11 11.988281 11.980469 13.75 13.476563 14.84375 C 12.003906 15.578125 10.777344 16.738281 9.992188 18.179688 C 9.511719 18.066406 9.011719 18 8.5 18 C 4.921875 18 2 20.921875 2 24.5 C 2 26.765625 3.171875 28.761719 4.9375 29.925781 C 2.039063 31.257813 0 34.144531 0 37.488281 L 0 41.625 C 0 41.941406 0.152344 42.242188 0.40625 42.429688 C 0.40625 42.429688 1.082031 42.898438 2.359375 43.269531 C 3.636719 43.644531 5.605469 44 8.5 44 C 11.394531 44 13.363281 43.644531 14.640625 43.269531 C 14.777344 43.230469 14.878906 43.1875 15 43.144531 L 15 43.390625 C 15 43.714844 15.15625 44.019531 15.421875 44.207031 C 15.675781 44.390625 18.128906 46 25 46 C 26.628906 46 28.101563 45.898438 29.449219 45.71875 C 29.121094 45.113281 28.851563 44.472656 28.628906 43.8125 C 27.523438 43.933594 26.3125 44 25 44 C 20.289063 44 17.890625 43.191406 17 42.792969 L 17 41.65625 C 17 41.644531 17 41.632813 17 41.621094 L 17 38.570313 C 17 34.394531 20.589844 31 25 31 C 26.984375 31 28.863281 31.71875 30.308594 32.941406 C 30.703125 32.40625 31.132813 31.894531 31.609375 31.429688 C 30.804688 30.75 29.894531 30.203125 28.917969 29.796875 C 30.773438 28.535156 32 26.40625 32 24 C 32 21.445313 30.613281 19.207031 28.554688 17.984375 C 29.652344 16.769531 31.226563 16 33 16 C 35.203125 16 37.109375 17.183594 38.15625 18.9375 C 36.269531 20.078125 35 22.140625 35 24.5 C 35 26.027344 35.535156 27.433594 36.421875 28.546875 C 37.179688 28.308594 37.96875 28.144531 38.78125 28.0625 C 37.707031 27.238281 37 25.957031 37 24.5 C 37 22.019531 39.019531 20 41.5 20 C 43.980469 20 46 22.019531 46 24.5 C 46 26.265625 44.96875 27.78125 43.484375 28.515625 C 44.261719 28.753906 45.007813 29.0625 45.710938 29.441406 C 47.109375 28.25 48 26.476563 48 24.5 C 48 20.914063 45.085938 18 41.5 18 C 40.984375 18 40.488281 18.066406 40.007813 18.179688 C 39.199219 16.699219 37.949219 15.496094 36.421875 14.769531 C 37.863281 13.671875 38.800781 11.941406 38.800781 10 C 38.800781 6.699219 36.101563 4 32.800781 4 C 29.5 4 26.800781 6.699219 26.800781 10 C 26.800781 12.019531 27.808594 13.808594 29.347656 14.894531 C 28.273438 15.449219 27.34375 16.238281 26.621094 17.199219 C 26.097656 17.074219 25.558594 17 25 17 C 24.441406 17 23.902344 17.074219 23.378906 17.199219 C 22.628906 16.203125 21.65625 15.394531 20.53125 14.839844 C 22.023438 13.742188 23 11.984375 23 10 C 23 6.699219 20.300781 4 17 4 Z M 17 6 C 19.222656 6 21 7.777344 21 10 C 21 12.222656 19.222656 14 17 14 C 14.777344 14 13 12.222656 13 10 C 13 7.777344 14.777344 6 17 6 Z M 32.800781 6 C 35.023438 6 36.800781 7.777344 36.800781 10 C 36.800781 12.222656 35.023438 14 32.800781 14 C 30.578125 14 28.800781 12.222656 28.800781 10 C 28.800781 7.777344 30.578125 6 32.800781 6 Z M 17 16 C 18.769531 16 20.347656 16.769531 21.445313 17.984375 C 19.386719 19.207031 18 21.445313 18 24 C 18 26.394531 19.214844 28.515625 21.0625 29.777344 C 18.992188 30.628906 17.277344 32.128906 16.207031 34.011719 C 15.359375 32.214844 13.882813 30.761719 12.0625 29.925781 C 13.828125 28.761719 15 26.765625 15 24.5 C 15 22.144531 13.730469 20.078125 11.84375 18.9375 C 12.886719 17.183594 14.796875 16 17 16 Z M 25 19 C 27.773438 19 30 21.226563 30 24 C 30 26.773438 27.773438 29 25 29 C 22.226563 29 20 26.773438 20 24 C 20 21.226563 22.226563 19 25 19 Z M 8.5 20 C 10.996094 20 13 22.003906 13 24.5 C 13 26.996094 10.996094 29 8.5 29 C 6.003906 29 4 26.996094 4 24.5 C 4 22.003906 6.003906 20 8.5 20 Z M 40 30 C 34.488281 30 30 34.488281 30 40 C 30 45.511719 34.488281 50 40 50 C 45.511719 50 50 45.511719 50 40 C 50 34.488281 45.511719 30 40 30 Z M 8.5 31.140625 C 12.089844 31.140625 15 34.007813 15 37.488281 L 15 40.980469 C 14.851563 41.066406 14.820313 41.132813 14.078125 41.351563 C 13.011719 41.664063 11.230469 42 8.5 42 C 5.769531 42 3.988281 41.664063 2.921875 41.351563 C 2.179688 41.132813 2.148438 41.066406 2 40.980469 L 2 37.488281 C 2 34.007813 4.910156 31.140625 8.5 31.140625 Z M 40 32 C 44.429688 32 48 35.570313 48 40 C 48 44.429688 44.429688 48 40 48 C 35.570313 48 32 44.429688 32 40 C 32 35.570313 35.570313 32 40 32 Z M 44.238281 35.347656 L 38.847656 41.640625 L 35.597656 39.199219 L 34.402344 40.800781 L 39.152344 44.359375 L 45.761719 36.652344 Z"/></svg>