<?xml version="1.0"?><svg xmlns="http://www.w3.org/2000/svg"  viewBox="0 0 50 50" width="50px" height="50px">    <path d="M 13 2 C 12.448 2 12 2.448 12 3 L 12 7.5722656 L 6 11 L 6 12 L 12 10.285156 L 12 14 L 10 16 L 10 17 L 13 16 L 16 17 L 16 16 L 14 14 L 14 10.285156 L 20 12 L 20 11 L 14 7.5722656 L 14 3 C 14 2.448 13.552 2 13 2 z M 25 2 C 21.807 2 18.766 2.6578438 16 3.8398438 L 16 6.0390625 C 18.73 4.7370625 21.779 4 25 4 C 27.45406 4 29.809054 4.4260992 32 5.203125 L 32 6 A 1.0001 1.0001 0 0 0 31.683594 6.0507812 L 28.683594 7.0507812 A 1.0001 1.0001 0 0 0 28.072266 7.6289062 L 26.072266 12.628906 A 1.0001 1.0001 0 0 0 26.628906 13.927734 L 29.863281 15.222656 L 28.445312 16.167969 A 1.0001 1.0001 0 0 0 28.029297 16.757812 L 27.162109 20.224609 L 24.683594 21.050781 A 1.0001 1.0001 0 0 0 24.292969 22.707031 L 25.292969 23.707031 A 1.0001 1.0001 0 0 0 26.447266 23.894531 L 28.447266 22.894531 A 1.0001 1.0001 0 0 0 28.707031 22.707031 L 29.707031 21.707031 L 31.197266 20.216797 L 34.552734 21.894531 A 1.0001 1.0001 0 0 0 36 21 L 36 18.617188 L 36.722656 18.255859 L 39.660156 21.925781 L 37.585938 24 L 32 24 A 1.0001 1.0001 0 0 0 31.375 24.21875 L 26.375 28.21875 A 1.0001 1.0001 0 0 0 26 29 L 26 33 A 1.0001 1.0001 0 0 0 26.292969 33.707031 L 29.292969 36.707031 A 1.0001 1.0001 0 0 0 30 37 L 33 37 A 1.0001 1.0001 0 0 0 33.707031 36.707031 L 35.414062 35 L 37.279297 35 L 38.050781 37.316406 A 1.0001 1.0001 0 0 0 38.445312 37.832031 L 40.46875 39.181641 C 38.924948 40.862991 37.111772 42.292905 35.097656 43.402344 C 35.891656 43.646344 36.670063 43.827922 37.414062 43.919922 C 37.621063 43.945922 37.807859 43.942078 38.005859 43.955078 C 44.035859 39.805078 48 32.858 48 25 C 48 12.318 37.682 2 25 2 z M 34 6.0546875 C 40.251451 9.0369505 44.813982 15.001633 45.796875 22.111328 L 42.513672 20.142578 A 1.0001 1.0001 0 0 0 42.041016 20 A 1.0001 1.0001 0 0 0 41.292969 20.292969 L 41.083984 20.501953 L 38.339844 17.074219 L 39.619141 15.794922 A 1.0001 1.0001 0 0 0 39.990234 14.791016 A 1.0001 1.0001 0 0 0 39.990234 14.787109 A 1.0001 1.0001 0 0 0 39.964844 14.693359 A 1.0001 1.0001 0 0 0 39.947266 14.640625 A 1.0001 1.0001 0 0 0 39.931641 14.599609 A 1.0001 1.0001 0 0 0 39.929688 14.597656 A 1.0001 1.0001 0 0 0 39.886719 14.509766 A 1.0001 1.0001 0 0 0 39.884766 14.507812 A 1.0001 1.0001 0 0 0 38.980469 13.990234 A 1.0001 1.0001 0 0 0 38.869141 14 L 37 14 A 1.0001 1.0001 0 0 0 36 15 L 36 16.382812 L 34.552734 17.105469 A 1.0001 1.0001 0 0 0 34 18 L 34 19.382812 L 31.447266 18.105469 A 1.0001 1.0001 0 0 0 30.292969 18.292969 L 29.513672 19.072266 L 29.876953 17.617188 L 32.359375 15.962891 A 1.0001 1.0001 0 0 0 33.037109 15.052734 L 33.949219 12.316406 A 1.0001 1.0001 0 0 0 33.707031 11.292969 L 32.707031 10.292969 A 1.0001 1.0001 0 0 0 31.990234 9.9902344 A 1.0001 1.0001 0 0 0 31.292969 11.707031 L 31.855469 12.269531 L 31.386719 13.677734 L 28.298828 12.443359 L 29.755859 8.8027344 L 31.730469 8.1445312 L 32.292969 8.7070312 A 1.0001 1.0001 0 0 0 34 8 L 34 6.0546875 z M 7.3554688 13.693359 L 4.5644531 14.490234 C 2.9344531 17.643234 2 21.212 2 25 C 2 37.682 12.318 48 25 48 C 26.512 48 27.988922 47.849312 29.419922 47.570312 C 28.438922 47.084313 27.463906 46.535828 26.503906 45.923828 C 26.005906 45.958828 25.507 46 25 46 C 21.381874 46 17.974953 45.078704 15 43.460938 L 15 40.162109 L 15.949219 37.316406 A 1.0001 1.0001 0 0 0 15.894531 36.552734 L 13.894531 32.552734 A 1.0001 1.0001 0 0 0 13 32 L 10.162109 32 L 7.3164062 31.050781 A 1.0001 1.0001 0 0 0 7 31 L 4.8769531 31 C 4.6152818 30.123943 4.4077281 29.224266 4.2617188 28.304688 L 7.5996094 25.800781 A 1.0001 1.0001 0 0 0 7.9707031 25.242188 L 8.9707031 21.242188 A 1.0001 1.0001 0 0 0 8.8007812 20.400391 L 5.8515625 16.46875 C 6.2876505 15.504703 6.7865971 14.575691 7.3554688 13.693359 z M 22.990234 13.990234 A 1.0001 1.0001 0 0 0 22.292969 15.707031 L 23.3125 16.726562 L 22.552734 17.105469 A 1.0001163 1.0001163 0 1 0 23.447266 18.894531 L 25.447266 17.894531 A 1.0001 1.0001 0 0 0 25.707031 16.292969 L 23.707031 14.292969 A 1.0001 1.0001 0 0 0 22.990234 13.990234 z M 13 18.107422 L 12.007812 18.439453 C 12.062812 24.177453 14.666938 30.770281 19.210938 36.613281 C 23.960938 42.719281 30.913828 47.144672 36.923828 47.888672 C 37.496828 47.959672 38.052844 47.994141 38.589844 47.994141 C 40.726844 47.994141 42.559172 47.435656 43.951172 46.347656 C 46.382172 44.447656 47.380094 41.166453 46.871094 37.064453 C 46.303094 38.089453 45.662078 39.071766 44.955078 40.009766 C 44.783078 42.087766 44.044703 43.738438 42.720703 44.773438 C 41.406703 45.801437 39.486922 46.193297 37.169922 45.904297 C 31.743922 45.232297 25.160062 41.006719 20.789062 35.386719 C 16.578062 29.972719 14.070813 23.677359 14.007812 18.443359 L 13 18.107422 z M 5.0039062 18.671875 L 6.9140625 21.21875 L 6.1152344 24.412109 L 4.0253906 25.980469 C 4.0103405 25.655024 4 25.329101 4 25 C 4 22.789961 4.3604628 20.668162 5.0039062 18.671875 z M 42.154297 22.259766 L 45.988281 24.558594 C 45.99135 24.706035 46 24.851837 46 25 C 46 29.741832 44.41139 34.113168 41.75 37.630859 L 39.839844 36.357422 L 38.949219 33.683594 A 1.0001 1.0001 0 0 0 38 33 L 35 33 A 1.0001 1.0001 0 0 0 34.292969 33.292969 L 32.585938 35 L 30.414062 35 L 28 32.585938 L 28 29.480469 L 32.351562 26 L 38 26 A 1.0001 1.0001 0 0 0 38.707031 25.707031 L 41.648438 22.763672 A 1.0004882 1.0004882 0 0 0 41.683594 22.730469 L 41.720703 22.695312 A 1.0004882 1.0004882 0 0 0 41.734375 22.679688 L 42.154297 22.259766 z M 5.5859375 33 L 6.8378906 33 L 9.6835938 33.949219 A 1.0001 1.0001 0 0 0 10 34 L 12.382812 34 L 13.919922 37.076172 L 13.050781 39.683594 A 1.0001 1.0001 0 0 0 13 40 L 13 42.208984 C 9.7285266 39.920963 7.1306832 36.734743 5.5859375 33 z"/></svg>