<?xml version="1.0" encoding="UTF-8"?>
<svg id="Layer_1" data-name="Layer 1" xmlns="http://www.w3.org/2000/svg" viewBox="0 0 1080 1080">
  <path d="M839.15,494.62c4.33,0,7.88,3.56,7.88,7.92v157.04c.26,6.86-3.81,13.33-10.51,15.83-8.54,3.3-17.6-.66-21.27-9.5l-42.68-110.59v113.89c0,4.35-3.55,7.92-7.88,7.92s-7.88-3.56-7.88-7.92v-157.18c-.26-6.86,3.81-13.33,10.51-15.84,8.4-3.3,17.86.92,21.14,9.5l42.81,111.38v-114.55c0-4.35,3.55-7.92,7.88-7.92ZM290.59,495.68c26.13,0,43.08,11.88,43.08,39.33v12.01c0,9.77-8.01,17.82-17.73,17.82s-17.47-7.92-17.47-17.82v-29.43c0-4.22-3.41-7.26-7.62-7.26s-7.35,3.04-7.35,7.26v135.67c0,4.22,3.68,7.26,7.75,7.26s7.62-3.03,7.62-7.26v-30.88c0-9.77,7.75-17.82,17.47-17.82s17.73,7.92,17.73,17.82v14.78c0,27.45-16.94,39.33-43.08,39.33s-43.08-11.88-43.08-39.33v-102.14c0-27.45,16.55-39.33,42.68-39.33ZM573.21,495.68c26.13,0,43.21,11.88,43.21,39.33v102.14c0,27.45-16.68,39.33-42.81,39.33s-43.07-11.88-43.07-39.33v-102.14c0-27.45,16.55-39.33,42.68-39.33ZM188.42,495.68c25.74,0,42.6,11.64,42.94,38.51v.82s0,12.01,0,12.01c0,9.9-7.88,17.82-17.73,17.82s-17.31-7.89-17.46-17.52v-.3s0-29.43,0-29.43c0-4.22-3.41-7.26-7.62-7.26s-7.49,2.93-7.61,7.03v.22s0,25.6,0,25.6c.13,16.07,1.42,16.49,15.46,26.36l.43.3,21.54,14.12c7.26,4.95,12.48,11.83,12.61,24.21v.47s0,28.37,0,28.37c0,27.45-16.28,39.33-42.29,39.33s-42.6-13.71-42.94-40.62v-.82s0-12.01,0-12.01c0-9.9,7.88-17.81,17.73-17.81s17.31,7.89,17.46,17.52v.3s0,30.09,0,30.09c0,4.22,3.55,7.12,7.75,7.12s7.37-2.8,7.48-6.9v-.22s0-35.9,0-35.9c0-5.18-1.9-7.7-7.44-11.28l-.31-.2-27.05-19.53c-11.03-7.31-14.37-15.26-14.44-26.27v-.39s0-24.41,0-24.41c0-27.45,15.37-39.33,41.5-39.33ZM654.24,495.28c9.49,0,17.43,6.85,17.6,15.3v148.74h16.55c4.6,0,8.41,3.82,8.41,8.44s-3.68,8.32-8.17,8.44h-.23s-33.75,0-33.75,0c-8.32,0-17.54-4.78-17.86-15.76v-.34s0-149.26,0-149.26c0-8.58,7.88-15.57,17.47-15.57ZM720.43,495.28c9.59,0,17.86,6.99,17.86,15.57v149.26c-.13,11.22-9.46,16.1-17.86,16.1s-17.73-4.89-17.86-16.1c-.03-1.5-.04-8.54-.05-18.81v-.89c0-.45,0-.9,0-1.36v-6.28s0-.25,0-.25v-31.29c0-4.14,0-8.35,0-12.57v-4.43c.01-27.56.03-54.86.04-66.93v-2.61c0-.11,0-.22,0-.32v-3.51c.13-8.58,8.28-15.57,17.86-15.57ZM882.75,495.28c9.59,0,17.86,6.99,17.86,15.57v1.65c0,.1,0,.2,0,.31v2.89c0,.33,0,.68,0,1.05v1.94c0,1.24,0,2.61,0,4.1v1.01c.01,13.84.03,36.97.04,60.3v2.58c0,5.16,0,10.31,0,15.36v2.51s0,.63,0,.63v26.64c0,.18,0,.35,0,.53v5.07c0,.49,0,.97,0,1.45v3.24c0,9.85-.03,16.58-.05,18.01-.13,11.22-9.46,16.1-17.86,16.1s-17.73-4.89-17.86-16.1c-.03-1.53-.04-8.82-.05-19.42v-3.33s0-.24,0-.24v-5.36s0-.27,0-.27v-28.56c0-.4,0-.8,0-1.2v-7.55c.01-31.02.04-64.03.05-77.3v-2.85s0-.29,0-.29v-2.91c.13-8.58,8.28-15.57,17.86-15.57ZM387.12,495.55c9.46,0,17.34,6.33,18.65,14.65l26.92,144.9c.26,1.06.66,3.56.66,4.75,0,9.9-8.28,16.37-18.12,16.37-8.93,0-14.97-5.94-17.6-15.18l-1.44-5.15h-36.25l-2.49,11.75c-.92,4.62-3.81,8.58-8.54,8.58s-8.54-3.83-8.54-8.58c0,0,.13-.8.79-5.15l27.32-152.29c1.31-8.31,9.19-14.65,18.65-14.65ZM513.2,495.42c4.73,0,8.54,3.83,8.54,8.58,0,0-.13.79-.79,5.15-.02.08-.04.22-.08.41l-.06.32c-.96,5.35-6.45,35.93-12.24,68.23l-.39,2.16c-.13.72-.26,1.44-.39,2.16l-.78,4.32-.19,1.04-.37,2.07c-6.01,33.5-11.8,65.81-12.71,70.89l-.09.52c-.02.11-.03.17-.03.17-1.31,8.31-9.2,14.65-18.65,14.65s-17.02-6.19-18.6-14.36l-.05-.29-27.05-144.9c-.26-1.06-.66-3.69-.66-4.75,0-9.9,8.27-16.36,18.12-16.36,8.82,0,14.82,5.79,17.49,14.82l.1.35,19.96,111.38,20.36-117.98c.92-4.62,3.81-8.58,8.54-8.58ZM573.34,510.2c-4.2,0-7.35,3.04-7.35,7.26v135.8c0,4.22,3.68,7.26,7.75,7.26s7.35-3.03,7.35-7.26v-135.8h.13c0-4.22-3.68-7.26-7.88-7.26ZM377.27,552.82l-15.37,88.15h31.78l-16.42-88.15ZM924.48,502.29l2.64,9.89,2.64-9.89h4.49v14.44h-2.78v-11.36l-3.04,11.5h-2.51l-3.3-11.5v11.5h-2.64v-14.57h4.49ZM918.28,502.29v2.54h-4.23v11.9h-2.91v-11.9h-4.36v-2.54h11.5Z"/>
</svg>