<svg xmlns="http://www.w3.org/2000/svg"  viewBox="0 0 50 50" width="50px" height="50px"><path d="M 2.800781 8 C 1.265625 8 0 9.265625 0 10.800781 L 0 37 C 0 38.644531 1.355469 40 3 40 L 7.09375 40 C 7.570313 42.828125 10.039063 45 13 45 C 15.960938 45 18.429688 42.828125 18.90625 40 L 34.09375 40 C 34.570313 42.828125 37.039063 45 40 45 C 42.960938 45 45.429688 42.828125 45.90625 40 L 47 40 C 47.832031 40 48.550781 39.613281 49.082031 39.082031 C 49.613281 38.550781 50 37.832031 50 37 L 50 27.402344 C 50 26.277344 49.582031 25.253906 49.199219 24.46875 C 48.8125 23.6875 48.421875 23.125 48.421875 23.125 L 48.410156 23.113281 L 44.292969 17.589844 L 44.28125 17.578125 C 43.394531 16.46875 41.972656 15 40 15 L 32 15 C 31.640625 15 31.308594 15.082031 31 15.207031 L 31 10.902344 C 31 9.300781 29.699219 8 28.097656 8 Z M 2.800781 10 L 28.097656 10 C 28.5 10 29 10.5 29 10.902344 L 29 38 L 18.90625 38 C 18.429688 35.171875 15.960938 33 13 33 C 10.039063 33 7.570313 35.171875 7.09375 38 L 3 38 C 2.445313 38 2 37.554688 2 37 L 2 10.800781 C 2 10.335938 2.335938 10 2.800781 10 Z M 15 12 C 9.5 12 5 16.5 5 22 C 5 27.5 9.5 32 15 32 C 20.5 32 25 27.5 25 22 C 25 16.5 20.5 12 15 12 Z M 15 14 C 19.398438 14 23 17.601563 23 22 C 23 26.398438 19.398438 30 15 30 C 10.601563 30 7 26.398438 7 22 C 7 17.601563 10.601563 14 15 14 Z M 14 16 L 14 21.5 L 10.402344 24.199219 L 11.597656 25.800781 L 16 22.5 L 16 16 Z M 32 17 L 36 17 L 36 26 C 36 26.832031 36.386719 27.550781 36.917969 28.082031 C 37.449219 28.613281 38.167969 29 39 29 L 48 29 L 48 37 C 48 37.167969 47.886719 37.449219 47.667969 37.667969 C 47.449219 37.886719 47.167969 38 47 38 L 45.90625 38 C 45.429688 35.171875 42.960938 33 40 33 C 37.039063 33 34.570313 35.171875 34.09375 38 L 31 38 L 31 18 C 31 17.832031 31.113281 17.550781 31.332031 17.332031 C 31.550781 17.113281 31.832031 17 32 17 Z M 38 17 L 40 17 C 40.828125 17 42.003906 17.933594 42.71875 18.824219 L 46.78125 24.273438 C 46.78125 24.273438 47.085938 24.710938 47.402344 25.355469 C 47.65625 25.871094 47.800781 26.472656 47.882813 27 L 39 27 C 38.832031 27 38.550781 26.886719 38.332031 26.667969 C 38.113281 26.449219 38 26.167969 38 26 Z M 13 35 C 15.222656 35 17 36.777344 17 39 C 17 41.222656 15.222656 43 13 43 C 10.777344 43 9 41.222656 9 39 C 9 36.777344 10.777344 35 13 35 Z M 40 35 C 42.222656 35 44 36.777344 44 39 C 44 41.222656 42.222656 43 40 43 C 37.777344 43 36 41.222656 36 39 C 36 36.777344 37.777344 35 40 35 Z"/></svg>