<svg xmlns="http://www.w3.org/2000/svg"  viewBox="0 0 50 50" width="50px" height="50px"><path d="M 7.84375 2 C 7.546875 2.046875 7.285156 2.226563 7.132813 2.484375 C 6.980469 2.746094 6.957031 3.0625 7.0625 3.34375 L 9.59375 10.09375 C 9.234375 10.253906 9.003906 10.609375 9 11 L 9 15 C 8.996094 15.335938 9.160156 15.652344 9.4375 15.84375 L 2.5 36.0625 C 0.5 41.878906 4.851563 48 11 48 L 33 48 C 39.148438 48 43.5 41.878906 41.5 36.0625 L 34.5625 15.8125 C 34.832031 15.628906 34.996094 15.324219 35 15 L 35 13.5 L 39.0625 9.375 C 40.617188 10.699219 46 15.824219 46 24 C 45.996094 24.359375 46.183594 24.695313 46.496094 24.878906 C 46.808594 25.058594 47.191406 25.058594 47.503906 24.878906 C 47.816406 24.695313 48.003906 24.359375 48 24 C 48 13.457031 39.59375 7.1875 39.59375 7.1875 C 39.378906 7.027344 39.109375 6.960938 38.84375 7 C 38.625 7.039063 38.429688 7.148438 38.28125 7.3125 L 34.9375 10.6875 C 34.804688 10.28125 34.425781 10.003906 34 10 L 34 6 C 33.996094 5.535156 33.671875 5.132813 33.21875 5.03125 C 33.21875 5.03125 22.972656 2.753906 8.0625 2 C 7.988281 1.992188 7.917969 1.992188 7.84375 2 Z M 9.5 4.125 C 22.515625 4.898438 30.980469 6.625 32 6.84375 L 32 10 L 11.6875 10 Z M 11 12 L 33 12 L 33 12.90625 C 32.984375 13.011719 32.984375 13.113281 33 13.21875 L 33 14 L 11 14 Z M 11.5 16 L 32.5 16 L 35.9375 26 L 8.0625 26 Z M 7.375 28 L 36.625 28 L 39.625 36.71875 C 41.195313 41.292969 37.835938 46 33 46 L 11 46 C 6.164063 46 2.804688 41.292969 4.375 36.71875 Z"/></svg>