<svg xmlns="http://www.w3.org/2000/svg"  viewBox="0 0 50 50" width="50px" height="50px"><path d="M 25 7 C 21.328125 7 18.222656 9.46875 17.25 12.84375 C 10.042969 14.332031 5.890625 17.417969 5.09375 18.0625 C 2.378906 18.425781 1 20.371094 1 22 C 1 22.460938 1.34375 22.878906 1.5625 23.03125 C 1.78125 23.183594 1.941406 23.21875 2.09375 23.28125 C 2.394531 23.40625 2.652344 23.53125 2.90625 23.71875 C 3.410156 24.089844 4 24.75 4 27 L 4 29.15625 L 1.375 28.0625 C 1.199219 27.988281 1.003906 27.964844 0.8125 28 C 0.351563 28.0625 -0.00390625 28.433594 -0.046875 28.894531 C -0.09375 29.355469 0.1875 29.789063 0.625 29.9375 L 4 31.34375 L 4 39 C 4 41.492188 5.3125 44.1875 7.4375 46.3125 C 9.5625 48.4375 12.566406 50 16 50 L 34 50 C 37.433594 50 40.4375 48.4375 42.5625 46.3125 C 44.6875 44.1875 46 41.492188 46 39 L 46 31.3125 L 49.375 29.9375 C 49.910156 29.800781 50.230469 29.253906 50.09375 28.71875 C 49.957031 28.183594 49.410156 27.863281 48.875 28 C 48.789063 28.011719 48.707031 28.03125 48.625 28.0625 L 46 29.15625 L 46 27 C 46 24.75 46.589844 24.089844 47.09375 23.71875 C 47.347656 23.53125 47.605469 23.40625 47.90625 23.28125 C 48.058594 23.21875 48.21875 23.183594 48.4375 23.03125 C 48.65625 22.878906 49 22.460938 49 22 C 49 20.371094 47.621094 18.425781 44.90625 18.0625 C 44.109375 17.417969 39.957031 14.332031 32.75 12.84375 C 31.78125 9.464844 28.675781 7 25 7 Z M 25 9 C 27.429688 9 29.496094 10.421875 30.46875 12.46875 C 28.777344 12.230469 26.96875 12.0625 25 12.0625 C 23.042969 12.0625 21.246094 12.230469 19.5625 12.46875 C 20.539063 10.433594 22.582031 9 25 9 Z M 25 14.0625 C 32.921875 14.0625 38.109375 16.320313 41.03125 18 L 8.96875 18 C 11.890625 16.320313 17.078125 14.0625 25 14.0625 Z M 6 20 L 44 20 C 46.132813 20 46.65625 20.941406 46.8125 21.625 C 46.546875 21.738281 46.265625 21.828125 45.90625 22.09375 C 44.910156 22.828125 44 24.34375 44 27 L 44 39 C 44 40.746094 42.9375 43.0625 41.125 44.875 C 39.3125 46.6875 36.820313 48 34 48 L 16 48 C 13.179688 48 10.6875 46.6875 8.875 44.875 C 7.0625 43.0625 6 40.746094 6 39 L 6 27 C 6 24.34375 5.089844 22.828125 4.09375 22.09375 C 3.734375 21.828125 3.453125 21.738281 3.1875 21.625 C 3.34375 20.941406 3.867188 20 6 20 Z"/></svg>