<svg xmlns="http://www.w3.org/2000/svg"  viewBox="0 0 50 50" width="50px" height="50px"><path d="M 24.984375 9.9863281 A 1.0001 1.0001 0 0 0 24.841797 10 L 6 10 A 1.0001 1.0001 0 0 0 5 11 L 5 39 A 1.0001 1.0001 0 0 0 6 40 L 24.832031 40 A 1.0001 1.0001 0 0 0 25.158203 40 L 31.271484 40 L 36.726562 40 L 44 40 A 1.0001 1.0001 0 0 0 45 39 L 45 24.167969 A 1.0001 1.0001 0 0 0 45 23.841797 L 45 11 A 1.0001 1.0001 0 0 0 44 10 L 25.167969 10 A 1.0001 1.0001 0 0 0 24.984375 9.9863281 z M 7 12 L 24 12 L 24 38 L 7 38 L 7 12 z M 26 12 L 43 12 L 43 23 L 37.228516 23 C 37.306353 22.758652 37.40357 22.42478 37.494141 22.126953 C 38.166925 21.949115 38.809796 21.663798 39.376953 21.357422 C 40.05821 20.989408 40.586522 20.643174 40.96875 20.267578 C 41.641085 19.606911 42 18.732346 42 17.828125 C 42 17.067419 41.838073 16.389977 41.421875 15.865234 C 41.005677 15.340492 40.359834 15.074596 39.773438 15.033203 C 39.448313 15.010357 39.153919 15.047119 38.880859 15.111328 C 38.881791 15.084862 38.885953 15.055632 38.886719 15.029297 L 38.917969 14 L 27.9375 14 L 27.966797 15.029297 C 28.046057 17.806542 29.02318 21.168545 29.619141 23 L 26 23 L 26 12 z M 30.152344 16 L 36.703125 16 C 36.551948 17.452888 36.293126 19.086475 35.886719 20.539062 C 35.493662 21.945386 35.266777 22.554296 35.109375 23 L 31.748047 23 C 31.417757 22.02799 30.4601 18.838784 30.152344 16 z M 39.632812 17.029297 C 39.811416 17.041907 39.814417 17.057615 39.855469 17.109375 C 39.89652 17.161131 40 17.354831 40 17.828125 C 40 18.131904 39.816072 18.596464 39.566406 18.841797 C 39.487636 18.919197 38.985274 19.29542 38.425781 19.597656 C 38.34259 19.642596 38.250891 19.677626 38.164062 19.720703 C 38.342667 18.984317 38.4939 18.226293 38.619141 17.46875 C 38.90257 17.140613 39.026562 16.986695 39.632812 17.029297 z M 19.984375 22.197266 A 1.0001 1.0001 0 0 0 19 23.212891 L 19 26.787109 A 1.0001 1.0001 0 1 0 21 26.787109 L 21 23.212891 A 1.0001 1.0001 0 0 0 19.984375 22.197266 z M 26 25 L 30.308594 25 L 36.539062 25 L 43 25 L 43 38 L 36.90625 38 C 36.891113 37.99635 36.889469 37.991739 36.873047 37.988281 A 1.0001 1.0001 0 0 0 36.751953 37.970703 C 36.745953 37.970203 36.698733 37.958751 36.470703 37.900391 C 36.24267 37.842029 35.935018 37.748559 35.644531 37.625 C 35.380456 37.512879 35.16372 37.375744 35 37.240234 L 35 35.25 A 1.0001 1.0001 0 0 0 34.996094 35.148438 C 37.317555 34.632618 39 32.349226 39 29.734375 C 39 29.002025 38.870579 28.298799 38.632812 27.654297 L 38.390625 27 L 29.609375 27 L 29.367188 27.654297 C 29.129562 28.298419 29 29.001218 29 29.734375 C 29 32.349926 30.683434 34.633428 33.005859 35.148438 A 1.0001 1.0001 0 0 0 33 35.25 L 33 37.238281 C 32.83621 37.37458 32.617171 37.512228 32.351562 37.625 C 32.061076 37.748559 31.753424 37.842029 31.525391 37.900391 C 31.297357 37.958751 31.252094 37.970203 31.246094 37.970703 A 1.0001 1.0001 0 0 0 31.123047 37.988281 C 31.106625 37.991739 31.104981 37.99635 31.089844 38 L 26 38 L 26 25 z M 31.128906 29 L 36.871094 29 C 36.917376 29.244342 37 29.472271 37 29.734375 C 37 31.754393 35.597864 33.257812 34 33.257812 C 32.402136 33.257812 31 31.754393 31 29.734375 C 31 29.471641 31.08264 29.244124 31.128906 29 z"/></svg>