<svg xmlns="http://www.w3.org/2000/svg"  viewBox="0 0 50 50" width="50px" height="50px"><path d="M 14.28125 2.8261719 L 13.732422 2.9980469 C 13.732422 2.9980469 13.019096 3.2333274 11.955078 3.8867188 C 10.89106 4.5401101 9.3998448 5.6363412 7.6054688 7.4296875 C 5.8112372 9.2228893 4.6953067 10.73196 4.0234375 11.810547 C 3.3515683 12.889133 3.0996094 13.607422 3.0996094 13.607422 L 2.9140625 14.160156 L 3.3007812 14.59375 C 3.3007812 14.59375 9.2472785 21.261962 13.152344 25.166016 C 15.522297 27.534869 18.073192 27.722915 19.953125 27.478516 C 20.893092 27.356316 21.695146 27.163099 22.251953 27.113281 C 22.80876 27.063461 22.973031 27.111681 23.123047 27.261719 C 23.847191 27.986895 25.73932 30.313889 27.867188 32.882812 C 29.995486 35.452258 32.410806 38.309958 34.449219 40.34375 C 38.119341 44.014258 40.400482 45.784643 42.146484 46.541016 C 43.019587 46.919246 43.806587 47.038604 44.501953 46.890625 C 45.19732 46.742646 45.709925 46.341894 46.070312 45.982422 C 46.432755 45.622215 46.836994 45.109726 46.986328 44.414062 C 47.135801 43.717754 47.014858 42.92879 46.636719 42.054688 C 45.880442 40.306481 44.110011 38.02495 40.4375 34.355469 C 38.402093 32.320062 35.541735 29.909788 32.970703 27.785156 C 30.399671 25.660525 28.070602 23.770492 27.345703 23.046875 C 27.194684 22.896212 27.150101 22.742442 27.203125 22.191406 C 27.256145 21.64037 27.455751 20.842406 27.582031 19.904297 C 27.834591 18.028078 27.643991 15.472666 25.248047 13.076172 C 22.647174 10.475299 14.707031 3.2148436 14.707031 3.2148438 L 14.28125 2.8261719 z M 44.052734 3.0019531 C 43.802797 3.0112813 43.561609 3.1141719 43.380859 3.2949219 L 29.560547 17.109375 C 29.717547 18.133375 29.685797 19.08025 29.591797 19.90625 L 43.617188 5.8847656 C 45.422187 13.289766 40.461688 19.015781 38.804688 20.675781 C 36.828688 22.648781 34.448828 23.637547 32.048828 24.435547 C 32.251828 24.602547 32.452156 24.768453 32.660156 24.939453 C 33.046156 25.257453 33.445563 25.584922 33.851562 25.919922 C 36.049563 25.109922 38.28975 24.014844 40.21875 22.089844 L 40.220703 22.089844 C 42.200703 20.106844 48.401344 12.915203 45.027344 3.6582031 C 44.910344 3.3372031 44.637687 3.0974375 44.304688 3.0234375 C 44.221438 3.0054375 44.136047 2.9988437 44.052734 3.0019531 z M 13.851562 5.1542969 C 14.542549 5.7873778 21.473742 12.131946 23.832031 14.490234 C 25.803086 16.461741 25.814049 18.045641 25.599609 19.638672 C 25.492389 20.435188 25.289366 21.205255 25.212891 22 C 25.136491 22.793972 25.235011 23.764247 25.931641 24.460938 C 26.902742 25.430321 29.138048 27.211303 31.697266 29.326172 C 34.256484 31.44104 37.093844 33.839938 39.023438 35.769531 C 42.623925 39.36705 44.263261 41.602565 44.802734 42.849609 C 45.072471 43.473131 45.070855 43.800543 45.029297 43.994141 C 44.987737 44.187738 44.890454 44.337662 44.660156 44.566406 L 44.658203 44.566406 C 44.42809 44.795934 44.279727 44.894307 44.085938 44.935547 C 43.892148 44.976787 43.564429 44.976927 42.941406 44.707031 C 41.695361 44.167241 39.460458 42.529311 35.861328 38.929688 L 35.861328 38.927734 C 33.92874 36.999527 31.526654 34.164977 29.408203 31.607422 C 27.289752 29.049867 25.505292 26.816984 24.537109 25.847656 C 23.839625 25.150172 22.872599 25.049662 22.074219 25.121094 C 21.275839 25.192524 20.497596 25.38984 19.695312 25.494141 C 18.090747 25.702741 16.505453 25.6901 14.566406 23.751953 C 10.929369 20.115858 5.7717283 14.335105 5.2539062 13.755859 C 5.3427882 13.550102 5.3415382 13.475881 5.7207031 12.867188 C 6.3100839 11.921024 7.3287629 10.533548 9.0195312 8.84375 C 10.710155 7.1540963 12.077221 6.1596555 13.001953 5.5917969 C 13.592526 5.2291381 13.655249 5.2358466 13.851562 5.1542969 z M 13.990234 8.9902344 A 1.0001 1.0001 0 0 0 13.292969 10.707031 L 20.292969 17.707031 A 1.0001 1.0001 0 1 0 21.707031 16.292969 L 14.707031 9.2929688 A 1.0001 1.0001 0 0 0 13.990234 8.9902344 z M 9.9902344 12.990234 A 1.0001 1.0001 0 0 0 9.2929688 14.707031 L 16.292969 21.707031 A 1.0001 1.0001 0 1 0 17.707031 20.292969 L 10.707031 13.292969 A 1.0001 1.0001 0 0 0 9.9902344 12.990234 z M 15.890625 29.164062 C 14.538625 30.383063 13.032469 31.805422 11.355469 33.482422 C 4.2614687 40.574422 2.7025 43.570547 4.9375 45.810547 C 5.6735 46.545547 6.4861563 47.011719 7.5351562 47.011719 C 9.5581562 47.011719 12.456703 45.275719 17.345703 40.386719 C 19.987703 37.743719 21.814203 34.902141 23.283203 32.619141 C 23.556203 32.194141 23.815406 31.797922 24.066406 31.419922 C 23.578406 30.830922 23.121469 30.280266 22.730469 29.822266 C 22.377469 30.339266 22.010562 30.902109 21.601562 31.537109 C 20.184562 33.739109 18.419688 36.480656 15.929688 38.972656 C 8.4306875 46.471656 7.0265625 45.072484 6.3515625 44.396484 C 5.8905625 43.935484 4.8115313 42.853484 12.769531 34.896484 C 14.946531 32.719484 16.827078 30.9835 18.455078 29.5625 C 17.657078 29.5485 16.792625 29.440062 15.890625 29.164062 z"/></svg>