<svg xmlns="http://www.w3.org/2000/svg"  viewBox="0 0 50 50" width="50px" height="50px"><path d="M 24.984375 4.9863281 A 1.0001 1.0001 0 0 0 24.839844 5 L 11 5 A 1.0001 1.0001 0 0 0 10 6 L 10 13.832031 A 1.0001 1.0001 0 0 0 10 14.158203 L 10 28 L 10 35.832031 A 1.0001 1.0001 0 0 0 10 36.158203 L 10 44 A 1.0001 1.0001 0 0 0 11 45 L 24.832031 45 A 1.0001 1.0001 0 0 0 25.158203 45 L 39 45 A 1.0001 1.0001 0 0 0 39.099609 44.994141 A 1.0001 1.0001 0 0 0 40 44 L 40 36.167969 A 1.0001 1.0001 0 0 0 40 35.841797 L 40 28 L 40 20.167969 A 1.0001 1.0001 0 0 0 40 19.841797 L 40 6 A 1.0001 1.0001 0 0 0 39 5 L 25.154297 5 A 1.0001 1.0001 0 0 0 24.984375 4.9863281 z M 12 7 L 24 7 L 24 13 L 12 13 L 12 7 z M 26 7 L 38 7 L 38 19 L 26 19 L 26 14.167969 A 1.0001 1.0001 0 0 0 26 13.841797 L 26 7 z M 12 15 L 24 15 L 24 19.832031 A 1.0001 1.0001 0 0 0 24 20.158203 L 24 27 L 12 27 L 12 15 z M 26 21 L 38 21 L 38 27 L 26 27 L 26 21 z M 12 29 L 16.001953 29 A 2 2 0 0 0 18 31 A 2 2 0 0 0 19.998047 29 L 24 29 L 24 35 L 12 35 L 12 29 z M 26 29 L 30.001953 29 A 2 2 0 0 0 32 31 A 2 2 0 0 0 33.998047 29 L 38 29 L 38 35 L 26 35 L 26 29 z M 12 37 L 16.001953 37 A 2 2 0 0 0 18 39 A 2 2 0 0 0 19.998047 37 L 24 37 L 24 43 L 12 43 L 12 37 z M 26 37 L 30.001953 37 A 2 2 0 0 0 32 39 A 2 2 0 0 0 33.998047 37 L 38 37 L 38 43 L 26 43 L 26 37 z"/></svg>