<svg xmlns="http://www.w3.org/2000/svg"  viewBox="0 0 50 50" width="50px" height="50px"><path d="M 24 13 C 21.800781 13 20 14.800781 20 17 C 20 17.839844 20.269531 18.605469 20.71875 19.25 C 18.015625 19.707031 15.984375 20.699219 14.5625 21.6875 C 12.613281 23.042969 11.75 24.5 11.75 24.5 C 11.707031 24.578125 11.675781 24.664063 11.65625 24.75 C 11.65625 24.761719 11.65625 24.769531 11.65625 24.78125 C 11.066406 25.6875 10.523438 26.617188 10.0625 27.59375 C 9.332031 27.335938 8.128906 27 6.53125 27 C 4.363281 27 2.703125 27.914063 1.625 29.09375 C 0.546875 30.273438 0 31.652344 0 32.875 C 0 36.195313 1.925781 38.640625 4.0625 40.21875 C 6.097656 41.722656 8.335938 42.53125 9.65625 42.9375 C 11.378906 46.164063 14.324219 48.628906 17.875 49.9375 L 18.03125 50 L 29.96875 50 L 30.125 49.9375 C 33.808594 48.578125 36.839844 45.96875 38.53125 42.5625 C 38.5625 42.554688 38.59375 42.542969 38.625 42.53125 C 43.8125 41.164063 46.019531 36.988281 47.15625 33.25 C 47.722656 31.378906 48.066406 29.597656 48.4375 28.21875 C 48.808594 26.839844 49.265625 26.011719 49.5 25.875 C 49.902344 25.652344 50.101563 25.1875 49.980469 24.742188 C 49.863281 24.300781 49.457031 23.992188 49 24 L 45.3125 24 C 44.808594 24 44.289063 24.1875 43.9375 24.5 C 43.585938 24.8125 43.371094 25.199219 43.21875 25.5625 C 42.914063 26.289063 42.785156 27.058594 42.53125 27.8125 C 42.0625 29.199219 41.441406 30.484375 39.25 31.15625 C 38.625 28.925781 37.636719 26.738281 36.34375 24.75 C 36.328125 24.722656 36.328125 24.683594 36.3125 24.65625 C 36.296875 24.601563 36.273438 24.550781 36.25 24.5 C 36.25 24.5 35.386719 23.042969 33.4375 21.6875 C 32.015625 20.699219 29.984375 19.707031 27.28125 19.25 C 27.730469 18.605469 28 17.839844 28 17 C 28 14.800781 26.199219 13 24 13 Z M 24 15 C 25.117188 15 26 15.882813 26 17 C 26 18.117188 25.117188 19 24 19 C 22.882813 19 22 18.117188 22 17 C 22 15.882813 22.882813 15 24 15 Z M 24 21 C 28.011719 21 30.632813 22.167969 32.28125 23.3125 C 32.804688 23.675781 32.671875 23.6875 33 24 L 15 24 C 15.328125 23.6875 15.195313 23.675781 15.71875 23.3125 C 17.367188 22.167969 19.988281 21 24 21 Z M 13.21875 26 L 34.78125 26 C 36.789063 29.152344 38 32.894531 38 36.15625 C 38 41.769531 34.554688 46.105469 29.5625 48 L 18.4375 48 C 13.445313 46.105469 10 41.769531 10 36.15625 C 10 32.894531 11.210938 29.152344 13.21875 26 Z M 45.25 26 C 45.265625 25.984375 45.222656 26 45.3125 26 L 47.0625 26 C 46.847656 26.527344 46.664063 27.078125 46.5 27.6875 C 46.101563 29.179688 45.746094 30.949219 45.21875 32.6875 C 44.277344 35.785156 42.859375 38.703125 39.46875 40.125 C 39.824219 38.871094 40 37.546875 40 36.15625 C 40 35.144531 39.902344 34.101563 39.71875 33.0625 C 42.585938 32.171875 43.847656 30.101563 44.40625 28.4375 C 44.707031 27.542969 44.882813 26.769531 45.0625 26.34375 C 45.152344 26.128906 45.234375 26.015625 45.25 26 Z M 6.53125 29 C 7.84375 29 8.765625 29.246094 9.3125 29.4375 C 8.492188 31.660156 8 33.960938 8 36.15625 C 8 37.664063 8.210938 39.09375 8.625 40.4375 C 7.5625 40.003906 6.351563 39.40625 5.25 38.59375 C 3.417969 37.238281 2 35.433594 2 32.875 C 2 32.300781 2.351563 31.25 3.09375 30.4375 C 3.835938 29.625 4.90625 29 6.53125 29 Z"/></svg>