<svg xmlns="http://www.w3.org/2000/svg"  viewBox="0 0 50 50" width="50px" height="50px"><path d="M 44 9 C 42.023438 9 40.167969 9.992188 39.0625 11.625 C 37.976563 13.226563 37.398438 14.957031 36.640625 16.308594 C 36.429688 16.691406 35.386719 18.199219 33.617188 19.511719 C 31.847656 20.824219 29.347656 22 26 22 C 25.605469 22 24.601563 21.78125 23.796875 21.542969 C 22.996094 21.300781 22.347656 21.0625 22.347656 21.0625 C 22.15625 20.992188 21.945313 20.980469 21.746094 21.03125 C 20.222656 21.433594 18.878906 21.839844 17.3125 22.296875 C 17.714844 21.753906 18.109375 21.15625 18.574219 20.824219 C 18.859375 20.628906 19.023438 20.300781 19.011719 19.957031 C 19.011719 19.921875 19.007813 19.890625 19 19.859375 C 19 19.828125 18.992188 19.796875 18.984375 19.769531 C 18.984375 19.765625 18.984375 19.761719 18.984375 19.757813 C 18.984375 19.753906 18.984375 19.753906 18.984375 19.75 C 18.976563 19.722656 18.964844 19.691406 18.953125 19.660156 C 18.945313 19.636719 18.933594 19.609375 18.921875 19.585938 C 18.921875 19.582031 18.921875 19.574219 18.917969 19.570313 C 18.914063 19.558594 18.90625 19.550781 18.902344 19.539063 C 18.890625 19.519531 18.882813 19.5 18.871094 19.484375 C 18.867188 19.472656 18.859375 19.460938 18.855469 19.453125 C 18.847656 19.445313 18.84375 19.4375 18.835938 19.429688 C 18.824219 19.410156 18.8125 19.394531 18.796875 19.375 C 18.796875 19.375 18.796875 19.371094 18.796875 19.371094 C 18.792969 19.371094 18.792969 19.367188 18.792969 19.367188 C 18.769531 19.34375 18.75 19.320313 18.730469 19.296875 C 18.703125 19.273438 18.679688 19.25 18.65625 19.230469 C 18.628906 19.207031 18.601563 19.1875 18.578125 19.167969 C 18.277344 18.960938 17.886719 18.933594 17.5625 19.097656 C 17.5625 19.097656 17.558594 19.097656 17.558594 19.097656 C 15.890625 19.535156 11.300781 20.636719 8.601563 24.734375 C 4.101563 21.316406 1.863281 17.496094 1.863281 17.496094 C 1.679688 17.167969 1.324219 16.972656 0.949219 16.988281 C 0.597656 17.003906 0.277344 17.203125 0.113281 17.515625 C -0.0546875 17.824219 -0.046875 18.203125 0.136719 18.503906 C 0.136719 18.503906 2.042969 21.746094 5.851563 25.050781 C 5.25 26.308594 4.117188 29.542969 6.109375 33.453125 C 6.261719 33.785156 6.585938 34.011719 6.953125 34.035156 C 7.316406 34.058594 7.667969 33.878906 7.863281 33.570313 C 8.058594 33.257813 8.070313 32.867188 7.890625 32.546875 C 6.414063 29.648438 6.960938 27.425781 7.429688 26.328125 C 7.628906 26.480469 7.835938 26.625 8.039063 26.773438 C 8.25 30.785156 10.054688 34.140625 12.683594 36.546875 C 15.480469 39.113281 19.171875 40.652344 22.90625 40.996094 C 23.320313 41.035156 23.710938 40.816406 23.894531 40.445313 C 24.078125 40.078125 24.015625 39.632813 23.738281 39.328125 C 23.753906 39.351563 23.8125 39.417969 23.792969 39.378906 C 23.761719 39.316406 23.710938 39.210938 23.648438 39.074219 C 23.527344 38.796875 23.363281 38.402344 23.175781 37.941406 C 23.171875 37.925781 23.164063 37.90625 23.15625 37.890625 C 23.683594 38.265625 24.078125 38.636719 24.597656 38.984375 C 26.148438 40.03125 27.472656 40.847656 27.472656 40.847656 C 27.664063 40.96875 27.886719 41.019531 28.109375 40.996094 C 31.917969 40.574219 37.347656 38.992188 41.886719 35.027344 C 46.425781 31.0625 50 24.675781 50 15 C 50 11.699219 47.300781 9 44 9 Z M 44 11 C 46.21875 11 48 12.78125 48 15 C 48 24.191406 44.710938 29.902344 40.570313 33.519531 C 36.53125 37.046875 31.644531 38.503906 28.1875 38.933594 C 27.925781 38.769531 27.046875 38.222656 25.714844 37.328125 C 24.203125 36.308594 22.449219 35.035156 21.707031 34.292969 C 21.375 33.964844 20.859375 33.90625 20.464844 34.15625 C 20.070313 34.40625 19.902344 34.894531 20.058594 35.335938 C 20.460938 36.464844 20.894531 37.605469 21.265625 38.535156 C 18.601563 37.964844 16.015625 36.890625 14.03125 35.074219 C 12.089844 33.292969 10.71875 30.976563 10.234375 28.199219 C 13.847656 30.34375 18.417969 32 24 32 C 29.421875 32 33.640625 30.925781 36.894531 28.769531 C 40.152344 26.617188 42.382813 23.40625 43.933594 19.359375 C 44.074219 19.019531 44.019531 18.636719 43.792969 18.351563 C 43.566406 18.066406 43.203125 17.925781 42.84375 17.988281 C 42.484375 18.046875 42.1875 18.296875 42.066406 18.640625 C 40.617188 22.425781 38.640625 25.21875 35.792969 27.105469 C 32.941406 28.988281 29.160156 30 24 30 C 18.320313 30 13.757813 28.167969 10.277344 25.910156 C 11.519531 24 13.191406 22.914063 14.832031 22.1875 C 14.410156 22.914063 14.089844 23.585938 14.089844 23.585938 C 13.925781 23.941406 13.988281 24.363281 14.246094 24.65625 C 14.503906 24.953125 14.910156 25.070313 15.285156 24.957031 C 15.285156 24.957031 19.570313 23.691406 21.980469 23.046875 C 22.191406 23.121094 22.535156 23.253906 23.226563 23.457031 C 24.097656 23.71875 25.09375 24 26 24 C 29.820313 24 32.765625 22.632813 34.808594 21.121094 C 36.847656 19.605469 37.980469 18.015625 38.390625 17.285156 C 39.269531 15.707031 39.835938 14.046875 40.71875 12.746094 C 41.445313 11.667969 42.699219 11 44 11 Z"/></svg>