<?xml version="1.0" encoding="UTF-8"?>
<svg id="Layer_1" data-name="Layer 1" xmlns="http://www.w3.org/2000/svg" viewBox="0 0 1080 1080">
  <path d="M767.26,612.14c-9.58,9.01-17.51,19.7-26.59,29.16-2.58,2.69-5.46,6.82-9.41,3.62l-30.88-32.78v54.69h-24.09l-1.08-1.08v-110.82c1.04-1.51,5.12-1.53,6.47-.71l52.14,60.07,53.36-60.28c2.01-.25,4.61-.77,5.97.93v110.82l-1.08,1.08h-23.73l-1.08-1.08v-53.61Z"/>
  <path d="M355.17,553.85v112.98h-25.17v-54.69l-30.16,32.79c-4.16,3.47-8.08-2.17-10.86-5.07-8.73-9.11-16.66-19.07-25.87-27.72v54.69h-25.17v-112.98l5.74.37,52.87,60.06,51.73-59.76,6.88-.67Z"/>
  <path d="M415.43,549.74c41.72-4.26,77.1,23.88,70.53,67.7-10.45,69.67-122.09,64.91-122.19-9.29-.04-28.52,22.98-55.48,51.66-58.4ZM421.17,571.32c-42.47,4.88-41.75,80.03,11.23,73.84,39.11-4.57,38.76-79.59-11.23-73.84Z"/>
  <path d="M999.56,616.46v-62.61h25.53l1.08,1.08v110.82c-1.51,1.73-5.01,1.47-6.87.4l-69.36-64.09v64.77h-26.61v-112.98c1.74.11,3.64-.23,5.36.04,3.27.52,14.98,13.11,18.37,16.16,17.37,15.61,35.18,30.76,52.51,46.41Z"/>
  <path d="M571.64,578.32c-5.67-1.68-10.44-4.62-16.39-6.27-7.51-2.09-26.76-5.04-30.54,4.3-4.72,11.69,15.2,16.25,22.73,20.07,13.41,6.79,28.51,14.19,31.06,30.8,5.17,33.56-29.21,41.81-55.41,38.89-9.39-1.05-19.94-3.61-27.69-8.99v-23.39l15.13,7.53c9.78,3.14,20.04,6.03,30.36,3.82,7.25-1.56,13.15-6.74,10.76-14.74-5.34-17.87-53.79-17.84-54.54-48.9-.89-36.95,51.11-37.71,74.52-24.34v21.23Z"/>
  <path d="M658.67,556.01v22.31c-10.17-4.3-21.41-9.41-32.75-8.66-12.97.86-21.32,10.94-7.62,19.19,20.2,12.17,54.94,18.03,47.36,51.52-7.54,33.32-58.89,29.84-82.51,17.83v-24.47c4.24,2,8.1,4.78,12.46,6.61,10.14,4.24,35.97,10.32,42.81-1.32,5.72-9.74-6.14-17.62-13.54-21.49-16.7-8.73-41.69-14.6-40.27-38.84,2.04-34.82,50.94-33.4,74.06-22.68Z"/>
  <path d="M913.98,666.83h-26.61l-8.39-17.87-40.92-.16c-1.25-.09-1.68.27-2.4,1.2-2.98,3.85-5.07,12.24-7.27,16.84h-25.53l-.77-1.46c.66-.91.87-2.02,1.33-3.01,15.76-33.81,31.97-69.09,48.8-102.29,1.84-3.62,2-6.45,6.74-6.28,3.87.13,5.09,5.09,6.72,8.44,15.34,31.53,30.28,63.58,44.82,95.48,1.3,2.84,2.94,6.16,3.47,9.12ZM871.55,630.85l-13.3-30.23-13.3,30.23h26.61Z"/>
  <g>
    <path d="M204.14,555.29v42.1c-2.23,2.2-5.05,3.65-7.69,5.25-16.97,10.32-37.57,23.21-55.11,31.93-3.18,1.58-6.81,3.59-10.38,4.01-12.38,1.46-28.31-14.13-39.72-18.53v64.77l-2.57-.67-34.83-20.56v-108.3l65.53,37.7c5.71,2.72,12.9,2.68,18.64.11l66.14-37.8Z"/>
    <path d="M204.14,618.62v41.38l-66.9,38.84c-9.42,3.63-17.58-1.36-25.15-6.46v-42.1c11.89,8.22,18.38,9.75,31.41,3,18.85-9.76,37.02-22.72,55.85-32.63,1.48-.78,3.13-1.89,4.8-2.03Z"/>
  </g>
</svg>