<svg xmlns="http://www.w3.org/2000/svg"  viewBox="0 0 50 50" width="50px" height="50px"><path d="M 9 4 C 6.2504839 4 4 6.2504839 4 9 L 4 41 C 4 43.749516 6.2504839 46 9 46 L 41 46 C 43.749516 46 46 43.749516 46 41 L 46 9 C 46 6.2504839 43.749516 4 41 4 L 9 4 z M 9 6 L 41 6 C 42.668484 6 44 7.3315161 44 9 L 44 41 C 44 42.668484 42.668484 44 41 44 L 9 44 C 7.3315161 44 6 42.668484 6 41 L 6 9 C 6 7.3315161 7.3315161 6 9 6 z M 16.5 8 C 14.750001 8 13.310226 8.6922556 12.376953 9.7421875 C 11.443681 10.792119 11 12.152778 11 13.5 C 11 14.847222 11.443681 16.207881 12.376953 17.257812 C 13.310226 18.307744 14.750001 19 16.5 19 C 18.249999 19 19.689774 18.307744 20.623047 17.257812 C 21.556319 16.207881 22 14.847222 22 13.5 C 22 12.152778 21.556319 10.792119 20.623047 9.7421875 C 19.689774 8.6922556 18.249999 8 16.5 8 z M 33 8 C 29.145849 8 26 11.145852 26 15 C 26 18.854148 29.145849 22 33 22 C 36.854151 22 40 18.854148 40 15 C 40 11.145852 36.854151 8 33 8 z M 16.5 10 C 17.749999 10 18.560226 10.432744 19.126953 11.070312 C 19.69368 11.707882 20 12.597222 20 13.5 C 20 14.402778 19.69368 15.292119 19.126953 15.929688 C 18.560226 16.567256 17.749999 17 16.5 17 C 15.250001 17 14.439774 16.567256 13.873047 15.929688 C 13.30632 15.292118 13 14.402778 13 13.5 C 13 12.597222 13.30632 11.707881 13.873047 11.070312 C 14.439774 10.432745 15.250001 10 16.5 10 z M 33 10 C 35.773271 10 38 12.226731 38 15 C 38 17.773269 35.773271 20 33 20 C 30.226729 20 28 17.773269 28 15 C 28 12.226731 30.226729 10 33 10 z M 17 23 C 13.145849 23 10 26.145852 10 30 C 10 33.854148 13.145849 37 17 37 C 20.854151 37 24 33.854148 24 30 C 24 26.145852 20.854151 23 17 23 z M 17 25 C 19.773271 25 22 27.226731 22 30 C 22 32.773269 19.773271 35 17 35 C 14.226729 35 12 32.773269 12 30 C 12 27.226731 14.226729 25 17 25 z M 33.5 26 C 31.750001 26 30.310226 26.692256 29.376953 27.742188 C 28.443681 28.792119 28 30.152778 28 31.5 C 28 32.847222 28.443681 34.207881 29.376953 35.257812 C 30.310226 36.307744 31.750001 37 33.5 37 C 35.249999 37 36.689774 36.307744 37.623047 35.257812 C 38.556319 34.207881 39 32.847222 39 31.5 C 39 30.152778 38.556319 28.792118 37.623047 27.742188 C 36.689774 26.692256 35.249999 26 33.5 26 z M 33.5 28 C 34.749999 28 35.560226 28.432744 36.126953 29.070312 C 36.69368 29.707881 37 30.597222 37 31.5 C 37 32.402778 36.69368 33.292119 36.126953 33.929688 C 35.560226 34.567256 34.749999 35 33.5 35 C 32.250001 35 31.439774 34.567256 30.873047 33.929688 C 30.30632 33.292119 30 32.402778 30 31.5 C 30 30.597222 30.30632 29.707882 30.873047 29.070312 C 31.439774 28.432744 32.250001 28 33.5 28 z M 16.5 39 A 1.5 1.5 0 0 0 16.5 42 A 1.5 1.5 0 0 0 16.5 39 z M 21.5 39 A 1.5 1.5 0 0 0 21.5 42 A 1.5 1.5 0 0 0 21.5 39 z M 28.5 39 A 1.5 1.5 0 0 0 28.5 42 A 1.5 1.5 0 0 0 28.5 39 z M 33.5 39 A 1.5 1.5 0 0 0 33.5 42 A 1.5 1.5 0 0 0 33.5 39 z"/></svg>