<svg xmlns="http://www.w3.org/2000/svg"  viewBox="0 0 50 50" width="50px" height="50px"><path d="M 15.984375 7.984375 C 15.433594 7.996094 14.992188 8.449219 15 9 C 15 13.777344 12.957031 15.464844 10.859375 17.339844 C 8.96875 19.027344 7 20.945313 7 25 C 6.996094 25.363281 7.183594 25.699219 7.496094 25.878906 C 7.808594 26.0625 8.191406 26.0625 8.503906 25.878906 C 8.816406 25.699219 9.003906 25.363281 9 25 C 9 21.523438 10.300781 20.519531 12.191406 18.828125 C 14.289063 16.957031 17 14.398438 17 9 C 17.003906 8.730469 16.898438 8.46875 16.707031 8.277344 C 16.515625 8.085938 16.253906 7.980469 15.984375 7.984375 Z M 22 12 C 21.449219 12 21 12.449219 21 13 C 21 15.921875 19.757813 17.035156 18.316406 18.324219 C 16.769531 19.710938 15.015625 21.28125 15.015625 25 C 15.015625 25.550781 15.464844 26 16.015625 26 C 16.566406 26 17.015625 25.554688 17.015625 25 C 17.015625 22.175781 18.238281 21.082031 19.652344 19.8125 C 21.222656 18.40625 23 16.816406 23 13 C 23 12.449219 22.550781 12 22 12 Z M 27 16 C 26.445313 16 26 16.449219 26 17 C 26 18.816406 25.253906 19.484375 24.308594 20.324219 C 23.277344 21.242188 21.992188 22.386719 21.992188 25 C 21.992188 25.550781 22.441406 26 22.992188 26 C 23.542969 26 23.992188 25.550781 23.992188 25 C 23.992188 23.28125 24.683594 22.667969 25.640625 21.816406 C 26.691406 20.882813 28 19.714844 28 17 C 28 16.449219 27.554688 16 27 16 Z M 45.84375 25.9375 C 43.523438 25.910156 38.273438 26.277344 31.925781 29.402344 L 31.964844 29.265625 C 32.046875 28.964844 31.984375 28.640625 31.796875 28.394531 C 31.605469 28.144531 31.3125 28 31 28 L 2.65625 28 C 2.34375 28 2.046875 28.144531 1.859375 28.394531 C 1.671875 28.640625 1.605469 28.964844 1.6875 29.265625 L 3.683594 36.578125 C 4.394531 39.183594 6.773438 41 9.472656 41 L 24.183594 41 C 26.730469 41 28.972656 39.371094 29.816406 37 L 31.0625 37 C 32.824219 37 34.578125 36.390625 35.898438 35.144531 C 36.996094 34.109375 39.214844 32.691406 43.597656 32.1875 C 46.105469 31.898438 48 29.746094 48 27.226563 L 48 27 C 48 26.5 47.628906 26.078125 47.136719 26.011719 C 47.136719 26.011719 46.675781 25.949219 45.84375 25.9375 Z M 44.984375 27.988281 C 45.277344 28 45.515625 28.011719 45.699219 28.027344 C 45.359375 29.136719 44.570313 30.0625 43.371094 30.203125 C 38.636719 30.746094 35.953125 32.347656 34.527344 33.691406 C 33.617188 34.546875 32.359375 35 31.0625 35 L 30.402344 35 L 31.21875 32.011719 L 31.449219 31.894531 C 31.457031 31.890625 31.46875 31.882813 31.480469 31.878906 C 38.171875 28.230469 42.929688 27.933594 44.984375 27.988281 Z M 3.960938 30 L 29.691406 30 L 29.417969 31.003906 C 29.414063 31.019531 29.40625 31.035156 29.402344 31.050781 L 28.125 35.734375 C 28.125 35.738281 28.125 35.738281 28.125 35.742188 L 28.042969 36.050781 C 27.566406 37.796875 25.992188 39 24.183594 39 L 9.472656 39 C 7.664063 39 6.089844 37.796875 5.613281 36.050781 Z"/></svg>