<svg xmlns="http://www.w3.org/2000/svg"  viewBox="0 0 50 50" width="50px" height="50px"><path d="M 22.5 2 C 21.4375 2 20.769531 3.074219 21.03125 4.0625 L 20.90625 4.09375 L 21.125 5.28125 C 12.207031 6.761719 7.25 12.34375 7.25 12.34375 C 6.992188 12.640625 6.933594 13.054688 7.09375 13.414063 C 7.253906 13.769531 7.609375 14 8 14 L 42 14 C 42.390625 14 42.746094 13.769531 42.90625 13.414063 C 43.066406 13.054688 43.007813 12.640625 42.75 12.34375 C 42.75 12.34375 37.804688 6.769531 28.90625 5.28125 L 29.1875 4.125 L 29.15625 4.125 C 29.394531 3.089844 28.65625 2 27.5 2 Z M 22.9375 4 L 27.125 4 L 26.71875 5.78125 C 26.65625 6.0625 26.714844 6.355469 26.882813 6.589844 C 27.046875 6.820313 27.308594 6.972656 27.59375 7 C 34.007813 7.757813 37.398438 10.3125 39.28125 12 L 10.71875 12 C 12.601563 10.3125 15.992188 7.757813 22.40625 7 C 22.683594 6.96875 22.9375 6.824219 23.105469 6.597656 C 23.269531 6.371094 23.335938 6.085938 23.28125 5.8125 Z M 2.8125 14 C 2.261719 14.050781 1.855469 14.542969 1.90625 15.09375 C 1.957031 15.644531 2.449219 16.050781 3 16 L 5.1875 16 C 5.652344 16 6.171875 16.445313 6.21875 16.90625 L 7.5 27.625 C 7.5 27.636719 7.5 27.644531 7.5 27.65625 C 7.679688 28.863281 8.269531 29.914063 9.125 30.6875 C 8.730469 31.011719 8.433594 31.449219 8.25 31.9375 L 8.28125 31.9375 L 5.15625 39.9375 C 4.410156 41.878906 5.933594 44 8 44 L 42 44 C 44.066406 44 45.589844 41.878906 44.84375 39.9375 L 41.71875 31.9375 L 41.75 31.9375 C 41.5625 31.433594 41.257813 31.003906 40.875 30.6875 C 41.730469 29.914063 42.320313 28.863281 42.5 27.65625 C 42.5 27.644531 42.5 27.636719 42.5 27.625 L 43.78125 16.90625 C 43.828125 16.445313 44.347656 16 44.8125 16 L 47 16 C 47.359375 16.003906 47.695313 15.816406 47.878906 15.503906 C 48.058594 15.191406 48.058594 14.808594 47.878906 14.496094 C 47.695313 14.183594 47.359375 13.996094 47 14 L 44.8125 14 C 43.277344 14 41.964844 15.148438 41.8125 16.6875 L 40.5 27.34375 C 40.5 27.351563 40.5 27.367188 40.5 27.375 C 40.257813 28.882813 38.992188 30 37.5 30 L 12.5 30 C 11.007813 30 9.742188 28.882813 9.5 27.375 L 9.5 27.34375 L 8.1875 16.6875 C 8.035156 15.148438 6.722656 14 5.1875 14 L 3 14 C 2.96875 14 2.9375 14 2.90625 14 C 2.875 14 2.84375 14 2.8125 14 Z M 25 16 C 22.582031 16 20.402344 16.859375 19 18.34375 C 18.109375 17.5 16.867188 17 15.5 17 C 13.566406 17 11.871094 18.003906 11.09375 19.5625 C 10.851563 20.0625 11.0625 20.664063 11.5625 20.90625 C 12.0625 21.148438 12.664063 20.9375 12.90625 20.4375 C 13.328125 19.59375 14.234375 19 15.5 19 C 16.738281 19 17.628906 19.566406 18.0625 20.375 C 18.066406 20.382813 18.058594 20.398438 18.0625 20.40625 C 18.070313 20.425781 18.082031 20.449219 18.09375 20.46875 C 18.113281 20.492188 18.132813 20.511719 18.15625 20.53125 C 18.15625 20.542969 18.15625 20.550781 18.15625 20.5625 C 18.167969 20.574219 18.175781 20.582031 18.1875 20.59375 C 18.199219 20.605469 18.207031 20.613281 18.21875 20.625 C 18.226563 20.644531 18.238281 20.667969 18.25 20.6875 C 18.261719 20.699219 18.269531 20.707031 18.28125 20.71875 C 18.300781 20.730469 18.324219 20.742188 18.34375 20.75 C 18.34375 20.761719 18.34375 20.769531 18.34375 20.78125 C 18.363281 20.792969 18.386719 20.804688 18.40625 20.8125 C 18.417969 20.824219 18.425781 20.832031 18.4375 20.84375 C 18.457031 20.855469 18.480469 20.867188 18.5 20.875 C 18.511719 20.875 18.519531 20.875 18.53125 20.875 C 18.550781 20.886719 18.574219 20.898438 18.59375 20.90625 C 18.605469 20.917969 18.613281 20.925781 18.625 20.9375 C 18.644531 20.949219 18.667969 20.960938 18.6875 20.96875 C 18.699219 20.96875 18.707031 20.96875 18.71875 20.96875 C 18.738281 20.96875 18.761719 20.96875 18.78125 20.96875 C 18.792969 20.980469 18.800781 20.988281 18.8125 21 C 18.832031 21 18.855469 21 18.875 21 C 18.886719 21 18.894531 21 18.90625 21 C 18.925781 21 18.949219 21 18.96875 21 C 18.980469 21 18.988281 21 19 21 C 19.03125 21 19.0625 21 19.09375 21 C 19.105469 21 19.113281 21 19.125 21 C 19.210938 20.988281 19.292969 20.96875 19.375 20.9375 C 19.386719 20.9375 19.394531 20.9375 19.40625 20.9375 C 19.417969 20.925781 19.425781 20.917969 19.4375 20.90625 C 19.542969 20.851563 19.640625 20.777344 19.71875 20.6875 C 19.742188 20.667969 19.761719 20.648438 19.78125 20.625 C 19.816406 20.585938 19.847656 20.542969 19.875 20.5 C 19.898438 20.460938 19.914063 20.414063 19.9375 20.375 C 20.753906 19.035156 22.664063 18 25 18 C 27.402344 18 29.347656 19.105469 30.125 20.5 C 30.160156 20.554688 30.203125 20.609375 30.25 20.65625 C 30.257813 20.675781 30.269531 20.699219 30.28125 20.71875 C 30.292969 20.730469 30.300781 20.738281 30.3125 20.75 C 30.324219 20.75 30.332031 20.75 30.34375 20.75 C 30.351563 20.769531 30.363281 20.792969 30.375 20.8125 C 30.386719 20.8125 30.394531 20.8125 30.40625 20.8125 C 30.425781 20.824219 30.449219 20.835938 30.46875 20.84375 C 30.480469 20.855469 30.488281 20.863281 30.5 20.875 C 30.519531 20.886719 30.542969 20.898438 30.5625 20.90625 C 30.574219 20.90625 30.582031 20.90625 30.59375 20.90625 C 30.613281 20.917969 30.636719 20.929688 30.65625 20.9375 C 30.667969 20.949219 30.675781 20.957031 30.6875 20.96875 C 30.707031 20.96875 30.730469 20.96875 30.75 20.96875 C 30.761719 20.96875 30.769531 20.96875 30.78125 20.96875 C 30.800781 20.980469 30.824219 20.992188 30.84375 21 C 30.855469 21 30.863281 21 30.875 21 C 30.894531 21 30.917969 21 30.9375 21 C 30.949219 21 30.957031 21 30.96875 21 C 31 21 31.03125 21 31.0625 21 C 31.074219 21 31.082031 21 31.09375 21 C 31.246094 20.992188 31.398438 20.949219 31.53125 20.875 C 31.589844 20.828125 31.640625 20.777344 31.6875 20.71875 C 31.746094 20.671875 31.796875 20.621094 31.84375 20.5625 C 31.84375 20.550781 31.84375 20.542969 31.84375 20.53125 C 31.855469 20.519531 31.863281 20.511719 31.875 20.5 C 31.875 20.480469 31.875 20.457031 31.875 20.4375 C 31.910156 20.398438 31.941406 20.355469 31.96875 20.3125 C 32.414063 19.535156 33.292969 19 34.5 19 C 35.765625 19 36.671875 19.59375 37.09375 20.4375 C 37.335938 20.9375 37.9375 21.148438 38.4375 20.90625 C 38.9375 20.664063 39.148438 20.0625 38.90625 19.5625 C 38.128906 18.003906 36.433594 17 34.5 17 C 33.132813 17 31.890625 17.5 31 18.34375 C 29.597656 16.859375 27.417969 16 25 16 Z M 11.09375 32 L 38.90625 32 C 39.289063 32 39.730469 32.273438 39.875 32.65625 L 42.96875 40.65625 C 43.222656 41.316406 42.734375 42 42 42 L 8 42 C 7.265625 42 6.777344 41.316406 7.03125 40.65625 L 10.125 32.65625 C 10.292969 32.207031 10.5625 32 11.09375 32 Z M 25 32.5 C 22.539063 32.5 20.5 34.539063 20.5 37 C 20.5 39.460938 22.539063 41.5 25 41.5 C 27.460938 41.5 29.5 39.460938 29.5 37 C 29.5 34.539063 27.460938 32.5 25 32.5 Z M 25 34.5 C 26.339844 34.5 27.5 35.660156 27.5 37 C 27.5 38.339844 26.339844 39.5 25 39.5 C 23.660156 39.5 22.5 38.339844 22.5 37 C 22.5 35.660156 23.660156 34.5 25 34.5 Z M 25.5 35.375 C 25.273438 35.40625 25.0625 35.519531 24.90625 35.6875 L 23.6875 36.90625 C 23.390625 37.148438 23.253906 37.535156 23.339844 37.910156 C 23.425781 38.28125 23.71875 38.574219 24.089844 38.660156 C 24.464844 38.746094 24.851563 38.609375 25.09375 38.3125 L 26.3125 37.09375 C 26.609375 36.808594 26.699219 36.367188 26.539063 35.988281 C 26.382813 35.609375 26.003906 35.367188 25.59375 35.375 C 25.5625 35.375 25.53125 35.375 25.5 35.375 Z"/></svg>