<svg xmlns="http://www.w3.org/2000/svg"  viewBox="0 0 50 50" width="50px" height="50px"><path d="M 25 2 C 24.210938 2 23.539063 2.457031 23.210938 3.117188 C 21.945313 3.472656 21 4.628906 21 6 L 21 8.4375 C 19.242188 9.710938 18 11.671875 18 14 C 18 17.855469 21.144531 21 25 21 C 28.855469 21 32 17.855469 32 14 C 32 11.671875 30.757813 9.710938 29 8.4375 L 29 6 C 29 4.628906 28.054688 3.472656 26.789063 3.117188 C 26.460938 2.457031 25.789063 2 25 2 Z M 24 5 L 26 5 C 26.566406 5 27 5.433594 27 6 L 27 9.382813 L 27.5 9.671875 C 28.992188 10.539063 30 12.144531 30 14 C 30 16.773438 27.773438 19 25 19 C 22.226563 19 20 16.773438 20 14 C 20 12.355469 20.792969 10.910156 22.011719 10 L 25 10 L 25 8 L 23 8 L 23 6 C 23 5.433594 23.433594 5 24 5 Z M 13 6 C 12.449219 6 12 6.449219 12 7 C 12 7.550781 12.449219 8 13 8 C 13.550781 8 14 7.550781 14 7 C 14 6.449219 13.550781 6 13 6 Z M 37 6 C 36.449219 6 36 6.449219 36 7 C 36 7.550781 36.449219 8 37 8 C 37.550781 8 38 7.550781 38 7 C 38 6.449219 37.550781 6 37 6 Z M 16 8 C 15.449219 8 15 8.449219 15 9 C 15 9.550781 15.449219 10 16 10 C 16.550781 10 17 9.550781 17 9 C 17 8.449219 16.550781 8 16 8 Z M 34 8 C 33.449219 8 33 8.449219 33 9 C 33 9.550781 33.449219 10 34 10 C 34.550781 10 35 9.550781 35 9 C 35 8.449219 34.550781 8 34 8 Z M 11 13 C 10.449219 13 10 13.449219 10 14 C 10 14.550781 10.449219 15 11 15 C 11.550781 15 12 14.550781 12 14 C 12 13.449219 11.550781 13 11 13 Z M 15 13 C 14.449219 13 14 13.449219 14 14 C 14 14.550781 14.449219 15 15 15 C 15.550781 15 16 14.550781 16 14 C 16 13.449219 15.550781 13 15 13 Z M 35 13 C 34.449219 13 34 13.449219 34 14 C 34 14.550781 34.449219 15 35 15 C 35.550781 15 36 14.550781 36 14 C 36 13.449219 35.550781 13 35 13 Z M 39 13 C 38.449219 13 38 13.449219 38 14 C 38 14.550781 38.449219 15 39 15 C 39.550781 15 40 14.550781 40 14 C 40 13.449219 39.550781 13 39 13 Z M 16 18 C 15.449219 18 15 18.449219 15 19 C 15 19.550781 15.449219 20 16 20 C 16.550781 20 17 19.550781 17 19 C 17 18.449219 16.550781 18 16 18 Z M 34 18 C 33.449219 18 33 18.449219 33 19 C 33 19.550781 33.449219 20 34 20 C 34.550781 20 35 19.550781 35 19 C 35 18.449219 34.550781 18 34 18 Z M 13 20 C 12.449219 20 12 20.449219 12 21 C 12 21.550781 12.449219 22 13 22 C 13.550781 22 14 21.550781 14 21 C 14 20.449219 13.550781 20 13 20 Z M 37 20 C 36.449219 20 36 20.449219 36 21 C 36 21.550781 36.449219 22 37 22 C 37.550781 22 38 21.550781 38 21 C 38 20.449219 37.550781 20 37 20 Z M 2 25 C 1.640625 24.996094 1.304688 25.183594 1.121094 25.496094 C 0.941406 25.808594 0.941406 26.191406 1.121094 26.503906 C 1.304688 26.816406 1.640625 27.003906 2 27 L 3 27 L 3 48 L 47 48 L 47 27 L 48 27 C 48.359375 27.003906 48.695313 26.816406 48.878906 26.503906 C 49.058594 26.191406 49.058594 25.808594 48.878906 25.496094 C 48.695313 25.183594 48.359375 24.996094 48 25 Z M 5 27 L 11 27 L 11 43 L 39 43 L 39 27 L 45 27 L 45 46 L 5 46 Z M 13 27 L 37 27 L 37 41 L 31.4375 41 C 31.785156 40.410156 32 39.730469 32 39 L 32 36 L 33 36 C 33.359375 36.003906 33.695313 35.816406 33.878906 35.503906 C 34.058594 35.191406 34.058594 34.808594 33.878906 34.496094 C 33.695313 34.183594 33.359375 33.996094 33 34 L 32 34 L 32 33 C 32.359375 33.003906 32.695313 32.816406 32.878906 32.503906 C 33.058594 32.191406 33.058594 31.808594 32.878906 31.496094 C 32.695313 31.183594 32.359375 30.996094 32 31 L 28 31 L 28 30 L 22 30 L 22 31 L 18 31 C 17.640625 30.996094 17.304688 31.183594 17.121094 31.496094 C 16.941406 31.808594 16.941406 32.191406 17.121094 32.503906 C 17.304688 32.816406 17.640625 33.003906 18 33 L 18 34 L 17 34 C 16.640625 33.996094 16.304688 34.183594 16.121094 34.496094 C 15.941406 34.808594 15.941406 35.191406 16.121094 35.503906 C 16.304688 35.816406 16.640625 36.003906 17 36 L 18 36 L 18 39 C 18 39.730469 18.214844 40.410156 18.5625 41 L 13 41 Z M 20 33 L 30 33 L 30 34.832031 C 29.980469 34.941406 29.980469 35.050781 30 35.15625 L 30 39 C 30 40.117188 29.117188 41 28 41 L 22 41 C 20.882813 41 20 40.117188 20 39 L 20 35.167969 C 20.019531 35.058594 20.019531 34.949219 20 34.84375 Z"/></svg>