<svg xmlns="http://www.w3.org/2000/svg"  viewBox="0 0 50 50" width="50px" height="50px"><path d="M 6 2 L 6 3 C 6 7.0521353 9.0846057 10.281986 13 10.796875 L 13 24 L 9 24 L 9 21 L 1 21 L 1 22 L 1 37 L 9 37 L 9 34 L 19.640625 34 L 14.533203 47 L 49 47 L 49 46 L 49 17 L 26.318359 17 L 23.568359 24 L 22 24 L 22 11 L 25 11 C 29.406438 11 33 7.406438 33 3 L 33 2 L 6 2 z M 8.2011719 4 L 30.798828 4 C 30.30902 6.8253408 27.970243 9 25 9 L 22 9 L 14 9 C 11.029757 9 8.6909798 6.8253408 8.2011719 4 z M 15 11 L 20 11 L 20 24 L 15 24 L 15 11 z M 27.681641 19 L 47 19 L 47 45 L 17.46875 45 L 27.681641 19 z M 39 22 C 37.416667 22 36.101892 22.629756 35.251953 23.585938 C 34.402014 24.542119 34 25.777778 34 27 C 34 28.222222 34.402014 29.457882 35.251953 30.414062 C 36.101892 31.370244 37.416667 32 39 32 C 40.583333 32 41.898108 31.370244 42.748047 30.414062 C 43.597986 29.457881 44 28.222222 44 27 C 44 25.777778 43.597986 24.542118 42.748047 23.585938 C 41.898108 22.629756 40.583333 22 39 22 z M 3 23 L 7 23 L 7 24 L 7 34 L 7 35 L 3 35 L 3 23 z M 39 24 C 39.535334 24 39.971189 24.09284 40.335938 24.25 L 36.417969 28.167969 C 36.260332 27.777407 36 27.435393 36 27 C 36 26.222222 36.264653 25.457882 36.748047 24.914062 C 37.231441 24.370244 37.916667 24 39 24 z M 40.892578 24.650391 C 41.006757 24.743571 41.155461 24.805509 41.251953 24.914062 C 41.286313 24.952723 41.272558 25.021691 41.304688 25.0625 L 40.892578 24.650391 z M 41.582031 25.832031 C 41.739668 26.222593 42 26.564607 42 27 C 42 27.777778 41.735347 28.542118 41.251953 29.085938 C 40.768559 29.629756 40.083333 30 39 30 C 38.464666 30 38.028811 29.90716 37.664062 29.75 L 41.582031 25.832031 z M 9 26 L 13 26 L 22 26 L 22.783203 26 L 20.425781 32 L 9 32 L 9 26 z M 36.695312 28.9375 L 37.107422 29.349609 C 36.993243 29.256429 36.844539 29.194491 36.748047 29.085938 C 36.713687 29.047277 36.727442 28.978309 36.695312 28.9375 z"/></svg>