<svg xmlns="http://www.w3.org/2000/svg"  viewBox="0 0 50 50" width="50px" height="50px"><path d="M 39.625 4 C 37.828125 4.078125 36.074219 5.230469 35.125 7.53125 C 34.09375 10.027344 32.96875 12.273438 31.8125 14.3125 C 29.644531 14.113281 27.367188 14 25 14 C 18.289063 14 12.199219 14.847656 7.71875 16.25 C 5.476563 16.949219 3.636719 17.78125 2.28125 18.78125 C 0.925781 19.78125 0 21.03125 0 22.5 C 0 22.585938 -0.0078125 22.664063 0 22.75 C -0.0117188 22.832031 -0.0117188 22.917969 0 23 C 0 30.046875 2.035156 35.367188 4.1875 39.03125 C 5.261719 40.863281 6.359375 42.296875 7.25 43.3125 C 8.140625 44.328125 8.863281 44.988281 9 45.125 L 9.03125 45.125 C 11.234375 47.328125 16.355469 50 25 50 C 33.671875 50 38.59375 46.816406 40.84375 45.21875 C 41.554688 44.714844 43.796875 42.820313 45.96875 39.15625 C 48.140625 35.492188 50.144531 30.117188 50 22.96875 C 49.996094 22.90625 49.984375 22.84375 49.96875 22.78125 C 49.976563 22.6875 50 22.597656 50 22.5 C 50 21.046875 49.078125 19.804688 47.75 18.8125 C 46.761719 18.070313 45.488281 17.417969 44 16.84375 C 44.570313 16.335938 45.164063 15.835938 45.8125 15.3125 C 47.757813 13.742188 48.3125 11.683594 47.8125 9.9375 C 47.3125 8.191406 46.011719 6.777344 44.59375 5.75 L 44.5625 5.75 C 43.148438 4.726563 41.421875 3.921875 39.625 4 Z M 39.71875 6 C 40.832031 5.949219 42.242188 6.53125 43.40625 7.375 C 44.570313 8.214844 45.5625 9.378906 45.875 10.46875 C 46.1875 11.558594 46.050781 12.546875 44.5625 13.75 C 43.488281 14.617188 42.53125 15.476563 41.65625 16.3125 C 41.652344 16.316406 41.628906 16.308594 41.625 16.3125 C 41.421875 16.410156 41.253906 16.578125 41.15625 16.78125 C 41.152344 16.785156 41.160156 16.808594 41.15625 16.8125 C 41.132813 16.832031 41.113281 16.851563 41.09375 16.875 C 36.203125 21.714844 34.367188 25.839844 33.09375 28.53125 C 30.566406 28.820313 27.851563 29 25 29 C 24.246094 29 23.488281 28.992188 22.75 28.96875 C 25.398438 26.550781 29.324219 22.449219 33 16.25 C 33.007813 16.238281 33.023438 16.230469 33.03125 16.21875 C 33.3125 16.042969 33.488281 15.738281 33.5 15.40625 C 33.5 15.394531 33.5 15.386719 33.5 15.375 C 34.710938 13.253906 35.898438 10.910156 36.96875 8.3125 C 37.703125 6.53125 38.605469 6.050781 39.71875 6 Z M 25 16 C 26.976563 16 28.859375 16.078125 30.6875 16.21875 C 26.523438 22.941406 22.148438 26.914063 19.90625 28.8125 C 15.410156 28.5 11.394531 27.804688 8.3125 26.84375 C 6.210938 26.1875 4.542969 25.417969 3.46875 24.625 C 2.394531 23.832031 2 23.101563 2 22.5 C 2 21.898438 2.394531 21.167969 3.46875 20.375 C 4.542969 19.582031 6.210938 18.8125 8.3125 18.15625 C 12.515625 16.84375 18.457031 16 25 16 Z M 42.375 18.375 C 44.164063 18.988281 45.613281 19.695313 46.5625 20.40625 C 47.613281 21.191406 48 21.902344 48 22.5 C 48 23.101563 47.605469 23.832031 46.53125 24.625 C 45.457031 25.417969 43.789063 26.1875 41.6875 26.84375 C 39.902344 27.402344 37.789063 27.859375 35.46875 28.21875 C 36.703125 25.605469 38.390625 22.316406 42.375 18.375 Z M 47.90625 26.0625 C 47.527344 31.289063 45.941406 35.300781 44.25 38.15625 C 42.242188 41.546875 39.992188 43.375 39.6875 43.59375 C 37.523438 45.128906 33.195313 48 25 48 C 16.773438 48 12.089844 45.371094 10.4375 43.71875 C 10.15625 43.4375 9.574219 42.9375 8.75 42 C 7.925781 41.0625 6.90625 39.734375 5.90625 38.03125 C 4.234375 35.183594 2.671875 31.226563 2.1875 26.125 C 2.222656 26.152344 2.246094 26.191406 2.28125 26.21875 C 3.636719 27.21875 5.476563 28.050781 7.71875 28.75 C 12.199219 30.152344 18.289063 31 25 31 C 31.710938 31 37.800781 30.152344 42.28125 28.75 C 44.523438 28.050781 46.363281 27.21875 47.71875 26.21875 C 47.785156 26.167969 47.839844 26.113281 47.90625 26.0625 Z"/></svg>