<?xml version="1.0" encoding="UTF-8"?>
<svg id="Layer_1" data-name="Layer 1" xmlns="http://www.w3.org/2000/svg" viewBox="0 0 491.44 496.48">
  <g id="_2310502456944" data-name=" 2310502456944">
    <path id="path22" d="M348.35,289.95c-76.41.39-88.77,48.1-92.89,88.45l-1.87,17.84h-15.36l-1.87-17.84c-4.12-40.35-16.86-88.06-90.65-88.45-12.36-26.38-17.6-47.72-17.6-71.77,0-60.13,47.57-116.38,117.99-116.38s117.24,55.86,117.24,116.77c0,23.66-2.25,45-14.98,71.38h0ZM245.34,28.86c-116.12,0-211.26,98.54-211.26,219.19s95.14,219.58,211.26,219.58,212.01-98.54,212.01-219.58S362.58,28.86,245.34,28.86h0Z"/>
  </g>
</svg>