<?xml version="1.0" encoding="UTF-8"?>
<svg id="Layer_1" data-name="Layer 1" xmlns="http://www.w3.org/2000/svg" viewBox="0 0 491.44 496.48">
  <path d="M245.72,29.24C124.96,29.24,26.72,127.49,26.72,248.24c0,37.71,9.74,74.78,28.21,107.5l-27.86,99.41c-.91,3.27-.03,6.77,2.33,9.2,1.82,1.88,4.29,2.89,6.84,2.89.76,0,1.53-.1,2.29-.28l103.75-25.7c31.68,17.01,67.36,25.98,103.44,25.98,120.75,0,219-98.25,219-219S366.47,29.24,245.72,29.24ZM355.89,325.52c-4.68,12.97-27.16,24.8-37.95,26.39-9.69,1.42-21.96,2.03-35.42-2.2-8.16-2.57-18.63-5.98-32.05-11.7-56.4-24.05-93.23-80.13-96.05-83.83-2.81-3.7-22.96-30.1-22.96-57.42s14.52-40.75,19.68-46.31c5.16-5.56,11.25-6.95,15-6.95s7.49.05,10.78.2c3.46.17,8.09-1.3,12.65,9.53,4.68,11.12,15.93,38.44,17.32,41.23,1.41,2.78,2.34,6.03.48,9.73-1.87,3.7-2.8,6.02-5.62,9.26-2.82,3.25-5.9,7.24-8.44,9.73-2.82,2.77-5.74,5.77-2.47,11.33s14.56,23.74,31.28,38.46c21.47,18.91,39.59,24.78,45.21,27.56,5.62,2.78,8.9,2.31,12.18-1.39,3.28-3.71,14.05-16.22,17.8-21.77,3.74-5.55,7.49-4.64,12.65-2.78,5.16,1.85,32.8,15.27,38.42,18.05,5.62,2.78,9.37,4.17,10.78,6.48,1.41,2.3,1.41,13.43-3.28,26.38Z"/>
</svg>