<svg xmlns="http://www.w3.org/2000/svg"  viewBox="0 0 50 50" width="50px" height="50px"><path d="M 23.984375 4.984375 C 23.9375 4.988281 23.886719 4.992188 23.839844 5 L 2 5 L 2 41 L 3.78125 41 L 3.019531 44.804688 C 2.960938 45.097656 3.039063 45.402344 3.226563 45.632813 C 3.417969 45.867188 3.699219 46 4 46 L 8 46 C 8.476563 46 8.886719 45.664063 8.980469 45.195313 L 9.820313 41 L 23.832031 41 C 23.941406 41.019531 24.050781 41.019531 24.15625 41 L 40.179688 41 L 41.019531 45.195313 C 41.113281 45.664063 41.523438 46 42 46 L 46 46 C 46.300781 46 46.582031 45.867188 46.773438 45.632813 C 46.960938 45.402344 47.039063 45.097656 46.980469 44.804688 L 46.21875 41 L 48 41 L 48 5 L 24.15625 5 C 24.097656 4.992188 24.042969 4.984375 23.984375 4.984375 Z M 4 7 L 23 7 L 23 39 L 4 39 Z M 25 7 L 46 7 L 46 39 L 25 39 L 25 28.886719 C 26.273438 30.1875 28.042969 31 30 31 C 33.855469 31 37 27.855469 37 24 C 37 21.671875 35.757813 19.710938 34 18.4375 L 34 16 C 34 14.628906 33.054688 13.472656 31.789063 13.121094 C 31.460938 12.457031 30.789063 12 30 12 C 29.210938 12 28.539063 12.457031 28.210938 13.121094 C 26.945313 13.472656 26 14.628906 26 16 L 26 18.4375 C 25.640625 18.699219 25.308594 18.992188 25 19.308594 Z M 29 15 L 31 15 C 31.566406 15 32 15.433594 32 16 L 32 19.386719 L 32.5 19.671875 C 33.992188 20.539063 35 22.144531 35 24 C 35 26.773438 32.773438 29 30 29 C 27.226563 29 25 26.773438 25 24 C 25 22.355469 25.792969 20.910156 27.011719 20 L 30 20 L 30 18 L 28 18 L 28 16 C 28 15.433594 28.433594 15 29 15 Z M 42 16 C 41.449219 16 41 16.449219 41 17 C 41 17.550781 41.449219 18 42 18 C 42.550781 18 43 17.550781 43 17 C 43 16.449219 42.550781 16 42 16 Z M 39 18 C 38.449219 18 38 18.449219 38 19 C 38 19.550781 38.449219 20 39 20 C 39.550781 20 40 19.550781 40 19 C 40 18.449219 39.550781 18 39 18 Z M 19.984375 18.984375 C 19.433594 18.996094 18.992188 19.449219 19 20 L 19 26 C 18.996094 26.359375 19.183594 26.695313 19.496094 26.878906 C 19.808594 27.058594 20.191406 27.058594 20.503906 26.878906 C 20.816406 26.695313 21.003906 26.359375 21 26 L 21 20 C 21.003906 19.730469 20.898438 19.46875 20.707031 19.277344 C 20.515625 19.085938 20.253906 18.980469 19.984375 18.984375 Z M 40 23 C 39.449219 23 39 23.449219 39 24 C 39 24.550781 39.449219 25 40 25 C 40.550781 25 41 24.550781 41 24 C 41 23.449219 40.550781 23 40 23 Z M 44 23 C 43.449219 23 43 23.449219 43 24 C 43 24.550781 43.449219 25 44 25 C 44.550781 25 45 24.550781 45 24 C 45 23.449219 44.550781 23 44 23 Z M 39 28 C 38.449219 28 38 28.449219 38 29 C 38 29.550781 38.449219 30 39 30 C 39.550781 30 40 29.550781 40 29 C 40 28.449219 39.550781 28 39 28 Z M 42 30 C 41.449219 30 41 30.449219 41 31 C 41 31.550781 41.449219 32 42 32 C 42.550781 32 43 31.550781 43 31 C 43 30.449219 42.550781 30 42 30 Z M 5.820313 41 L 7.78125 41 L 7.179688 44 L 5.21875 44 Z M 42.21875 41 L 44.179688 41 L 44.78125 44 L 42.820313 44 Z"/></svg>