<?xml version="1.0" encoding="UTF-8"?>
<svg id="Layer_1" data-name="Layer 1" xmlns="http://www.w3.org/2000/svg" viewBox="0 0 1080 1080">
  <defs>
    <style>
      .cls-1, .cls-2 {
        fill: none;
      }

      .cls-2 {
        stroke: var(--jet-black);
        stroke-miterlimit: 10;
        stroke-width: 6px;
      }
    </style>
  </defs>
  <rect class="cls-1" x="162.47" y="81.97" width="755.06" height="755.06"/>
  <line class="cls-2" x1="239.01" y1="724.49" x2="840.99" y2="725.94"/>
  <g>
    <path d="M315.66,539.36v2.44h-16.03v57.15h50.36v-57.15h-16.03v-2.44h57.33v2.44h-16.03v119.18h16.03v2.44h-57.33v-2.44h16.03v-59.59h-50.36v59.59h16.03v2.44h-57.33v-2.44h16.03v-119.18h-16.03v-2.44h57.33Z"/>
    <path d="M407.23,574.91c4.01-8.02,9.15-14.87,15.42-20.56,6.27-5.69,13.3-10.08,21.08-13.16,7.78-3.08,15.39-4.62,22.83-4.62,8.01,0,15.94,1.51,23.78,4.53,7.84,3.02,14.81,7.32,20.91,12.89,6.1,5.58,11.03,12.34,14.81,20.3,3.77,7.96,5.66,16.93,5.66,26.92,0,8.71-1.77,16.99-5.31,24.83-3.55,7.84-8.31,14.72-14.29,20.65-5.98,5.92-12.89,10.6-20.74,14.03-7.84,3.42-16.12,5.14-24.83,5.14s-16.84-1.65-24.74-4.97c-7.9-3.31-14.84-7.84-20.82-13.59-5.98-5.75-10.78-12.52-14.38-20.3-3.6-7.78-5.4-16.2-5.4-25.27,0-9.87,2-18.82,6.01-26.83ZM431.71,631.8c1.39,7.96,3.57,14.29,6.53,18.99s6.8,7.99,11.5,9.85c4.7,1.86,10.31,2.79,16.81,2.79,8.59,0,15.33-1.6,20.21-4.79,4.88-3.19,8.54-7.61,10.98-13.24,2.44-5.63,3.98-12.31,4.62-20.04.64-7.72.96-16.12.96-25.18,0-8.13-.26-15.88-.78-23.26-.52-7.38-2-13.88-4.44-19.52-2.44-5.63-6.13-10.11-11.06-13.42-4.94-3.31-11.76-4.97-20.47-4.97-8.13,0-14.64,1.54-19.52,4.62-4.88,3.08-8.6,7.41-11.15,12.98-2.56,5.58-4.24,12.2-5.05,19.86-.82,7.67-1.22,16.09-1.22,25.26,0,12.08.7,22.1,2.09,30.06Z"/>
    <path d="M589.74,539.36l30.14,86.77h.35l30.67-86.77h43.56v2.44h-16.03v119.18h16.03v2.44h-57.15v-2.44h15.86v-119.18h-.35l-42.86,121.62h-2.79l-43.04-121.62h-.35v119.18h16.03v2.44h-34.85v-2.44h16.03v-119.18h-16.03v-2.44h44.78Z"/>
    <path d="M814.52,539.36v29.8h-2.27c-.58-1.97-1.57-4.5-2.96-7.58-1.39-3.08-3.34-6.07-5.84-8.97-2.5-2.9-5.72-5.43-9.67-7.58-3.95-2.15-8.77-3.22-14.46-3.22h-27.7v53.84h9.76c4.3,0,7.93-.61,10.89-1.83s5.43-2.96,7.41-5.23c1.97-2.27,3.6-4.99,4.88-8.19,1.28-3.19,2.32-6.77,3.14-10.72h2.27v54.19h-2.27c-.81-3.37-1.77-6.62-2.87-9.76-1.11-3.14-2.59-5.89-4.44-8.28-1.86-2.38-4.15-4.27-6.88-5.66-2.73-1.39-6.13-2.09-10.19-2.09h-11.67v62.9h28.58c5.34,0,10.16-.9,14.46-2.7,4.3-1.8,8.1-4.33,11.41-7.58,3.31-3.25,6.07-7.06,8.28-11.41,2.2-4.36,3.89-9.03,5.05-14.03h2.27v38.16h-111.34v-2.44h16.03v-119.18h-16.03v-2.44h104.2Z"/>
  </g>
  <polygon points="242.22 459.5 540.04 161.69 837.78 459.43 242.22 459.5"/>
  <g>
    <path d="M377.88,767.35v5.87c-2.86-2.4-5.83-3.59-8.89-3.59-3.37,0-6.22,1.21-8.53,3.64-2.33,2.41-3.49,5.36-3.49,8.85s1.16,6.35,3.49,8.72,5.18,3.55,8.55,3.55c1.74,0,3.23-.28,4.45-.85.68-.28,1.39-.67,2.12-1.15s1.5-1.06,2.31-1.74v5.98c-2.84,1.6-5.81,2.4-8.93,2.4-4.69,0-8.7-1.64-12.02-4.91-3.3-3.3-4.96-7.29-4.96-11.95,0-4.18,1.38-7.91,4.15-11.19,3.4-4.01,7.81-6.02,13.21-6.02,2.95,0,5.8.8,8.55,2.4Z"/>
    <path d="M431.78,765.58v19.78c0,2.82.46,4.89,1.38,6.19,1.38,1.89,3.31,2.83,5.81,2.83s4.45-.94,5.83-2.83c.92-1.26,1.38-3.33,1.38-6.19v-19.78h4.96v21.14c0,3.46-1.08,6.31-3.23,8.55-2.42,2.5-5.4,3.74-8.93,3.74s-6.5-1.25-8.91-3.74c-2.16-2.24-3.23-5.09-3.23-8.55v-21.14h4.96Z"/>
    <path d="M525.96,767.35v5.87c-2.86-2.4-5.83-3.59-8.89-3.59-3.37,0-6.22,1.21-8.53,3.64-2.33,2.41-3.49,5.36-3.49,8.85s1.16,6.35,3.49,8.72,5.18,3.55,8.55,3.55c1.74,0,3.23-.28,4.45-.85.68-.28,1.39-.67,2.12-1.15s1.5-1.06,2.31-1.74v5.98c-2.84,1.6-5.81,2.4-8.93,2.4-4.69,0-8.7-1.64-12.02-4.91-3.3-3.3-4.96-7.29-4.96-11.95,0-4.18,1.38-7.91,4.15-11.19,3.4-4.01,7.81-6.02,13.21-6.02,2.95,0,5.8.8,8.55,2.4Z"/>
    <path d="M579.86,765.58v32.84h-4.96v-32.84h4.96Z"/>
    <path d="M630.44,798.42v-35.07l23.95,25.06v-22.82h4.96v34.84l-23.95-24.99v22.99h-4.96Z"/>
    <path d="M728.03,770.24h-13.17v7.89h12.78v4.66h-12.78v10.98h13.17v4.66h-18.12v-32.84h18.12v4.66Z"/>
  </g>
</svg>