<?xml version="1.0" encoding="UTF-8"?>
<svg id="Layer_1" data-name="Layer 1" xmlns="http://www.w3.org/2000/svg" viewBox="0 0 1080 1080">
  <defs>
    <style>
      .cls-1 {
        fill-rule: evenodd;
      }
    </style>
  </defs>
  <polygon class="cls-1" points="76.36 638.79 90.32 638.79 90.32 601.91 99.14 601.91 150.16 638.79 173.06 638.79 113.4 596.9 166.67 558.35 145.9 558.13 99.99 591.15 90.32 591.15 90.32 558.13 76.36 558.13 76.36 638.79"/>
  <polygon class="cls-1" points="187.52 574.46 201.83 574.46 201.83 559.03 187.52 559.03 187.52 574.46"/>
  <polygon class="cls-1" points="209.63 574.46 223.93 574.46 223.93 559.03 209.63 559.03 209.63 574.46"/>
  <path class="cls-1" d="M228.12,637.89h13.22v-57.32h-14.02v32.6c0,13.49-7.19,14.85-23.44,14.85h-1.87c-13.24,0-17.63-2.6-17.63-11.03v-36.42h-14.08v38.78c0,10.34,5.73,19.44,23.82,19.44h13.88c13.44,0,17.71-.53,19.88-9.69h.22v8.79h0Z"/>
  <path class="cls-1" d="M252.51,657.89h12.4v-23.41c2.44,3.23,4.22,4.44,14.51,4.44h18.54c20,0,28.26-6.25,28.26-24.68v-10.04c0-19.65-12.89-24-26.68-24h-18.42c-8.59,0-13.33,1.6-16.16,8.52l-.23-7.64h-12.21v76.8h0ZM312.89,614.99c0,11.44-5.89,13.57-15.71,13.57h-15.02c-8.94,0-16.39-1.94-16.39-13.77v-9.4c0-8.53,4.22-14.25,15.32-14.25h16.79c11.88,0,15.03,4.56,15.03,14.15v9.7h0Z"/>
  <path class="cls-1" d="M334.27,657.89h12.39v-23.41c2.44,3.23,4.22,4.44,14.51,4.44h18.54c20.01,0,28.26-6.25,28.26-24.68v-10.04c0-19.65-12.89-24-26.68-24h-18.42c-8.59,0-13.33,1.6-16.16,8.52l-.23-7.64h-12.21v76.8h0ZM394.66,614.99c0,11.44-5.89,13.57-15.71,13.57h-15.02c-8.94,0-16.39-1.94-16.39-13.77v-9.4c0-8.53,4.22-14.25,15.31-14.25h16.79c11.88,0,15.02,4.56,15.02,14.15v9.7h0Z"/>
  <path class="cls-1" d="M485.48,627.75h-35.16c-16.91,0-23.91-1.72-23.91-14.64l60.5.11.43-8.4c0-20.27-12.51-24.61-29.86-24.61h-15.55c-13.75,0-28.1,3.68-28.17,22.94v12.36c0,20.94,14.42,23.28,27.04,23.28h44.52l.15-11.03h0ZM474.48,604.21h-47.48c.79-10.3,3.83-12.25,17.3-12.25h12.46c13.85,0,17.72,4.62,17.72,9.24v3.02h0Z"/>
  <path class="cls-1" d="M615.54,561.9h12.39v23.41c2.44-3.23,4.22-4.44,14.51-4.44h18.54c20.01,0,28.25,6.25,28.25,24.67v10.04c0,19.65-12.88,24-26.68,24h-18.42c-8.59,0-13.33-1.6-16.16-8.53l-.23,7.64h-12.21v-76.8h0ZM675.91,604.8c0-11.44-5.89-13.57-15.71-13.57h-15.02c-8.94,0-16.4,1.94-16.4,13.76v9.41c0,8.53,4.22,14.24,15.31,14.24h16.79c11.88,0,15.03-4.55,15.03-14.15v-9.7h0Z"/>
  <path class="cls-1" d="M753.35,637.89h13.22v-57.32h-14.02v32.6c0,13.49-7.19,14.85-23.44,14.85h-1.87c-13.24,0-17.63-2.6-17.63-11.03v-36.42h-14.08v38.78c0,10.34,5.73,19.44,23.81,19.44h13.89c13.44,0,17.7-.53,19.87-9.69h.23v8.79h0Z"/>
  <path class="cls-1" d="M945.84,559.27h-13.04v79.3h13.84v-32.6c0-13.49,7.19-14.86,23.44-14.86h1.87c13.24,0,17.63,2.61,17.63,11.04v36.42h14.07v-38.78c0-10.35-5.73-19.44-23.82-19.44h-13.89c-13.44,0-17.7.53-19.87,9.7h-.23v-30.78h0Z"/>
  <path class="cls-1" d="M867.93,606.35c0-12.92,8.64-13.33,16.95-13.33h37.45v-12.45h-37.33c-15.87,0-30.85,1.71-30.85,28.94s11.88,29.56,30.85,29.56h37.33v-12.45h-37.45c-8.6,0-16.88-.41-16.88-13.33l-.08-6.94h0Z"/>
  <path class="cls-1" d="M790.77,615.59h36.07c5.94,0,6.22,2.53,6.22,5.96,0,5.43-6.51,4.93-6.51,4.93h-50.34v12.29h50.06c6.79,0,20.16-3.72,20.16-13.43v-9.51s-1.42-12.61-14.5-12.61h-36.07c-5.94,0-6.22-2-6.22-5.43,0-5.43,6.51-4.94,6.51-4.94h47.46v-12.29h-47.18c-6.51,0-20.16,3.71-20.16,13.43v9.5s2.27,12.08,14.51,12.08h0Z"/>
  <path class="cls-1" d="M548.41,615.59h36.07c5.94,0,6.22,2.53,6.22,5.96,0,5.43-6.5,4.93-6.5,4.93h-50.34v12.29h50.05c6.79,0,20.16-3.72,20.16-13.43v-9.51s-1.41-12.61-14.5-12.61h-36.07c-5.94,0-6.22-2-6.22-5.43,0-5.43,6.5-4.94,6.5-4.94h47.46v-12.29h-47.18c-6.51,0-20.16,3.71-20.16,13.43v9.5s2.26,12.08,14.5,12.08h0Z"/>
  <path class="cls-1" d="M497.46,580.38v58.4h12.25v-36.33s-.53-14.8,18.38-9.69v-12.65s-15.45-2.15-18.38,6.99c0-4.04-.09-6.73-.09-6.73h-12.16Z"/>
</svg>