<?xml version="1.0" encoding="UTF-8"?>
<svg id="Layer_1" data-name="Layer 1" xmlns="http://www.w3.org/2000/svg" viewBox="0 0 1080 1080">
  <path d="M95.21,607.41c0,90.84,73.91,164.75,164.75,164.75,37.08,0,71.27-12.3,98.85-33.03v-21.31c-26.26,23.54-60.86,37.91-98.85,37.91-81.76,0-148.24-66.48-148.24-148.24s66.48-148.24,148.24-148.24c37.91,0,72.59,14.37,98.85,37.91v-21.31c-27.58-20.73-61.77-33.03-98.85-33.03-90.84-.17-164.75,73.75-164.75,164.59"/>
  <path d="M561.97,574.46c4.54,0,8.26-3.72,8.26-8.26s-3.72-8.26-8.26-8.26h-153.77v98.85h153.77c4.54,0,8.26-3.72,8.26-8.26s-3.72-8.26-8.26-8.26h-54.92v-24.94h54.92c4.54,0,8.26-3.72,8.26-8.26s-3.72-8.26-8.26-8.26h-54.92v-24.53h54.92v.17Z"/>
  <path d="M770.66,574.46c4.54,0,8.26-3.72,8.26-8.26s-3.72-8.26-8.26-8.26h-153.77v98.85h98.85v-41.37h54.92c4.54,0,8.26-3.72,8.26-8.26s-3.72-8.26-8.26-8.26h-54.92v-24.53h54.92v.08Z"/>
  <path d="M976.54,574.46c4.54,0,8.26-3.72,8.26-8.26s-3.72-8.26-8.26-8.26h-153.77v98.85h98.85v-41.37h54.92c4.54,0,8.26-3.72,8.26-8.26s-3.72-8.26-8.26-8.26h-54.92v-24.53h54.92v.08Z"/>
  <path d="M350.55,558.03c-4.54,0-8.26,3.72-8.26,8.26v62.35l-34.44-57.31c-4.95-8.26-13.87-13.3-23.54-13.3h-106.7v90.59c0,4.54,3.72,8.26,8.26,8.26s8.26-3.72,8.26-8.26v-62.35l34.44,57.31c4.95,8.26,13.87,13.3,23.54,13.3h106.78v-90.68c-.08-4.54-3.8-8.18-8.34-8.18"/>
</svg>