<?xml version="1.0" encoding="UTF-8"?>
<svg id="Layer_1" data-name="Layer 1" xmlns="http://www.w3.org/2000/svg" viewBox="0 0 1080 1080">
  <defs>
    <style>
      .cls-1 {
        fill: #171717;
      }

      .cls-2 {
        fill: #181818;
      }

      .cls-3 {
        fill: #a9a9a9;
      }

      .cls-4 {
        fill: #161616;
      }
    </style>
  </defs>
  <rect class="cls-3" x="190.69" y="694.02" width="698.62" height="31.38"/>
  <path class="cls-1" d="M856.23,743.33l24.95,45.11v-45.11h7.85v56.18s-.39.42-.42.42h-9.95l-25.51-46.24v45.81s-.39.42-.42.42h-7.29s-.42-.39-.42-.42v-56.18h11.21Z"/>
  <path class="cls-1" d="M750.26,743.33v23.54h27.19v-23.54h7.85v56.32h-7.85v-25.36s-.39-.42-.42-.42h-26.77v25.78h-8.13v-56.32h8.13Z"/>
  <path class="cls-1" d="M588.22,743.33v24.66c.97-.04,1.35-1.2,1.96-1.83,7.36-7.67,15.04-15.05,22.29-22.83h10.79l-26.36,26.76,28.32,29.84h-11.63c-8.12-8.79-15.97-17.84-24.11-26.62-.34-.36-.7-.9-1.27-.84v27.46h-7.85v-56.6h7.85Z"/>
  <path class="cls-1" d="M642.05,743.33v36.01c0,6.33,4.27,13.09,10.82,14.12,10.98,1.74,16.25-5.05,16.93-15.25v-34.88h7.85v37.97c0,6.85-5.62,15.17-11.98,17.73-14.47,5.83-30.51-1.64-31.47-18.01-.61-12.53-.13-25.13-.28-37.69h8.13Z"/>
  <path class="cls-1" d="M832.12,743.33v7.29h-23.55v16.25h21.17s.42.39.42.42v6.59h-21.59v18.77h23.55v7.01h-31.4v-56.32h31.4Z"/>
  <path class="cls-1" d="M731.71,744.78c-.21,2.06.1,5.18-.23,7.1-.06.33-.14.5-.42.69-5.43-3.23-11.85-3.79-17.92-2.21-19.56,5.09-20.49,34.52-2.03,41.78,6.27,2.47,14.36,1.71,20.37-1.17l.52,7.81c-17.54,5.71-37.65-.24-41.82-19.9-2.97-13.97,2.37-28.14,15.88-33.91,7.82-3.34,17.81-3.5,25.65-.19Z"/>
  <path class="cls-2" d="M666.44,738.57h-7.85v-8.13h7.43s.42.39.42.42v7.71Z"/>
  <path class="cls-1" d="M652.98,730.45v8.13h-7.57v-7.71s.39-.42.42-.42h7.15Z"/>
  <g>
    <polygon class="cls-1" points="596.07 494.23 596.07 677.2 531.87 677.2 531.03 494.23 596.07 494.23"/>
    <g>
      <path class="cls-4" d="M347.96,677.2h-61.68v-75.25c-.28-14.51-11.44-22.11-24.2-13.25-3.37,2.34-9.72,9.25-9.72,13.54v74.96h-61.68v-144.59h61.68v10.37l8.22-5.09c23.34-10.77,54.98-14.46,73.35,7.2,7.95,9.37,12.69,22,14.02,34.18v97.93Z"/>
      <path d="M525.99,602.8c-2.15-51.5-42.4-76.29-90.9-74.02-47.21,2.21-85.82,33.85-80.09,84.09,2.19,19.21,12.26,37.2,27.15,49.36,51.64,42.15,146.94,15.06,143.83-59.42ZM460.95,614.3c-7.46,20.63-35.63,19.33-41.85-1.61-3.9-13.12,4.12-29.48,18.52-30.96,17.47-1.79,29.01,16.86,23.33,32.57Z"/>
    </g>
    <g>
      <path class="cls-4" d="M689.14,493.38v56.88h41.21v39.51h-41.21v29.56c0,4.4,5.06,8.72,8.78,10.28,13.21,5.52,26.16-2.4,35.79-10.98v49.46c-3.55,2.26-7.7,4.08-11.58,5.79-8.22,3.62-17.76,7.44-26.54,9.34-25.58,5.53-61.45-8.96-69.23-35.61-2.46-8.44-1.82-22.23-2-31.35s-.1-17.66-.27-26.49h-22.01s-.42-.39-.42-.42v-26.06l71.07-69.91h16.4Z"/>
      <path d="M844.03,637.41c-11.28.82-22.41.75-32.46-5.1-6.48-3.77-11.48-9.81-13.65-17.04h90.41c.7,0,.37-4.15.41-4.92.94-16.99-1.81-44.36-12.89-57.98-24.07-29.6-77.97-31.67-108.13-10.86-26.06,17.98-35.55,52.51-28.82,82.73,10.28,46.15,61.64,66.35,104.76,57.07,16.02-3.45,31.12-10.22,45.64-17.57v-32.22c-15.08,1.88-30.09,4.78-45.28,5.88ZM812.26,570.35c15.8-3.95,24.24,8.59,26.02,22.51h-42.05c1.21-9.81,5.6-19.9,16.03-22.51Z"/>
    </g>
  </g>
</svg>