<?xml version="1.0" encoding="UTF-8"?>
<svg id="Layer_1" data-name="Layer 1" xmlns="http://www.w3.org/2000/svg" viewBox="0 0 1080 1080">
  <g>
    <path d="M512.28,591.34c3.56,1.01,1.27,6.41,1.22,8.78-.43,21.66.39,43.4.05,65.06l3.84-6.63c11.33-15.8,36.66-13.84,49.06-.51,14.91,16.03,15.69,51.69,4.2,69.68-13.16,20.6-46.83,26.42-61.72,4.61l-15.53,12.57v-143.06c0-3.65-9.94-8.48-13.45-8.37-1.4-.66.02-2.11.44-2.11h31.9ZM533.5,651.97c-10.6,1.32-16.17,9.59-18.53,19.26-2.62,10.78-2.68,46.46.71,56.85,3.4,10.4,13.83,17.96,24.73,13.89,19.52-7.29,17.63-55.73,13.19-71.92-2.73-9.92-8.38-19.53-20.1-18.07Z"/>
    <path d="M327.18,598.06c-1.82,2.42-5.78,2.24-8.7,3.47-7.63,3.19-9.23,8.71-10.51,16.35-3.9,23.39-2.91,64.48-1.82,88.88.25,5.49.75,15.39,2.29,20.37,2.66,8.59,9.93,11.95,18.33,12.72,22.03,2.03,34.26-5.28,44.74-24.06,2.93-5.25,4.2-11.37,6.68-15.97.53-.99-.01-1.41,1.88-1.07l-4.19,45.3h-108.29v-2.5c14.79-1.71,15.39-19.7,15.99-31.44,1.26-24.49,2.14-65.21-.98-88.88-1.28-9.72-3.32-19.73-15.01-20.67v-2.51h59.61Z"/>
    <path d="M411.97,726.01c2.16,18.37,20.75,19.23,29.52,4.34,7.39-12.55,7.2-52.04,5.63-67.16-.5-4.84-1.16-8.88-6.01-10.77-2.18-.85-6.94-.31-6.48-3.17h31.48l1.26,1.26v83.07c0,1.22,2.54,5.32,3.76,6.31,2.21,1.78,4.28,1.82,6.78,2.49,1.36.37,2.48-.89,2.05,1.68-9.66-1.12-20.39,1.99-29.84.89-1.22-.14-2.16-.1-2.9-1.3v-16.36l-3.83,6.66c-8.02,13.93-33.77,16.45-44.45,5.11-12.11-12.86-5.65-56.76-7.09-75.14-.29-3.64-1.15-9.34-4.61-11.34-1.88-1.09-4.05-.97-6.07-1.52-1.45-.39-2.33.61-1.94-1.79h31.48l1.26,1.26v75.51Z"/>
    <g>
      <path d="M720.89,691.19h-59.6v13.84c0,5.48,4.51,20.34,7.69,25.03,10.38,15.3,33.82,10.76,42.51-4.22,1.27-2.18,4.61-12.07,5.17-12.46.85-.59,1.62-.4,2.55-.38-1.52,18.59-16.86,33.09-35.68,33.39-38.47.61-51.36-35.84-41.57-68.23,14.56-48.17,83.76-37.46,78.92,13.02ZM661.29,687h34.84c3.65,0,3.17-13.67,2.92-16.35-.77-8.33-4.41-16.48-12.96-18.93-20.97-6.03-24.74,20.37-24.81,35.28Z"/>
      <path d="M763.29,649.24c.3.08,1.47,1.39,1.26,1.67-19.58,1.78.96,25.45,5.87,33.57,2.61-7.94,16.04-21.23,10.98-29.84-2.26-3.85-8.01-1.35-8.45-5.4h32.74c.04,3.19-4.36,2.63-6.72,3.77-12.03,5.86-19.53,24.45-26.8,35.24,7.73,13.26,14.46,28.9,23.1,41.46,2.42,3.52,6.94,9.31,10.79,11.04,2.01.9,6.83.47,6.35,3.3h-46.17l7.61-4.55c2.35-4.67-.33-9.43-2.43-13.63-1.17-2.33-11.12-20.43-12.31-20.4-3.82,6.88-8.77,13.38-12.31,20.4-2.57,5.09-5.2,11.58,1.23,14.99,1.92,1.02,6.03.71,5.62,3.19h-32.74c-.35-2.75,4.66-2.72,6.71-3.78,13.68-7.03,21.62-26.77,29.35-39.45-8.19-12.42-14.56-28.49-23.61-40.12-1.08-1.39-2.99-4.09-4.14-5.09-3.02-2.65-8.08-2.99-9.15-6.37h43.23Z"/>
    </g>
    <g>
      <path d="M619.32,731.05c1.03,7.68,4.72,9.51,11.38,11.32,1.36.37,2.47-.9,2.06,1.69h-47.01c-.43-2.64.79-1.28,2.07-1.67,8.86-2.69,10.63-5.06,11.39-14.66,1.67-21.25-1.23-44.73-.12-66.22-.51-3.57-1.93-8.13-5.74-9.37-2.25-.73-6.06.55-5.92-2.89h30.64l1.26,1.26v80.55Z"/>
      <ellipse cx="609.19" cy="611.23" rx="11.92" ry="11.91"/>
    </g>
  </g>
  <g>
    <path d="M652.43,426.68c0,63.29-51.33,114.6-114.66,114.6s-114.66-51.31-114.66-114.6,51.33-114.6,114.66-114.6,114.66,51.31,114.66,114.6ZM529.32,316.39c-87.77,6.92-124.54,119.19-69.48,183.9,51.49,60.51,142.91,43.77,173.06-28.35,30.57-73.12-20.61-162.08-103.58-155.55Z"/>
    <path d="M542.08,363.12c.06,3.23-4.4,2.52-6.96,3.53-7.78,3.06-8.73,9.66-9.72,17.13-2.76,20.81-2.34,58.25-.98,79.64.31,4.85,1.16,12.27,3.87,16.27,5.72,8.46,24.97,7.59,33.68,4.41,13.15-4.8,20.42-21.64,25.02-33.71l1.34,3.76-3.43,35.67h-97.38c-.37-2.25.39-1.46,1.83-1.91,4.14-1.29,7.71-1.17,10.65-5.34s4.06-13.99,4.36-19.14c1.27-21.8,1.38-53.01,0-74.75-.71-11.06-2.8-23.83-16.83-23.04v-2.51h54.57Z"/>
  </g>
</svg>