<svg xmlns="http://www.w3.org/2000/svg"  viewBox="0 0 50 50" width="50px" height="50px"><path d="M 24 4 L 24 6 L 5 6 A 1.0001 1.0001 0 0 0 4 7 L 4 34 A 1.0001 1.0001 0 0 0 5 35 L 14 35 L 14 46 L 12 46 L 12 48 L 18 48 L 18 46 L 16 46 L 16 41 L 34 41 L 34 46 L 32 46 L 32 48 L 38 48 L 38 46 L 36 46 L 36 35 L 45 35 A 1.0001 1.0001 0 0 0 46 34 L 46 7 A 1.0001 1.0001 0 0 0 45 6 L 26 6 L 26 4 L 24 4 z M 6 8 L 44 8 L 44 33 L 6 33 L 6 8 z M 9.0019531 10.994141 A 1.0001 1.0001 0 0 0 8.0019531 11.994141 L 8.0019531 23.003906 A 1.0001 1.0001 0 0 0 9.0019531 24.003906 L 17.013672 24.003906 A 1.0001 1.0001 0 0 0 18.013672 23.003906 L 18.013672 11.994141 A 1.0001 1.0001 0 0 0 17.013672 10.994141 L 9.0019531 10.994141 z M 32.994141 11 A 1.0001 1.0001 0 0 0 31.994141 12 L 31.994141 23.007812 A 1.0001 1.0001 0 0 0 32.994141 24.007812 L 41.007812 24.007812 A 1.0001 1.0001 0 0 0 42.007812 23.007812 L 42.007812 12 A 1.0001 1.0001 0 0 0 41.007812 11 L 32.994141 11 z M 10.001953 12.994141 L 16.013672 12.994141 L 16.013672 22.003906 L 10.001953 22.003906 L 10.001953 12.994141 z M 33.994141 13 L 40.007812 13 L 40.007812 22.007812 L 33.994141 22.007812 L 33.994141 13 z M 13 14 A 1.001 1 0 0 0 13 16 A 1.001 1 0 0 0 13 14 z M 36.998047 14 A 1.001 1 0 0 0 36.998047 16 A 1.001 1 0 0 0 36.998047 14 z M 21.001953 16.990234 A 1.0001 1.0001 0 0 0 20.001953 17.990234 L 20.001953 28.998047 A 1.0001 1.0001 0 0 0 21.001953 29.998047 L 29.013672 29.998047 A 1.0001 1.0001 0 0 0 30.013672 28.998047 L 30.013672 17.990234 A 1.0001 1.0001 0 0 0 29.013672 16.990234 L 21.001953 16.990234 z M 22.001953 18.990234 L 28.013672 18.990234 L 28.013672 27.998047 L 22.001953 27.998047 L 22.001953 18.990234 z M 24.998047 20 A 1.001 1 0 0 0 24.998047 22 A 1.001 1 0 0 0 24.998047 20 z M 16 35 L 34 35 L 34 39 L 16 39 L 16 35 z"/></svg>