<?xml version="1.0" encoding="iso-8859-1"?><!-- Generator: Adobe Illustrator 20.1.0, SVG Export Plug-In . SVG Version: 6.00 Build 0)  --><svg xmlns="http://www.w3.org/2000/svg" xmlns:xlink="http://www.w3.org/1999/xlink" viewBox="0 0 50 50" width="500px" height="500px"><path style="fill:none;stroke:#000000;stroke-width:2;stroke-miterlimit:10;" d="M48.061,27.724c-1.138-1.025-2.92-0.865-4.003,0.218L34,38H24l-2-2l7.68-1.536c1.121-0.224,2.066-1.072,2.272-2.197c0.32-1.746-1.012-3.267-2.7-3.267H15.314c-2.122,0-4.157,0.843-5.657,2.343L1,40l9,9l3.414-3.414C13.789,45.211,14.298,45,14.828,45h18.515c1.061,0,2.078-0.421,2.828-1.172l12-12C49.312,30.688,49.275,28.817,48.061,27.724z"/><path style="fill:none;stroke:#000000;stroke-width:2;stroke-miterlimit:10;" d="M38,2c-2.551,0-4.777,1.369-6,3.408C30.777,3.369,28.551,2,26,2c-3.866,0-7,3.134-7,7c0,5.98,13,15,13,15s13-9.067,13-15C45,5.134,41.866,2,38,2z"/></svg>