<svg xmlns="http://www.w3.org/2000/svg"  viewBox="0 0 50 50" width="50px" height="50px"><path d="M 7 3 C 6.448 3 6 3.447 6 4 L 6 47 C 6 47.553 6.448 48 7 48 L 11 48 C 11.552 48 12 47.553 12 47 L 12 39.003906 L 38 39.091797 L 38 47 C 38 47.553 38.448 48 39 48 L 43 48 C 43.552 48 44 47.553 44 47 L 44 4 C 44 3.447 43.552 3 43 3 L 39 3 C 38.448 3 38 3.447 38 4 L 38 18.091797 L 35 18.082031 L 35 12 C 35 11.845 34.963531 11.690734 34.894531 11.552734 L 34 9.7636719 L 34 8 C 34 7.447 33.552 7 33 7 L 28 7 C 27.448 7 27 7.447 27 8 L 27 9.7636719 L 26.105469 11.552734 C 26.036469 11.690734 26 11.845 26 12 L 26 18.050781 L 23 18.041016 L 23 11 C 23 10.447 22.552 10 22 10 L 16 10 C 15.448 10 15 10.447 15 11 L 15 18.013672 L 12 18.003906 L 12 4 C 12 3.447 11.552 3 11 3 L 7 3 z M 8 5 L 10 5 L 10 18.996094 L 10 37.996094 L 10 46 L 8 46 L 8 5 z M 40 5 L 42 5 L 42 46 L 40 46 L 40 38.099609 L 40 19.099609 L 40 5 z M 29 9 L 32 9 L 32 10 C 32 10.155 32.036469 10.309266 32.105469 10.447266 L 33 12.236328 L 33 18 L 28 18 L 28 12.236328 L 28.894531 10.447266 C 28.963531 10.309266 29 10.155 29 10 L 29 9 z M 17 12 L 21 12 L 21 18 L 17 18 L 17 12 z M 12 20.003906 L 38 20.091797 L 38 37.091797 L 35.925781 37.085938 L 34.996094 25.917969 C 34.952094 25.398969 34.52 25 34 25 L 31 25 C 30.48 25 30.047906 25.398969 30.003906 25.917969 L 29.076172 37.0625 L 26 37.050781 L 26 33 C 26.552 33 27 32.553 27 32 L 27 28 C 27 27.447 26.552 27 26 27 L 15 27 C 14.448 27 14 27.447 14 28 L 14 32 C 14 32.553 14.448 33 15 33 L 15 37.013672 L 12 37.003906 L 12 20.003906 z M 31.919922 27 L 33.080078 27 L 33.912109 37 L 31.087891 37 L 31.919922 27 z M 16 29 L 25 29 L 25 31 L 16 31 L 16 29 z M 17 33 L 24 33 L 24 37 L 17 37 L 17 33 z"/></svg>