<?xml version="1.0" encoding="UTF-8"?>
<svg id="Layer_1" data-name="Layer 1" xmlns="http://www.w3.org/2000/svg" viewBox="0 0 491.44 496.48">
  <path d="M245.72,29.24c120.95,0,219,98.05,219,219s-98.05,219-219,219S26.72,369.2,26.72,248.24,124.76,29.24,245.72,29.24ZM321.26,337.51c4.03-12.36,22.9-135.53,25.23-159.8.7-7.35-1.62-12.24-6.17-14.42-5.5-2.65-13.65-1.32-23.11,2.09-12.97,4.68-178.76,75.07-188.34,79.14-9.08,3.86-17.67,8.06-17.67,14.16,0,4.28,2.54,6.69,9.55,9.2,7.29,2.6,25.66,8.17,36.51,11.16,10.45,2.89,22.34.38,29-3.76,7.07-4.39,88.6-58.95,94.46-63.73,5.85-4.78,10.51,1.34,5.73,6.13-4.78,4.78-60.75,59.1-68.13,66.62-8.96,9.13-2.6,18.6,3.41,22.39,6.87,4.32,56.24,37.44,63.67,42.75s14.98,7.72,21.88,7.72,10.54-9.09,13.98-19.65Z"/>
</svg>