<svg xmlns="http://www.w3.org/2000/svg"  viewBox="0 0 50 50" width="50px" height="50px"><path d="M 24.878906 3 C 21.195313 3.082031 18.5 4.210938 16.875 6.351563 C 14.945313 8.882813 14.496094 13.066406 15.707031 18.199219 C 15.292969 18.726563 14.925781 19.578125 15.019531 20.734375 C 15.316406 22.898438 16.136719 23.789063 16.808594 24.152344 C 17.125 25.871094 18.117188 27.824219 19 28.753906 L 19 32.316406 C 18.421875 33.6875 16.410156 34.488281 14.09375 35.40625 C 10.191406 36.953125 5.335938 38.875 5 44.945313 L 4.945313 46 L 28 46 C 28 45.964844 27.996094 45.925781 27.996094 45.890625 C 27.980469 45.863281 27.96875 45.828125 27.953125 45.800781 C 26.722656 43.820313 26 41.492188 26 39 C 26 37.476563 26.28125 36.019531 26.765625 34.660156 C 26.769531 34.652344 26.769531 34.640625 26.769531 34.632813 L 26.730469 34.582031 L 26.804688 34.542969 C 26.820313 34.503906 26.835938 34.464844 26.851563 34.425781 C 26.945313 34.179688 27.039063 33.9375 27.148438 33.699219 C 27.175781 33.636719 27.207031 33.578125 27.234375 33.515625 C 27.429688 33.109375 27.640625 32.714844 27.871094 32.328125 C 27.945313 32.203125 28.019531 32.082031 28.097656 31.960938 C 28.207031 31.789063 28.324219 31.621094 28.441406 31.457031 C 28.488281 31.394531 28.523438 31.332031 28.570313 31.273438 L 25.023438 33.246094 L 21 31.03125 L 21 28.300781 L 21.015625 27.730469 L 20.511719 27.441406 C 20.148438 27.179688 18.886719 25.195313 18.707031 23.308594 L 18.695313 22.410156 L 17.785156 22.410156 C 17.644531 22.355469 17.195313 21.878906 17.011719 20.515625 C 16.941406 19.675781 17.367188 19.328125 17.367188 19.328125 L 17.953125 18.9375 L 17.78125 18.253906 C 16.570313 13.46875 16.859375 9.671875 18.46875 7.558594 C 19.707031 5.929688 21.878906 5.066406 24.902344 5 C 26.792969 5 28.152344 5.476563 28.636719 6.304688 L 28.878906 6.722656 L 29.359375 6.789063 C 30.691406 6.976563 31.371094 7.5625 31.976563 8.566406 C 33.425781 10.960938 33.167969 15.734375 32.300781 18.164063 L 31.984375 18.984375 L 32.777344 19.382813 C 32.867188 19.445313 33.105469 19.792969 33.046875 20.507813 C 32.914063 21.988281 32.445313 22.382813 32.34375 22.402344 L 31.476563 22.402344 L 31.355469 23.257813 C 31.066406 25.269531 29.824219 27.179688 29.503906 27.433594 L 29 27.71875 L 29 30.574219 L 31.285156 28.285156 L 31.484375 28.085938 C 32.136719 27.058594 32.9375 25.550781 33.21875 24.1875 C 33.9375 23.847656 34.832031 22.964844 35.039063 20.683594 C 35.132813 19.558594 34.824219 18.730469 34.398438 18.195313 C 35.246094 15.46875 35.484375 10.503906 33.6875 7.53125 C 32.835938 6.121094 31.800781 5.226563 30.082031 4.882813 C 29.117188 3.664063 27.300781 3 24.878906 3 Z M 37 28 L 36.402344 31.199219 C 36.101563 31.300781 35.699219 31.398438 35.402344 31.597656 L 32.699219 29.699219 L 29.699219 32.699219 L 31.5 35.199219 C 31.398438 35.597656 31.199219 35.902344 31.097656 36.300781 L 28 36.800781 L 28 41 L 31.097656 41.5 C 31.199219 41.800781 31.300781 42.199219 31.5 42.5 L 29.699219 45.199219 L 32.699219 48.199219 L 35.402344 46.402344 C 35.800781 46.601563 36.101563 46.699219 36.5 46.800781 L 37 50 L 41.097656 50 L 41.699219 46.902344 C 42 46.800781 42.300781 46.699219 42.699219 46.5 L 45.402344 48.300781 L 48.402344 45.300781 L 46.5 42.699219 C 46.699219 42.300781 46.800781 41.898438 46.902344 41.597656 L 50 41 L 50 36.800781 L 46.800781 36.300781 C 46.699219 36 46.601563 35.601563 46.402344 35.300781 L 48.199219 32.597656 L 45.300781 29.699219 L 42.699219 31.597656 C 42.398438 31.398438 42 31.300781 41.699219 31.199219 L 41.199219 28 Z M 38.699219 30 L 39.5 30 L 39.902344 32.699219 L 40.5 32.902344 C 41.101563 33.101563 41.699219 33.300781 42.199219 33.597656 L 42.800781 34 L 45.097656 32.300781 L 45.597656 32.800781 L 44 35.097656 L 44.300781 35.597656 C 44.601563 36.199219 44.800781 36.800781 45 37.402344 L 45.199219 38 L 48 38.402344 L 48 39.199219 L 45.300781 39.800781 L 45.097656 40.402344 C 44.898438 41 44.699219 41.597656 44.402344 42.097656 L 44 42.699219 L 45.699219 45 L 45.097656 45.597656 L 42.800781 44 L 42.300781 44.300781 C 41.699219 44.601563 41.101563 44.800781 40.5 45 L 39.902344 45.199219 L 39.402344 48 L 38.597656 48 L 38.199219 45.300781 L 37.597656 45.097656 C 37 44.898438 36.402344 44.699219 35.902344 44.402344 L 35.300781 44 L 32.902344 45.597656 L 32.300781 45 L 33.902344 42.699219 L 33.597656 42.199219 C 33.300781 41.597656 33.101563 40.902344 32.902344 40.402344 L 32.699219 39.800781 L 30 39.300781 L 30 38.5 L 32.800781 38 L 32.902344 37.300781 C 33 36.800781 33.199219 36.199219 33.5 35.699219 L 33.902344 35.199219 L 32.300781 32.902344 L 32.902344 32.300781 L 35.199219 33.902344 L 35.699219 33.699219 C 36.398438 33.398438 37 33.101563 37.597656 32.902344 L 38.199219 32.800781 Z M 20.773438 33.195313 L 20.777344 33.199219 L 23.265625 34.589844 L 20.988281 37.417969 L 19.121094 35.152344 C 19.835938 34.613281 20.414063 33.984375 20.773438 33.195313 Z M 39 35 C 36.804688 35 35 36.804688 35 39 C 35 41.195313 36.804688 43 39 43 C 41.164063 43 43 41.246094 43 39 C 43 36.804688 41.195313 35 39 35 Z M 17.375 36.175781 L 20.230469 39.636719 C 20.417969 39.867188 20.707031 40.003906 21.007813 40 C 21.308594 40 21.589844 39.859375 21.78125 39.625 L 23.742188 37.1875 L 24.5 37.800781 C 24.5 37.800781 22.507813 40.769531 22 44 L 7.121094 44 C 7.855469 40.027344 11.398438 38.625 14.828125 37.265625 C 15.714844 36.914063 16.578125 36.566406 17.375 36.175781 Z M 39 37 C 40.105469 37 41 37.894531 41 39 C 41 40.203125 40.136719 41 39 41 C 37.894531 41 37 40.105469 37 39 C 37 37.894531 37.894531 37 39 37 Z"/></svg>