<svg xmlns="http://www.w3.org/2000/svg"  viewBox="0 0 50 50" width="50px" height="50px"><path d="M 23 4 C 11.355 4 10.334203 14.639688 9.6582031 21.679688 C 9.4002031 24.367687 9.1348906 27.145563 8.3378906 27.851562 C 8.1238906 28.041563 8 28.313609 8 28.599609 C 8 30.865609 11.291406 31.569922 16.066406 32.169922 C 16.029406 32.274922 16 32.383 16 32.5 C 16 32.517 16.003906 32.533781 16.003906 32.550781 C 15.303906 33.786781 13.313313 34.571531 11.195312 35.394531 C 7.2493125 36.927531 2.3369531 38.836313 2.0019531 44.945312 C 1.9859531 45.219313 2.0854375 45.4875 2.2734375 45.6875 C 2.4634375 45.8875 2.726 46 3 46 L 30.478516 46 L 31.001953 44 L 4.1210938 44 C 4.8600937 40.001 8.4459219 38.609766 11.919922 37.259766 C 13.920922 36.482766 15.833062 35.731234 17.039062 34.490234 C 18.110062 35.407234 19.914 36 22 36 C 26.147 36 28.2765 33.361531 28.5625 33.144531 C 28.3315 32.924531 28.128328 32.6935 27.986328 32.4375 C 27.980328 32.3475 27.964547 32.262641 27.935547 32.181641 C 30.558547 31.856641 36.199219 30.879 36.199219 28.5 C 36.199219 28.218 36.080094 27.949766 35.871094 27.759766 C 35.166094 27.121766 35.100062 24.405766 35.039062 22.009766 C 34.884062 15.761766 34.649047 6.3827187 24.623047 6.0117188 L 23.894531 4.5527344 C 23.724531 4.2137344 23.379 4 23 4 z M 22.386719 6.0117188 L 23.105469 7.4472656 C 23.275469 7.7852656 23.621 8 24 8 C 32.049 8 32.840062 14.092594 33.039062 22.058594 C 33.108063 24.853594 33.166656 27.155969 33.972656 28.542969 C 33.115656 29.089969 30.506031 29.951688 26.707031 30.304688 C 26.425031 30.330687 26.167047 30.474172 25.998047 30.701172 C 25.828047 30.929172 25.763359 31.219094 25.818359 31.496094 C 25.899359 31.899094 25.900391 32.218 25.900391 32.5 C 25.900391 32.556 25.920687 32.607109 25.929688 32.662109 C 25.619688 33.125109 24.234 34 22 34 C 19.856 34 18.444797 33.229656 18.091797 32.722656 C 18.199797 31.967656 18.199219 31.612781 18.199219 31.300781 C 18.199219 30.794781 17.821359 30.366641 17.318359 30.306641 C 13.214359 29.818641 10.80825 29.300203 10.15625 28.783203 C 11.11925 27.378203 11.357438 24.900141 11.648438 21.869141 C 12.312437 14.949141 13.136719 6.3717187 22.386719 6.0117188 z M 39.0625 28.910156 C 38.6625 28.910156 38.2625 29.210156 38.0625 29.410156 L 35.662109 35.710938 L 28.962891 36.111328 C 28.562891 36.111328 28.1625 36.410547 28.0625 36.810547 C 27.9625 37.210547 28.062891 37.710156 28.462891 37.910156 L 33.5625 42.111328 L 31.861328 48.611328 C 31.761328 49.011328 31.961719 49.510937 32.261719 49.710938 C 32.461719 49.810938 32.661328 49.910156 32.861328 49.910156 C 33.062328 49.910156 33.263891 49.810938 33.462891 49.710938 L 39.0625 46.111328 L 44.662109 49.810547 C 44.962109 50.110547 45.461719 50.010547 45.761719 49.810547 C 46.161719 49.510547 46.262109 49.110937 46.162109 48.710938 L 44.462891 42.210938 L 49.662109 38.011719 C 49.962109 37.711719 50.062891 37.310156 49.962891 36.910156 C 49.862891 36.510156 49.4625 36.210938 49.0625 36.210938 L 42.361328 35.810547 L 39.962891 29.511719 C 39.862891 29.211719 39.4625 28.910156 39.0625 28.910156 z M 39.0625 32.710938 L 40.662109 37.210938 C 40.862109 37.510938 41.1625 37.810547 41.5625 37.810547 L 46.363281 38.111328 L 42.662109 41.111328 C 42.362109 41.311328 42.263281 41.711328 42.363281 42.111328 L 43.5625 46.710938 L 39.5625 44.111328 C 39.4625 44.011328 39.2625 43.910156 39.0625 43.910156 C 38.8615 43.910156 38.662891 44.011719 38.462891 44.011719 L 34.462891 46.611328 L 35.662109 42.011719 C 35.762109 41.711719 35.663281 41.211719 35.363281 41.011719 L 31.662109 38.011719 L 36.462891 37.810547 C 36.862891 37.710547 37.163281 37.511328 37.363281 37.111328 L 39.0625 32.710938 z"/></svg>